<svg viewBox="0 0 34 34" xmlns="http://www.w3.org/2000/svg">
  <g transform="translate(1 1)" fill="none" fill-rule="evenodd">
    <circle stroke="#00576F" fill="#edf4f5" cx="16" cy="16" r="16"/>
    <path d="M19.186 19.53V21h-6.692v-1.33l3.388-3.654c.401-.439.695-.84.882-1.204.187-.364.28-.723.28-1.078 0-.457-.133-.803-.399-1.036-.266-.233-.646-.35-1.141-.35-.877 0-1.778.345-2.702 1.036l-.602-1.316c.392-.355.896-.637 1.512-.847a5.737 5.737 0 0 1 1.862-.315c.999 0 1.79.245 2.373.735.583.49.875 1.15.875 1.981 0 .57-.124 1.106-.371 1.61s-.66 1.069-1.239 1.694l-2.45 2.604h4.424z" fill="#00576F"/>
  </g>
</svg>