<svg viewBox="0 0 34 34" xmlns="http://www.w3.org/2000/svg">
  <g transform="translate(1 1)" fill="none" fill-rule="evenodd">
    <circle stroke="#00576F" fill="#edf4f5" cx="16" cy="16" r="16"/>
    <path d="M17.24 15.876c.588.159 1.038.448 1.351.868.313.42.469.938.469 1.554 0 .868-.32 1.554-.959 2.058-.64.504-1.5.756-2.583.756a6.133 6.133 0 0 1-1.939-.308c-.62-.205-1.132-.49-1.533-.854l.616-1.316c.887.69 1.815 1.036 2.786 1.036.635 0 1.108-.126 1.421-.378.313-.252.469-.635.469-1.148 0-.504-.159-.875-.476-1.113-.317-.238-.807-.357-1.47-.357h-1.316v-1.442h1.078c1.288 0 1.932-.49 1.932-1.47 0-.457-.14-.807-.42-1.05-.28-.243-.672-.364-1.176-.364-.896 0-1.792.345-2.688 1.036l-.602-1.316c.401-.355.908-.637 1.519-.847a5.757 5.757 0 0 1 1.883-.315c.98 0 1.762.24 2.345.721.583.48.875 1.122.875 1.925-.01.55-.152 1.029-.427 1.435-.275.406-.66.702-1.155.889z" fill="#00576F"/>
  </g>
</svg>