<svg width="34" height="34" xmlns="http://www.w3.org/2000/svg">
  <g transform="translate(1 1)" fill="none" fill-rule="evenodd">
    <circle stroke="#00576F" fill="#edf4f5" cx="16" cy="16" r="16"/>
    <path d="M16.232 14.63c.625 0 1.176.133 1.652.399s.845.64 1.106 1.12c.261.48.392 1.034.392 1.659 0 .653-.15 1.23-.448 1.729-.299.5-.728.887-1.288 1.162-.56.275-1.209.413-1.946.413a5.613 5.613 0 0 1-1.848-.315c-.607-.21-1.106-.492-1.498-.847l.602-1.316c.905.69 1.83 1.036 2.772 1.036.625 0 1.104-.156 1.435-.469.331-.313.497-.758.497-1.337 0-.55-.17-.992-.511-1.323-.34-.331-.796-.497-1.365-.497-.392 0-.76.072-1.106.217a2.616 2.616 0 0 0-.91.637h-1.092v-5.866h6.244v1.4h-4.48v2.716c.504-.345 1.101-.518 1.792-.518z" fill="#00576F"/>
  </g>
</svg>