<svg width="34" height="34" xmlns="http://www.w3.org/2000/svg">
  <g transform="translate(1 1)" fill="none" fill-rule="evenodd">
    <circle stroke="#00576F" fill="#edf4f5" cx="16" cy="16" r="16"/>
    <path d="M16.316 14.602c.588 0 1.113.135 1.575.406.462.27.824.649 1.085 1.134.261.485.392 1.04.392 1.666 0 .635-.142 1.204-.427 1.708a3.053 3.053 0 0 1-1.19 1.183c-.509.285-1.085.427-1.729.427-1.26 0-2.23-.427-2.912-1.281-.681-.854-1.022-2.07-1.022-3.647 0-1.101.161-2.049.483-2.842.322-.793.789-1.4 1.4-1.82.611-.42 1.337-.63 2.177-.63.597 0 1.178.1 1.743.301.565.2 1.057.488 1.477.861l-.616 1.316c-.877-.69-1.722-1.036-2.534-1.036-.737 0-1.307.313-1.708.938s-.611 1.521-.63 2.688c.215-.42.541-.754.98-1.001a2.913 2.913 0 0 1 1.456-.371zm-.378 5.096c.513 0 .926-.168 1.239-.504.313-.336.469-.78.469-1.33s-.156-.992-.469-1.323c-.313-.331-.73-.497-1.253-.497-.523 0-.947.168-1.274.504-.327.336-.49.775-.49 1.316s.166.982.497 1.323c.331.34.758.511 1.281.511z" fill="#00576F"/>
  </g>
</svg>