<svg xmlns="http://www.w3.org/2000/svg" viewBox="0 0 216 216">
  <path fill="#edf4f5" d="M124.33 68.57A237.11 237.11 0 0 0 108 68c-5.535 0-10.975.2-16.295.566-4.051 3.538-8.068 7.227-11.99 11.149-3.94 3.94-7.626 7.964-11.15 12.012A237.457 237.457 0 0 0 68 108c0 5.526.2 10.958.565 16.27 3.524 4.048 7.21 8.073 11.15 12.013 3.923 3.923 7.94 7.612 11.992 11.15A237.26 237.26 0 0 0 108 148c5.535 0 10.975-.2 16.295-.566 4.052-3.538 8.068-7.227 11.99-11.149 3.94-3.94 7.626-7.964 11.15-12.012.365-5.313.565-10.746.565-16.273 0-5.528-.2-10.96-.565-16.274-3.524-4.049-7.21-8.073-11.15-12.013a237.308 237.308 0 0 0-11.955-11.144zM108 124c-8.824 0-16-7.178-16-16s7.176-16 16-16 16 7.178 16 16-7.176 16-16 16zM72.54 62.566c5.133-.77 10.45-1.373 15.923-1.8a226.313 226.313 0 0 1 12.53-9.927c-7.435-4.854-14.717-8.859-21.606-11.903-2.711 7.007-5.025 14.966-6.847 23.63zM137.559 69.861c1.462 1.395 2.932 2.745 4.382 4.196 1.451 1.45 2.803 2.922 4.198 4.384-.326-2.537-.7-5.024-1.105-7.475a212.062 212.062 0 0 0-7.475-1.105zM108 60c2.012 0 4.008.027 5.99.073a211.043 211.043 0 0 0-5.998-4.467c-2.018 1.448-4.037 2.911-6.049 4.47 2.005-.048 4.022-.076 6.057-.076zM60 108c0-2.01.027-4.005.073-5.986a209.484 209.484 0 0 0-4.426 5.985 209.644 209.644 0 0 0 4.426 5.985A258.05 258.05 0 0 1 60 108zM74.059 74.059c1.44-1.44 2.912-2.804 4.373-4.196-2.534.325-5.018.698-7.466 1.103-.405 2.452-.78 4.94-1.105 7.477 1.395-1.462 2.747-2.933 4.198-4.384zM50.835 100.962a226.534 226.534 0 0 1 9.93-12.48 226.838 226.838 0 0 1 1.801-15.942c-8.659 1.82-16.613 4.133-23.618 6.842 3.042 6.883 7.04 14.153 11.887 21.58zM127.537 155.234a226.755 226.755 0 0 1-12.549 9.942c7.328 4.78 14.593 8.756 21.645 11.838 2.702-6.996 5.01-14.937 6.827-23.58-5.134.77-10.45 1.373-15.923 1.8zM62.566 143.46a227.026 227.026 0 0 1-1.802-15.945 226.192 226.192 0 0 1-9.929-12.479c-4.847 7.428-8.846 14.698-11.887 21.581 7.005 2.71 14.96 5.022 23.618 6.843z"/>
  <path fill="#edf4f5" d="M108 100c-4.41 0-8 3.588-8 8s3.59 8 8 8 8-3.588 8-8-3.59-8-8-8zM127.518 60.765c5.48.427 10.802 1.031 15.942 1.801-1.817-8.644-4.126-16.585-6.828-23.581-7.046 3.079-14.305 7.051-21.626 11.827 4.169 3.08 8.344 6.392 12.512 9.953zM88.465 155.234a226.637 226.637 0 0 1-15.925-1.8c1.817 8.644 4.125 16.585 6.828 23.581 7.052-3.082 14.318-7.059 21.646-11.84a226.558 226.558 0 0 1-12.549-9.94zM31.63 82.513C16.96 89.49 8 98.415 8 108s8.96 18.509 23.629 25.487c3.55-8.171 8.294-16.747 14.203-25.488-5.908-8.74-10.653-17.315-14.203-25.486zM108.001 170.122c-8.604 5.815-17.18 10.618-25.49 14.246C89.49 199.04 98.414 208 108 208s18.511-8.962 25.49-23.633c-8.309-3.628-16.885-8.43-25.489-14.245zM74.059 141.94c-1.452-1.452-2.803-2.922-4.198-4.385.326 2.538.7 5.027 1.105 7.48 2.449.404 4.934.777 7.468 1.103-1.461-1.394-2.935-2.758-4.375-4.198zM184.371 82.513c-3.55 8.17-8.293 16.746-14.202 25.486 5.909 8.74 10.653 17.316 14.203 25.487C199.04 126.508 208 117.585 208 108s-8.96-18.509-23.629-25.487zM153.434 72.54c.77 5.14 1.373 10.46 1.801 15.94a226.029 226.029 0 0 1 9.931 12.482c4.847-7.427 8.845-14.697 11.887-21.58-7.006-2.708-14.96-5.021-23.62-6.842zM141.941 141.941c-1.44 1.44-2.912 2.804-4.373 4.196 2.534-.326 5.018-.699 7.466-1.103.405-2.452.78-4.94 1.105-7.477-1.395 1.463-2.747 2.933-4.198 4.384zM133.489 31.632C126.51 16.96 117.586 8 108 8c-9.585 0-18.51 8.96-25.487 23.628 8.181 3.556 16.769 8.307 25.522 14.226 8.592-5.804 17.157-10.6 25.454-14.222zM108 156c-2.034 0-4.05-.028-6.054-.075 2.014 1.56 4.035 3.025 6.055 4.474 2.02-1.45 4.041-2.915 6.056-4.474-2.005.047-4.022.075-6.057.075zM165.166 115.036a226.314 226.314 0 0 1-9.93 12.482 226.838 226.838 0 0 1-1.802 15.942c8.659-1.82 16.614-4.134 23.62-6.843-3.042-6.883-7.04-14.153-11.888-21.58zM156 108c0 2.01-.027 4.005-.073 5.986 1.542-1.998 3-3.994 4.428-5.987a210.05 210.05 0 0 0-4.428-5.987c.046 1.981.073 3.976.073 5.988z"/>
  <path fill="#00576F" d="M216 108c0-12.847-10.825-24.358-28.709-32.89 6.574-18.631 6.143-34.41-2.924-43.477-8.849-8.853-24.222-9.78-43.48-2.928C132.356 10.825 120.845 0 108 0 95.154 0 83.643 10.825 75.112 28.709c-18.635-6.576-34.415-6.146-43.48 2.922-9.066 9.067-9.497 24.847-2.923 43.48C10.825 83.64 0 95.151 0 108c0 12.847 10.825 24.358 28.709 32.89-6.574 18.631-6.143 34.41 2.924 43.477 4.996 4.998 12.055 7.502 20.723 7.502 6.683 0 14.372-1.582 22.761-4.566C83.647 205.179 95.157 216 108 216c12.844 0 24.353-10.821 32.884-28.7 8.388 2.985 16.077 4.567 22.76 4.567 8.668 0 15.727-2.504 20.723-7.502 9.066-9.066 9.498-24.845 2.925-43.476C205.175 132.358 216 120.847 216 108zm-52.398-75.853c6.5 0 11.68 1.712 15.109 5.142 6.769 6.77 6.743 19.396 1.326 34.676-8.276-3.258-17.722-5.945-28.06-7.943-1.992-10.305-4.668-19.722-7.912-27.979 7.297-2.547 13.928-3.896 19.537-3.896zm-26.97 144.867c-7.05-3.082-14.316-7.058-21.644-11.838a226.755 226.755 0 0 0 12.55-9.942 226.553 226.553 0 0 0 15.922-1.8c-1.817 8.643-4.125 16.584-6.827 23.58zm-64.092-23.58c5.134.77 10.452 1.373 15.925 1.8a226.523 226.523 0 0 0 12.55 9.942c-7.329 4.78-14.595 8.757-21.647 11.84-2.703-6.997-5.01-14.938-6.828-23.582zm70.92-90.868a226.864 226.864 0 0 0-15.942-1.801 225.988 225.988 0 0 0-12.512-9.953c7.32-4.776 14.58-8.748 21.626-11.827 2.702 6.996 5.01 14.937 6.828 23.581zM148 108c0 5.527-.2 10.96-.565 16.273-3.524 4.048-7.21 8.072-11.15 12.012-3.922 3.922-7.938 7.61-11.99 11.149-5.32.365-10.76.566-16.295.566-5.534 0-10.974-.2-16.293-.566-4.052-3.54-8.07-7.228-11.992-11.15-3.94-3.941-7.626-7.966-11.15-12.013A237.483 237.483 0 0 1 68 108c0-5.527.2-10.96.565-16.273 3.524-4.048 7.21-8.072 11.15-12.012 3.922-3.922 7.938-7.61 11.99-11.149C97.025 68.201 102.465 68 108 68c5.547 0 10.999.201 16.33.57 4.031 3.51 8.031 7.219 11.955 11.143 3.94 3.94 7.626 7.964 11.15 12.013.365 5.313.565 10.746.565 16.274zm-6.059-33.943c-1.45-1.45-2.92-2.801-4.382-4.196 2.536.326 5.024.7 7.475 1.105.405 2.451.779 4.938 1.105 7.475-1.395-1.463-2.747-2.933-4.198-4.384zM113.99 60.073A258.512 258.512 0 0 0 108 60c-2.035 0-4.053.028-6.057.075 2.012-1.558 4.03-3.021 6.049-4.47a211.183 211.183 0 0 1 5.998 4.468zm-25.527.693a226.546 226.546 0 0 0-15.923 1.8c1.822-8.664 4.136-16.623 6.847-23.63 6.89 3.044 14.17 7.05 21.605 11.903a226.36 226.36 0 0 0-12.53 9.927zm-10.031 9.097c-1.461 1.392-2.934 2.756-4.373 4.196-1.451 1.45-2.803 2.922-4.198 4.384.326-2.538.7-5.025 1.105-7.477 2.448-.404 4.932-.777 7.466-1.103zm-17.668 18.62a226.487 226.487 0 0 0-9.929 12.479c-4.847-7.427-8.845-14.697-11.887-21.58 7.005-2.709 14.96-5.021 23.619-6.842a226.777 226.777 0 0 0-1.803 15.942zm-.691 13.53A258.27 258.27 0 0 0 60 108c0 2.01.027 4.004.072 5.984a209.452 209.452 0 0 1-4.426-5.985 209.34 209.34 0 0 1 4.427-5.985zm.691 25.502a227.078 227.078 0 0 0 1.802 15.945c-8.659-1.82-16.613-4.134-23.619-6.843 3.042-6.883 7.04-14.153 11.888-21.581a226.108 226.108 0 0 0 9.93 12.48zm9.097 10.04c1.395 1.463 2.746 2.933 4.198 4.384 1.44 1.44 2.914 2.805 4.375 4.199-2.534-.326-5.02-.7-7.468-1.104a210.703 210.703 0 0 1-1.105-7.48zm32.085 18.37c2.004.047 4.02.075 6.054.075 2.035 0 4.053-.028 6.057-.075-2.015 1.56-4.036 3.024-6.056 4.474-2.02-1.45-4.04-2.915-6.055-4.474zm35.622-9.788c1.461-1.392 2.934-2.756 4.373-4.196 1.451-1.45 2.803-2.921 4.198-4.384-.326 2.538-.7 5.025-1.105 7.477-2.448.405-4.932.778-7.466 1.103zm17.668-18.62a226.446 226.446 0 0 0 9.93-12.48c4.847 7.427 8.846 14.697 11.887 21.58-7.005 2.71-14.96 5.022-23.62 6.843.77-5.14 1.375-10.463 1.803-15.942zm.691-13.53c.046-1.982.073-3.976.073-5.987 0-2.012-.027-4.007-.073-5.988 1.542 1.998 3 3.994 4.428 5.987a209.666 209.666 0 0 1-4.428 5.987zm-.692-25.506a227.038 227.038 0 0 0-1.801-15.94c8.659 1.82 16.613 4.133 23.619 6.842-3.042 6.882-7.04 14.152-11.887 21.579a226.002 226.002 0 0 0-9.93-12.481zM108 8c9.586 0 18.51 8.96 25.489 23.632-8.297 3.623-16.862 8.418-25.454 14.222-8.753-5.92-17.34-10.67-25.522-14.226C89.49 16.96 98.415 8 108 8zM37.29 37.287c3.57-3.57 8.769-5.256 15.124-5.256 5.69 0 12.332 1.394 19.545 3.95-3.255 8.27-5.94 17.71-7.936 28.04-10.338 1.999-19.783 4.686-28.06 7.944-5.417-15.281-5.443-27.908 1.326-34.678zM8 108c0-9.585 8.96-18.509 23.63-25.487 3.55 8.17 8.294 16.746 14.202 25.486-5.909 8.741-10.653 17.317-14.203 25.488C16.96 126.509 8 117.585 8 108zm29.29 70.71c-6.77-6.768-6.744-19.395-1.327-34.675 8.276 3.258 17.722 5.945 28.06 7.943 1.992 10.306 4.669 19.724 7.914 27.982-15.76 5.498-28.262 5.14-34.648-1.25zM108 208c-9.586 0-18.51-8.96-25.489-23.632 8.309-3.628 16.886-8.43 25.49-14.246 8.604 5.814 17.18 10.617 25.488 14.245C126.511 199.038 117.586 208 108 208zm70.71-29.291c-6.389 6.392-18.89 6.752-34.646 1.25 3.245-8.257 5.921-17.675 7.913-27.981 10.338-1.998 19.784-4.685 28.06-7.943 5.417 15.28 5.443 27.905-1.326 34.674zm5.662-45.223c-3.55-8.17-8.294-16.746-14.203-25.487 5.909-8.74 10.652-17.315 14.202-25.486C199.04 89.491 208 98.415 208 108s-8.96 18.508-23.628 25.486z"/>
  <path fill="#00576F" d="M108 92c-8.824 0-16 7.178-16 16s7.176 16 16 16 16-7.178 16-16-7.176-16-16-16zm0 24c-4.41 0-8-3.588-8-8s3.59-8 8-8 8 3.588 8 8-3.59 8-8 8z"/>
</svg>
