<?xml version="1.0" encoding="utf-8"?>
<!-- Generator: Adobe Illustrator 19.2.0, SVG Export Plug-In . SVG Version: 6.00 Build 0)  -->
<svg version="1.1" id="atom" xmlns="http://www.w3.org/2000/svg" xmlns:xlink="http://www.w3.org/1999/xlink" x="0px" y="0px"
	 viewBox="0 0 216 216" enable-background="new 0 0 216 216" xml:space="preserve">
<g>
	<path fill="#edf4f5" d="M124.3298,68.5693C118.999,68.2012,113.5471,68,108,68c-5.5349,0-10.9751,0.2007-16.2949,0.5664
		c-4.0515,3.5381-8.0679,7.2266-11.9902,11.1484c-3.9404,3.9404-7.6262,7.9644-11.1499,12.0127C68.2,97.04,68,102.4727,68,108
		c0,5.5264,0.2,10.958,0.5649,16.2705c3.5237,4.0479,7.2095,8.0723,11.1499,12.0127c3.9231,3.9229,7.9404,7.6113,11.9927,11.1504
		C97.0264,147.7998,102.4658,148,108,148c5.5352,0,10.9753-0.2007,16.2952-0.5664c4.0515-3.5381,8.0676-7.2266,11.99-11.1484
		c3.9404-3.9404,7.6262-7.9644,11.1499-12.0127C147.8,118.96,148,113.5273,148,108c0-5.5278-0.2-10.9609-0.5652-16.2744
		c-3.5237-4.0483-7.2095-8.0723-11.1497-12.0127C132.3611,75.7891,128.3611,72.0801,124.3298,68.5693z M108,124
		c-8.8242,0-16-7.1777-16-16s7.1758-16,16-16s16,7.1777,16,16S116.8242,124,108,124z"/>
	<path fill="#edf4f5" d="M72.5398,62.5664c5.1335-0.7695,10.4502-1.373,15.9231-1.8008c4.1401-3.5342,8.3262-6.8228,12.5295-9.9268
		c-7.4346-4.8535-14.7161-8.8584-21.6057-11.9033C76.676,45.9434,74.3616,53.9023,72.5398,62.5664z"/>
	<path fill="#edf4f5" d="M137.5588,69.8613c1.4619,1.3945,2.9321,2.7451,4.3826,4.1953c1.4509,1.4512,2.8025,2.9219,4.1973,4.3843
		c-0.3259-2.5366-0.6997-5.0239-1.1045-7.4751C142.583,70.5615,140.0955,70.1875,137.5588,69.8613z"/>
	<path fill="#edf4f5" d="M108,60c2.0122,0,4.0076,0.0269,5.9895,0.0728c-2.001-1.5435-4.0015-3.0376-5.9976-4.4673
		c-2.0181,1.4482-4.0366,2.9116-6.0486,4.4697C103.9475,60.0278,105.9648,60,108,60z"/>
	<path fill="#edf4f5" d="M60,108c0-2.0107,0.0269-4.0054,0.0728-5.9863c-1.5408,1.9971-2.9988,3.9932-4.4263,5.9854
		c1.4275,1.9922,2.8853,3.9878,4.426,5.9849C60.0266,112.0039,60,110.0103,60,108z"/>
	<path fill="#edf4f5" d="M74.0586,74.0586c1.4397-1.4399,2.9124-2.8032,4.373-4.1958c-2.5334,0.3257-5.0178,0.6987-7.4658,1.103
		c-0.4048,2.4521-0.7791,4.9395-1.105,7.4775C71.2559,76.9805,72.6077,75.5098,74.0586,74.0586z"/>
	<path fill="#edf4f5" d="M50.835,100.9619c3.074-4.1582,6.3779-8.3223,9.9294-12.4795c0.4277-5.4795,1.032-10.8027,1.802-15.9424
		c-8.6589,1.8208-16.613,4.1333-23.6182,6.8418C41.99,86.2646,45.988,93.5347,50.835,100.9619z"/>
	<path fill="#edf4f5" d="M127.5371,155.2344c-4.1465,3.5391-8.3389,6.833-12.5486,9.9414
		c7.3271,4.7803,14.5928,8.7559,21.6443,11.8379c2.7024-6.9961,5.01-14.9365,6.8274-23.5801
		C138.3264,154.2031,133.0103,154.8066,127.5371,155.2344z"/>
	<path fill="#edf4f5" d="M62.5664,143.46c-0.77-5.1406-1.3743-10.4644-1.8022-15.9448c-3.5515-4.1567-6.8555-8.3208-9.9292-12.479
		c-4.8472,7.4277-8.8457,14.6982-11.8875,21.5811C45.9529,139.3262,53.9072,141.6392,62.5664,143.46z"/>
	<path fill="#edf4f5" d="M108,100c-4.4102,0-8,3.5879-8,8s3.5898,8,8,8s8-3.5879,8-8S112.4102,100,108,100z"/>
	<path fill="#edf4f5" d="M127.5183,60.7646c5.4797,0.4277,10.8022,1.0317,15.9419,1.8018
		c-1.8174-8.644-4.1257-16.585-6.8281-23.5815c-7.0459,3.0791-14.3052,7.0513-21.6265,11.8267
		C119.175,53.8916,123.3501,57.2036,127.5183,60.7646z"/>
	<path fill="#edf4f5" d="M88.4653,155.2344c-5.4736-0.4277-10.791-1.0312-15.9255-1.8008c1.8174,8.644,4.1257,16.585,6.8281,23.5815
		c7.0522-3.082,14.3184-7.0591,21.6462-11.8394C96.8042,162.0674,92.6121,158.7739,88.4653,155.2344z"/>
	<path fill="#edf4f5" d="M31.6294,82.5127C16.96,89.4912,8,98.415,8,108s8.96,18.5088,23.6289,25.4868
		c3.55-8.1709,8.2944-16.7466,14.2034-25.4878C39.9236,99.2588,35.1794,90.6836,31.6294,82.5127z"/>
	<path fill="#edf4f5" d="M108.0015,170.1216c-8.6045,5.8159-17.1814,10.6187-25.4902,14.2466C89.4895,199.0391,98.4138,208,108,208
		c9.5864,0,18.5112-8.9619,25.4895-23.6328C125.1814,180.7393,116.6052,175.9365,108.0015,170.1216z"/>
	<path fill="#edf4f5" d="M74.0586,141.9395c-1.4512-1.4512-2.803-2.9219-4.198-4.3848c0.3262,2.5381,0.7002,5.0269,1.1052,7.4795
		c2.4487,0.4043,4.9338,0.7778,7.4683,1.1035C76.9727,144.7441,75.499,143.3799,74.0586,141.9395z"/>
	<path fill="#edf4f5" d="M184.3711,82.5132c-3.5498,8.1704-8.2935,16.7456-14.2019,25.4858
		c5.9087,8.7407,10.6528,17.3164,14.2026,25.4873C199.0405,126.5083,208,117.585,208,108S199.04,89.4912,184.3711,82.5132z"/>
	<path fill="#edf4f5" d="M153.4336,72.54c0.7698,5.1392,1.3738,10.4609,1.8018,15.9404c3.5522,4.1572,6.8567,8.3223,9.9309,12.4814
		c4.8464-7.4268,8.8447-14.6968,11.8862-21.5791C170.0471,76.6738,162.0928,74.3608,153.4336,72.54z"/>
	<path fill="#edf4f5" d="M141.9414,141.9414c-1.4397,1.4399-2.9124,2.8032-4.373,4.1958c2.5334-0.3257,5.0178-0.6987,7.4658-1.103
		c0.4048-2.4521,0.7791-4.9395,1.105-7.4775C144.7441,139.0195,143.3923,140.4902,141.9414,141.9414z"/>
	<path fill="#edf4f5" d="M133.4888,31.6318C126.5105,16.9609,117.5862,8,108,8c-9.5854,0-18.5093,8.96-25.4873,23.6284
		c8.1816,3.5552,16.7693,8.3062,25.5222,14.2261C116.6272,40.0498,125.1917,35.2549,133.4888,31.6318z"/>
	<path fill="#edf4f5" d="M108,156c-2.0342,0-4.0505-0.0278-6.054-0.0752c2.0144,1.5596,4.0349,3.0249,6.0552,4.4746
		c2.0203-1.4502,4.041-2.915,6.0554-4.4746C112.0525,155.9722,110.0352,156,108,156z"/>
	<path fill="#edf4f5" d="M165.1663,115.0361c-3.0742,4.1592-6.3784,8.3232-9.9307,12.4814
		c-0.4277,5.4795-1.032,10.8027-1.802,15.9424c8.6594-1.8208,16.6143-4.1338,23.6196-6.8428
		C174.0115,129.7344,170.0132,122.4639,165.1663,115.0361z"/>
	<path fill="#edf4f5" d="M156,108c0,2.0107-0.0269,4.0054-0.0728,5.9863c1.5413-1.998,2.9995-3.9941,4.4277-5.9873
		c-1.4282-1.9932-2.8865-3.9893-4.4277-5.9873C155.9731,103.9932,156,105.9883,156,108z"/>
	<path fill="#00576F" d="M216,108c0-12.8472-10.8254-24.3579-28.7087-32.8896c6.5737-18.6318,6.1423-34.4111-2.9241-43.4775
		c-8.8491-8.8525-24.2219-9.7793-43.4805-2.9277C132.3555,10.8242,120.8452,0,108,0C95.1538,0,83.6433,10.8252,75.1118,28.709
		c-18.6345-6.5762-34.4153-6.1455-43.479,2.9219c-9.0669,9.0669-9.4978,24.8472-2.9236,43.4795C10.8254,83.6416,0,95.1523,0,108
		c0,12.8472,10.8254,24.3579,28.7087,32.8896c-6.5737,18.6318-6.1423,34.4111,2.9241,43.4775
		c4.9961,4.998,12.0547,7.502,20.7227,7.502c6.6838,0,14.3728-1.5825,22.7615-4.5664C83.6479,205.1792,95.1565,216,108,216
		c12.844,0,24.3528-10.8213,32.8838-28.6992c8.3882,2.9844,16.0771,4.5664,22.7607,4.5664c8.668,0,15.7266-2.5039,20.7227-7.502
		c9.0662-9.0664,9.4978-24.8447,2.9248-43.4761C205.175,132.3579,216,120.8467,216,108z M163.6016,32.1465
		c6.5,0,11.6797,1.7129,15.1094,5.1426c6.769,6.769,6.7432,19.3955,1.3257,34.6758c-8.2759-3.2578-17.7214-5.9448-28.0593-7.9429
		c-1.9919-10.3052-4.6685-19.7222-7.9128-27.979C151.3616,33.4961,157.9934,32.1465,163.6016,32.1465z M136.6328,177.0137
		c-7.0515-3.082-14.3171-7.0576-21.6443-11.8379c4.2097-3.1084,8.4021-6.4023,12.5486-9.9414
		c5.4731-0.4277,10.7893-1.0312,15.9231-1.8008C141.6428,162.0771,139.3352,170.0176,136.6328,177.0137z M72.5398,153.4336
		c5.1345,0.7695,10.4519,1.373,15.9255,1.8008c4.1467,3.5396,8.3389,6.833,12.5488,9.9414
		c-7.3279,4.7803-14.594,8.7573-21.6462,11.8394C76.6655,170.0186,74.3572,162.0776,72.5398,153.4336z M143.4602,62.5664
		c-5.1396-0.77-10.4622-1.374-15.9419-1.8018c-4.1682-3.561-8.3433-6.873-12.5127-9.9531
		c7.3213-4.7754,14.5806-8.7476,21.6265-11.8267C139.3345,45.9814,141.6428,53.9224,143.4602,62.5664z M148,108
		c0,5.5273-0.2,10.96-0.5649,16.2725c-3.5237,4.0483-7.2095,8.0723-11.1499,12.0127c-3.9224,3.9219-7.9385,7.6104-11.99,11.1484
		C118.9753,147.7993,113.5352,148,108,148c-5.5342,0-10.9736-0.2002-16.2925-0.5664c-4.0522-3.5391-8.0696-7.2275-11.9927-11.1504
		c-3.9404-3.9404-7.6262-7.9648-11.1499-12.0127C68.2,118.958,68,113.5264,68,108c0-5.5273,0.2-10.96,0.5649-16.2725
		c3.5237-4.0483,7.2095-8.0723,11.1499-12.0127c3.9224-3.9219,7.9387-7.6104,11.9902-11.1484C97.0249,68.2007,102.4651,68,108,68
		c5.5471,0,10.999,0.2012,16.3298,0.5693c4.0312,3.5107,8.0312,7.2197,11.9553,11.1436c3.9402,3.9404,7.626,7.9644,11.1497,12.0127
		C147.8,97.0391,148,102.4722,148,108z M141.9414,74.0566c-1.4504-1.4502-2.9207-2.8008-4.3826-4.1953
		c2.5366,0.3262,5.0242,0.7002,7.4753,1.1045c0.4048,2.4512,0.7786,4.9385,1.1045,7.4751
		C144.7439,76.9785,143.3923,75.5078,141.9414,74.0566z M113.9895,60.0728C112.0076,60.0269,110.0122,60,108,60
		c-2.0352,0-4.0525,0.0278-6.0566,0.0752c2.012-1.5581,4.0305-3.0215,6.0486-4.4697
		C109.988,57.0352,111.9885,58.5293,113.9895,60.0728z M88.4629,60.7656c-5.4729,0.4277-10.7896,1.0312-15.9231,1.8008
		c1.8218-8.6641,4.1362-16.623,6.8469-23.6309c6.8896,3.0449,14.1711,7.0498,21.6057,11.9033
		C96.7891,53.9429,92.603,57.2314,88.4629,60.7656z M78.4316,69.8628c-1.4607,1.3926-2.9333,2.7559-4.373,4.1958
		c-1.4509,1.4512-2.8027,2.9219-4.1978,4.3848c0.3259-2.5381,0.7002-5.0254,1.105-7.4775
		C73.4138,70.5615,75.8982,70.1885,78.4316,69.8628z M60.7644,88.4824c-3.5515,4.1572-6.8555,8.3213-9.9294,12.4795
		c-4.8469-7.4272-8.845-14.6973-11.8867-21.5801c7.0051-2.7085,14.9592-5.021,23.6182-6.8418
		C61.7964,77.6797,61.1921,83.0029,60.7644,88.4824z M60.0728,102.0137C60.0269,103.9946,60,105.9893,60,108
		c0,2.0103,0.0266,4.0039,0.0725,5.9839c-1.5408-1.9971-2.9985-3.9927-4.426-5.9849
		C57.074,106.0068,58.532,104.0107,60.0728,102.0137z M60.7642,127.5151c0.428,5.4805,1.0322,10.8042,1.8022,15.9448
		c-8.6592-1.8208-16.6135-4.1338-23.6189-6.8428c3.0417-6.8828,7.0403-14.1533,11.8875-21.5811
		C53.9087,119.1943,57.2126,123.3584,60.7642,127.5151z M69.8606,137.5547c1.395,1.4629,2.7468,2.9336,4.198,4.3848
		c1.4404,1.4404,2.9141,2.8047,4.3755,4.1982c-2.5344-0.3257-5.0195-0.6992-7.4683-1.1035
		C70.5608,142.5815,70.1868,140.0928,69.8606,137.5547z M101.946,155.9248C103.9495,155.9722,105.9658,156,108,156
		c2.0352,0,4.0525-0.0278,6.0566-0.0752c-2.0144,1.5596-4.0352,3.0244-6.0554,4.4746
		C105.981,158.9497,103.9604,157.4844,101.946,155.9248z M137.5684,146.1372c1.4607-1.3926,2.9333-2.7559,4.373-4.1958
		c1.4509-1.4512,2.8027-2.9219,4.1978-4.3848c-0.3259,2.5381-0.7002,5.0254-1.105,7.4775
		C142.5862,145.4385,140.1018,145.8115,137.5684,146.1372z M155.2356,127.5176c3.5522-4.1582,6.8564-8.3223,9.9307-12.4814
		c4.8469,7.4277,8.8452,14.6982,11.887,21.5811c-7.0054,2.709-14.9602,5.022-23.6196,6.8428
		C154.2036,138.3203,154.8079,132.9971,155.2356,127.5176z M155.9272,113.9863C155.9731,112.0054,156,110.0107,156,108
		c0-2.0117-0.0269-4.0068-0.0728-5.9883c1.5413,1.998,2.9995,3.9941,4.4277,5.9873
		C158.9268,109.9922,157.4685,111.9883,155.9272,113.9863z M155.2354,88.4805c-0.428-5.4795-1.032-10.8013-1.8018-15.9404
		c8.6592,1.8208,16.6135,4.1338,23.6189,6.8428c-3.0415,6.8823-7.0398,14.1523-11.8862,21.5791
		C162.092,96.8027,158.7876,92.6377,155.2354,88.4805z M108,8c9.5862,0,18.5105,8.9609,25.4888,23.6318
		c-8.2971,3.623-16.8616,8.418-25.4539,14.2227c-8.7529-5.9199-17.3406-10.6709-25.5222-14.2261C89.4907,16.96,98.4146,8,108,8z
		 M37.2891,37.2871c3.5703-3.5703,8.7695-5.2559,15.125-5.2559c5.6904,0,12.3315,1.3936,19.5454,3.9492
		c-3.2551,8.2715-5.9399,17.7109-7.9368,28.0415c-10.3379,1.9976-19.783,4.6846-28.0588,7.9429
		C30.5459,56.6836,30.5198,44.0566,37.2891,37.2871z M8,108c0-9.585,8.96-18.5088,23.6294-25.4873
		c3.55,8.1709,8.2942,16.7461,14.2029,25.4863c-5.9089,8.7412-10.6533,17.3169-14.2034,25.4878C16.96,126.5088,8,117.585,8,108z
		 M37.2891,178.7109c-6.769-6.769-6.7432-19.3955-1.3257-34.6758c8.2759,3.2578,17.7212,5.9448,28.0593,7.9429
		c1.9922,10.3062,4.6689,19.7241,7.9138,27.9819C56.1775,185.458,43.6753,185.0991,37.2891,178.7109z M108,208
		c-9.5862,0-18.5105-8.9609-25.4888-23.6318c8.3088-3.6279,16.8857-8.4307,25.4902-14.2466
		c8.6038,5.8149,17.1799,10.6177,25.488,14.2456C126.5112,199.0381,117.5864,208,108,208z M178.7109,178.709
		c-6.3896,6.3916-18.8914,6.7515-34.6472,1.25c3.2449-8.2573,5.9216-17.6748,7.9136-27.981
		c10.3381-1.998,19.7839-4.6851,28.0601-7.9434C185.4541,159.3145,185.4797,171.9404,178.7109,178.709z M184.3718,133.4863
		c-3.5498-8.1709-8.2939-16.7466-14.2026-25.4873c5.9084-8.7402,10.6521-17.3154,14.2019-25.4858C199.04,89.4912,208,98.415,208,108
		S199.0405,126.5083,184.3718,133.4863z"/>
	<path fill="#00576F" d="M108,92c-8.8242,0-16,7.1777-16,16s7.1758,16,16,16s16-7.1777,16-16S116.8242,92,108,92z M108,116
		c-4.4102,0-8-3.5879-8-8s3.5898-8,8-8s8,3.5879,8,8S112.4102,116,108,116z"/>
</g>
</svg>
