<svg xmlns="http://www.w3.org/2000/svg" viewBox="0 0 216 176">
  <path fill="#FFF" d="M108 60c-24.262 0-44 19.738-44 44s19.738 44 44 44 44-19.738 44-44-19.738-44-44-44zm29.422 38.21l-11.809 11.513 2.785 16.254a4 4 0 0 1-5.804 4.216L108 122.52l-14.594 7.674a4 4 0 1 1-5.805-4.217l2.786-16.253L78.578 98.21a4.003 4.003 0 0 1-1.012-4.1 4.005 4.005 0 0 1 3.23-2.722l16.317-2.371 7.301-14.79c1.344-2.726 5.828-2.726 7.172 0l7.3 14.79 16.317 2.37a4.005 4.005 0 0 1 3.23 2.723 4.004 4.004 0 0 1-1.011 4.1z"/>
  <path fill="#edf4f5" d="M112.644 94.443L108 85.037l-4.644 9.406a3.995 3.995 0 0 1-3.012 2.19l-10.38 1.508 7.513 7.322a4 4 0 0 1 1.148 3.539l-1.77 10.338 9.282-4.881a4.007 4.007 0 0 1 3.726 0l9.281 4.88-1.769-10.337a4 4 0 0 1 1.148-3.54l7.512-7.321-10.379-1.508a3.995 3.995 0 0 1-3.012-2.19z"/>
  <path fill="#edf4f5" d="M196.023 44h-42.421a3.997 3.997 0 0 1-3.864-2.969L140.926 8H75.074l-8.812 33.031A3.997 3.997 0 0 1 62.398 44H19.977C13.37 44 8 49.377 8 55.988v100.024C8 162.623 13.371 168 19.977 168h176.046c6.606 0 11.977-5.377 11.977-11.988V55.988C208 49.377 202.629 44 196.023 44zM84 16h48v8H84v-8zm24 140c-28.672 0-52-23.326-52-52s23.328-52 52-52 52 23.326 52 52-23.328 52-52 52z"/>
  <path fill="#00576F" d="M196.023 36h-39.347l-8.813-33.031A3.997 3.997 0 0 0 144 0H72a3.997 3.997 0 0 0-3.863 2.969L59.324 36H19.977C8.96 36 0 44.967 0 55.988v100.024C0 167.033 8.96 176 19.977 176h176.046C207.04 176 216 167.033 216 156.012V55.988C216 44.967 207.04 36 196.023 36zM208 156.012c0 6.611-5.371 11.988-11.977 11.988H19.977C13.37 168 8 162.623 8 156.012V55.988C8 49.377 13.371 44 19.977 44h42.422a3.997 3.997 0 0 0 3.863-2.969L75.074 8h65.852l8.812 33.031A3.997 3.997 0 0 0 153.602 44h42.422C202.629 44 208 49.377 208 55.988v100.024z"/>
  <path fill="#00576F" d="M84 16h48v8H84zM108 52c-28.672 0-52 23.326-52 52s23.328 52 52 52 52-23.326 52-52-23.328-52-52-52zm0 96c-24.262 0-44-19.738-44-44s19.738-44 44-44 44 19.738 44 44-19.738 44-44 44z"/>
  <path fill="#00576F" d="M135.203 91.389l-16.316-2.371-7.301-14.79c-1.344-2.726-5.828-2.726-7.172 0l-7.3 14.79-16.317 2.37a4.005 4.005 0 0 0-3.23 2.723 4.003 4.003 0 0 0 1.011 4.1l11.809 11.512-2.786 16.254a4 4 0 0 0 5.805 4.216L108 122.52l14.594 7.674a4.009 4.009 0 0 0 4.215-.305 4 4 0 0 0 1.59-3.912l-2.786-16.253 11.809-11.512a4.003 4.003 0 0 0 1.012-4.1 4.005 4.005 0 0 0-3.23-2.722zm-16.68 14.074a4 4 0 0 0-1.148 3.539l1.77 10.338-9.282-4.881a4.007 4.007 0 0 0-3.726 0l-9.281 4.88 1.769-10.337a4 4 0 0 0-1.148-3.54l-7.512-7.321 10.379-1.508a3.995 3.995 0 0 0 3.012-2.19L108 85.037l4.644 9.406a3.995 3.995 0 0 0 3.012 2.19l10.38 1.508-7.513 7.322z"/>
</svg>
