<svg xmlns="http://www.w3.org/2000/svg" viewBox="0 0 200 212">
  <circle fill="#edf4f5" cx="100" cy="104" r="4"/>
  <circle fill="#edf4f5" cx="72" cy="104" r="4"/>
  <circle fill="#edf4f5" cx="128" cy="104" r="4"/>
  <path fill="#edf4f5" d="M100 8C49.272 8 8 49.188 8 99.816a91.541 91.541 0 0 0 23.469 61.262 4.005 4.005 0 0 1 .988 3.203l-4.851 36.309 30.478-17.11a3.992 3.992 0 0 1 3.623-.148c12.045 5.512 24.928 8.305 38.293 8.305 50.728 0 92-41.192 92-91.82S150.728 8 100 8zM72 116c-6.617 0-12-5.383-12-12s5.383-12 12-12 12 5.383 12 12-5.383 12-12 12zm28 0c-6.617 0-12-5.383-12-12s5.383-12 12-12 12 5.383 12 12-5.383 12-12 12zm28 0c-6.617 0-12-5.383-12-12s5.383-12 12-12 12 5.383 12 12-5.383 12-12 12z"/>
  <path fill="#00576F" d="M100 0C44.86 0 0 44.777 0 99.816a99.528 99.528 0 0 0 24.285 65.211l-5.67 42.442a3.995 3.995 0 0 0 1.72 3.84c.675.46 1.46.691 2.245.691.674 0 1.348-.168 1.96-.512l35.71-20.047c12.557 5.438 25.918 8.196 39.75 8.196 55.14 0 100-44.778 100-99.82C200 44.776 155.14 0 100 0zm0 191.637c-13.365 0-26.248-2.793-38.293-8.305a3.992 3.992 0 0 0-3.623.148l-30.479 17.11 4.852-36.309a4.005 4.005 0 0 0-.988-3.203A91.54 91.54 0 0 1 8 99.816C8 49.187 49.272 8 100 8s92 41.188 92 91.816-41.272 91.82-92 91.82z"/>
  <path fill="#00576F" d="M72 92c-6.617 0-12 5.383-12 12s5.383 12 12 12 12-5.383 12-12-5.383-12-12-12zm0 16c-2.205 0-4-1.793-4-4s1.795-4 4-4 4 1.793 4 4-1.795 4-4 4zM100 92c-6.617 0-12 5.383-12 12s5.383 12 12 12 12-5.383 12-12-5.383-12-12-12zm0 16c-2.205 0-4-1.793-4-4s1.795-4 4-4 4 1.793 4 4-1.795 4-4 4zM128 92c-6.617 0-12 5.383-12 12s5.383 12 12 12 12-5.383 12-12-5.383-12-12-12zm0 16c-2.205 0-4-1.793-4-4s1.795-4 4-4 4 1.793 4 4-1.795 4-4 4z"/>
</svg>
