<svg xmlns="http://www.w3.org/2000/svg" viewBox="0 0 233.838 160">
  <path fill="#edf4f5" d="M194.361 55.147l-2.707-1.1.225-2.914c.08-1.033.121-2.078.121-3.133 0-22.057-17.943-40-40-40-14.979 0-28.584 8.26-35.504 21.559l-1.512 2.902-3.144-.906a47.403 47.403 0 0 0-13.133-1.846c-23.24 0-43.24 17.197-46.521 40.004l-.498 3.469-3.977-.043C25.815 73.139 8 90.829 8 112.57S25.814 152 47.71 152H175.2c27.921 0 50.638-22.559 50.638-50.287 0-20.518-12.356-38.797-31.477-46.566zM48 88c-13.234 0-24 10.766-24 24a4 4 0 0 1-8 0c0-17.645 14.355-32 32-32a4 4 0 0 1 0 8zm92 11.916V136h-28V99.916c-7.46-4.758-12-12.943-12-21.916 0-14.336 11.664-26 26-26s26 11.664 26 26c0 8.973-4.54 17.158-12 21.916z"/>
  <path fill="#FFF" d="M126 60c-9.926 0-18 8.074-18 18 0 6.797 3.764 12.941 9.82 16.041l2.18 1.113V128h12V95.154l2.18-1.113c6.056-3.1 9.82-9.244 9.82-16.041 0-9.926-8.074-18-18-18z"/>
  <path fill="#00576F" d="M199.992 48.873c.006-.291.008-.582.008-.873 0-26.467-21.533-48-48-48-16.9 0-32.344 8.764-41.031 23.074a55.564 55.564 0 0 0-12.262-1.365c-26.043 0-48.611 18.48-53.85 43.514C19.873 66.693 0 87.367 0 112.57 0 138.723 21.402 160 47.71 160H175.2c32.333 0 58.638-26.148 58.638-58.287 0-22.838-13.191-43.28-33.846-52.84zM175.2 152H47.711C25.815 152 8 134.312 8 112.57S25.814 73.14 47.71 73.14l3.978.043.497-3.47C55.468 46.907 75.468 29.71 98.707 29.71c4.465 0 8.885.621 13.133 1.846l3.144.906 1.512-2.902C123.416 16.259 137.022 8 152 8c22.057 0 40 17.943 40 40 0 1.055-.041 2.1-.121 3.133l-.225 2.914 2.707 1.1c19.121 7.769 31.477 26.048 31.477 46.566 0 27.728-22.717 50.287-50.639 50.287z"/>
  <path fill="#00576F" d="M48 80c-17.645 0-32 14.355-32 32a4 4 0 0 0 8 0c0-13.234 10.766-24 24-24a4 4 0 0 0 0-8zM126 52c-14.336 0-26 11.664-26 26 0 8.973 4.54 17.158 12 21.916V136h28V99.916c7.46-4.758 12-12.943 12-21.916 0-14.336-11.664-26-26-26zm8.18 42.041L132 95.154V128h-12V95.154l-2.18-1.113C111.764 90.941 108 84.797 108 78c0-9.926 8.074-18 18-18s18 8.074 18 18c0 6.797-3.764 12.941-9.82 16.041z"/>
</svg>
