<svg xmlns="http://www.w3.org/2000/svg" viewBox="0 0 224 224">
  <path fill="#edf4f5" d="M200 112c0-48.523-39.477-88-88-88s-88 39.477-88 88 39.477 88 88 88 88-39.477 88-88zM79.906 140.094a4 4 0 0 1 8 0c0 13.285 10.809 24.094 24.094 24.094s24.094-10.809 24.094-24.094S125.285 116 112 116c-17.697 0-32.094-14.396-32.094-32.094 0-16.34 12.282-29.838 28.094-31.817V40h8v12.089c15.812 1.979 28.094 15.477 28.094 31.817a4 4 0 0 1-8 0c0-13.285-10.809-24.094-24.094-24.094s-24.094 10.81-24.094 24.094S98.715 108 112 108c17.697 0 32.094 14.396 32.094 32.094 0 16.34-12.282 29.838-28.094 31.817V184h-8v-12.089c-15.812-1.979-28.094-15.477-28.094-31.817z"/>
  <path fill="#FFF" d="M184.34 37.386l-5.575 5.73C196.775 60.575 208 84.995 208 112c0 52.934-43.066 96-96 96-16.67 0-32.356-4.278-46.032-11.783l-5.755 5.914C75.475 210.935 93.152 216 112 216c57.346 0 104-46.654 104-104 0-29.25-12.156-55.7-31.66-74.614zM58.95 191.958C33.085 174.741 16 145.333 16 112c0-52.934 43.066-96 96-96 23.055 0 44.234 8.175 60.803 21.771l5.594-5.748C160.37 17.03 137.222 8 112 8 54.654 8 8 54.654 8 112c0 35.573 17.962 67.02 45.284 85.78l5.666-5.822z"/>
  <path fill="#00576F" d="M112 0C50.242 0 0 50.242 0 112s50.242 112 112 112 112-50.242 112-112S173.758 0 112 0zM8 112C8 54.654 54.654 8 112 8c25.222 0 48.371 9.031 66.397 24.023l-5.594 5.748C156.234 24.176 135.055 16 112 16c-52.934 0-96 43.066-96 96 0 33.333 17.085 62.74 42.95 79.958l-5.666 5.823C25.962 179.02 8 147.573 8 112zm16 0c0-48.523 39.477-88 88-88s88 39.477 88 88-39.477 88-88 88-88-39.477-88-88zm88 104c-18.848 0-36.525-5.065-51.787-13.87l5.755-5.913C79.644 203.722 95.33 208 112 208c52.934 0 96-43.066 96-96 0-27.005-11.226-51.424-29.235-68.885l5.576-5.73C203.844 56.3 216 82.75 216 112c0 57.346-46.654 104-104 104z"/>
  <path fill="#00576F" d="M116 184v-12.089c15.812-1.979 28.094-15.477 28.094-31.817C144.094 122.397 129.697 108 112 108c-13.285 0-24.094-10.809-24.094-24.094S98.715 59.812 112 59.812s24.094 10.81 24.094 24.094a4 4 0 0 0 8 0c0-16.34-12.282-29.838-28.094-31.817V40h-8v12.089c-15.812 1.979-28.094 15.477-28.094 31.817C79.906 101.603 94.303 116 112 116c13.285 0 24.094 10.809 24.094 24.094S125.285 164.188 112 164.188s-24.094-10.81-24.094-24.094a4 4 0 0 0-8 0c0 16.34 12.282 29.838 28.094 31.817V184h8z"/>
</svg>
