<svg viewBox="0 0 60 60" xmlns="http://www.w3.org/2000/svg">
  <g stroke="#00576F" stroke-width="2" fill="none" fill-rule="evenodd" stroke-linecap="round" stroke-linejoin="round">
    <path d="M4 18h52v29.003A3.997 3.997 0 0 1 52.006 51H7.994A4 4 0 0 1 4 47.003V18z" fill="#edf4f5"/>
    <path d="M4 14h52v4H4z"/>
    <path fill="#edf4f5" d="M4 8h18l4 6H4z"/>
    <path d="M23.504 28.018A7 7 0 1 0 23 42h17v-.022a5.5 5.5 0 0 0-.221-10.971 9.003 9.003 0 0 0-16.275-2.99zM27.95 30.05A6.978 6.978 0 0 0 23 28" fill="#FFF"/>
  </g>
</svg>
