<svg xmlns="http://www.w3.org/2000/svg" viewBox="0 0 192 216.417">
  <path fill="#00576F" d="M188 44.416h-65.316c1.771-.798 3.548-1.657 5.316-2.677 16.512-9.535 25.05-24.611 19.445-34.322-2.91-5.04-8.824-7.631-16.867-7.403-7.062.238-15.082 2.754-22.578 7.082-3.7 2.137-7.075 4.606-10 7.277-2.925-2.671-6.3-5.14-10-7.277C80.504 2.768 72.484.252 65.422.014c-8-.23-13.953 2.364-16.867 7.402C42.949 17.128 51.488 32.205 68 41.74c1.768 1.02 3.544 1.879 5.314 2.677H4c-2.21 0-4 1.791-4 4v48c0 2.21 1.79 4 4 4h8v99.088c0 9.327 7.578 16.912 16.89 16.912h134.22c9.312 0 16.89-7.585 16.89-16.912v-99.088h8c2.21 0 4-1.79 4-4v-48c0-2.208-1.79-4-4-4zm-92.516-7c-1.343-2.326-.656-5.997 1.883-10.076.18-.29.438-.569.633-.858.195.289.452.569.633.858 2.539 4.078 3.226 7.75 1.883 10.076-.513.888-1.43 1.558-2.517 2.116-1.085-.558-2.002-1.228-2.515-2.115zM112 14.026c6.379-3.686 13.074-5.822 18.848-6.016.277-.01.554-.013.824-.013 4.379 0 7.578 1.228 8.844 3.42 2.84 4.914-3.246 15.73-16.516 23.392-5.81 3.356-11.403 5.14-16.154 5.756 2.38-4.913 1.562-11.06-2.424-17.455a36.63 36.63 0 0 0-2.009-2.86c2.485-2.264 5.386-4.376 8.587-6.224zm-56.516-2.61c1.344-2.326 4.895-3.562 9.668-3.406 5.774.194 12.47 2.33 18.848 6.016 3.2 1.849 6.102 3.96 8.587 6.225a36.584 36.584 0 0 0-2.009 2.859c-3.985 6.394-4.803 12.539-2.426 17.452-4.75-.617-10.343-2.4-16.152-5.753-13.27-7.662-19.355-18.478-16.516-23.392z"/>
  <path fill="#FFF" d="M116 92.416H76v-40h40z"/>
  <path fill="#edf4f5" d="M8 52.416h60v40H8zM20 199.504v-99.087h56v108H28.89c-4.902 0-8.89-3.999-8.89-8.913z"/>
  <path fill="#FFF" d="M84 100.416h24v108H84z"/>
  <path fill="#edf4f5" d="M172 199.504c0 4.915-3.988 8.913-8.89 8.913H116v-108h56v99.087zM184 92.416h-60v-40h60z"/>
</svg>
