<?xml version="1.0" encoding="utf-8"?>
<!-- Generator: Adobe Illustrator 19.2.0, SVG Export Plug-In . SVG Version: 6.00 Build 0)  -->
<svg version="1.1" id="giftbox" xmlns="http://www.w3.org/2000/svg" xmlns:xlink="http://www.w3.org/1999/xlink" x="0px" y="0px"
	 viewBox="0 0 192 216.4165" enable-background="new 0 0 192 216.4165" xml:space="preserve">
<path fill="#00576F" d="M188,44.4165h-65.3157c1.7712-0.7988,3.5479-1.6572,5.3157-2.6777
	c16.5117-9.5352,25.0508-24.6113,19.4453-34.3223c-2.9102-5.0391-8.8242-7.6309-16.8672-7.4023
	C123.5156,0.2524,115.4961,2.768,108,7.0962c-3.6992,2.1367-7.0754,4.6055-10,7.2773c-2.9246-2.6719-6.3008-5.1406-10-7.2773
	c-7.4961-4.3281-15.5156-6.8438-22.5781-7.082c-8-0.2305-13.9531,2.3633-16.8672,7.4023C42.9492,17.1274,51.4883,32.2036,68,41.7387
	c1.7676,1.0205,3.5437,1.8789,5.3145,2.6777H72H4c-2.2109,0-4,1.791-4,4v48c0,2.209,1.7891,4,4,4h8v99.0879
	c0,9.3262,7.5781,16.9121,16.8906,16.9121H80h32h51.1094c9.3125,0,16.8906-7.5859,16.8906-16.9121v-99.0879h8c2.2109,0,4-1.791,4-4
	v-48C192,46.2075,190.2109,44.4165,188,44.4165z M95.4844,37.4165c-1.3438-2.3262-0.6562-5.998,1.8828-10.0762
	c0.1804-0.2896,0.4375-0.5693,0.6328-0.8579c0.1953,0.2886,0.4524,0.5684,0.6328,0.8579c2.5391,4.0781,3.2266,7.75,1.8828,10.0762
	c-0.5125,0.8877-1.4299,1.5576-2.5166,2.1152C96.9138,38.9741,95.9971,38.3042,95.4844,37.4165z M112,14.0259
	c6.3789-3.6855,13.0742-5.8223,18.8477-6.0156c0.2773-0.0098,0.5547-0.0137,0.8242-0.0137c4.3789,0,7.578,1.2285,8.8438,3.4199
	c2.8398,4.9141-3.2461,15.7305-16.5156,23.3926c-5.8103,3.356-11.4031,5.1396-16.1538,5.7563
	c2.3794-4.9136,1.5613-11.0596-2.4243-17.4556c-0.6008-0.9639-1.2864-1.915-2.009-2.8589
	C105.8977,17.9863,108.7991,15.8745,112,14.0259z M55.4844,11.4165c1.3438-2.3262,4.8945-3.5625,9.668-3.4062
	C70.9258,8.2036,77.6211,10.3403,84,14.0259c3.2009,1.8486,6.1023,3.9604,8.5872,6.2251c-0.7227,0.9438-1.4082,1.895-2.009,2.8589
	c-3.9849,6.3945-4.803,12.5391-2.4258,17.4521C83.4016,39.9453,77.8091,38.1626,72,34.8091
	C58.7305,27.1469,52.6445,16.3305,55.4844,11.4165z"/>
<polygon fill="#edf4f5" points="116,92.4165 112,92.4165 80,92.4165 76,92.4165 76,52.4165 116,52.4165 "/>
<polygon fill="#edf4f5" points="8,52.4165 68,52.4165 68,92.4165 16,92.4165 8,92.4165 "/>
<path fill="#edf4f5" d="M20,199.5044v-99.0879h52h4v108H28.8906C23.9883,208.4165,20,204.4184,20,199.5044z"/>
<rect x="84" y="100.4165" fill="#edf4f5" width="24" height="108"/>
<path fill="#edf4f5" d="M172,199.5044c0,4.9141-3.9883,8.9121-8.8906,8.9121H116v-108h4h52V199.5044z"/>
<polygon fill="#edf4f5" points="184,92.4165 176,92.4165 124,92.4165 124,52.4165 184,52.4165 "/>
</svg>
