<?xml version="1.0" encoding="utf-8"?>
<!-- Generator: Adobe Illustrator 19.2.0, SVG Export Plug-In . SVG Version: 6.00 Build 0)  -->
<svg version="1.1" id="localstore" xmlns="http://www.w3.org/2000/svg" xmlns:xlink="http://www.w3.org/1999/xlink" x="0px" y="0px"
	 viewBox="0 0 200 208" enable-background="new 0 0 200 208" xml:space="preserve">
<g>
	<path fill="#edf4f5" d="M32,8v60c0,4.4121,3.5898,8,8,8s8-3.5879,8-8V8H32z"/>
	<path fill="#edf4f5" d="M8,8v60c0,4.4121,3.5898,8,8,8s8-3.5879,8-8V8H8z"/>
	<path fill="#FFFFFF" d="M16,200h12v-76c0-2.209,1.7891-4,4-4h48c2.2109,0,4,1.791,4,4v76h100V96H16V200z M92,120
		c0-2.209,1.7891-4,4-4h72c2.2109,0,4,1.791,4,4v60c0,2.209-1.7891,4-4,4H96c-2.2109,0-4-1.791-4-4V120z"/>
	<rect x="136" y="124" fill="#edf4f5" width="28" height="52"/>
	<path fill="#edf4f5" d="M36,128v72h40v-72H36z M72,168H56v-8h16V168z"/>
	<rect x="100" y="124" fill="#edf4f5" width="28" height="52"/>
	<path fill="#edf4f5" d="M56,8v60c0,4.4121,3.5898,8,8,8s8-3.5879,8-8V8H56z"/>
	<path fill="#edf4f5" d="M152,8v60c0,4.4121,3.5898,8,8,8s8-3.5879,8-8V8H152z"/>
	<path fill="#edf4f5" d="M80,8v60c0,4.4121,3.5898,8,8,8s8-3.5879,8-8V8H80z"/>
	<path fill="#edf4f5" d="M176,68c0,4.4121,3.5898,8,8,8s8-3.5879,8-8V8h-16V68z"/>
	<path fill="#edf4f5" d="M128,8v60c0,4.4121,3.5898,8,8,8s8-3.5879,8-8V8H128z"/>
	<path fill="#edf4f5" d="M104,8v60c0,4.4121,3.5898,8,8,8s8-3.5879,8-8V8H104z"/>
	<path fill="#00576F" d="M196,0h-24h-24h-24h-24H76H52H28H4C1.7891,0,0,1.791,0,4v64c0,8.8223,7.1758,16,16,16
		c4.802,0,9.0652-2.1694,12-5.5288C30.9348,81.8306,35.198,84,40,84s9.0652-2.1694,12-5.5288C54.9348,81.8306,59.198,84,64,84
		s9.0652-2.1694,12-5.5288C78.9348,81.8306,83.198,84,88,84s9.0652-2.1694,12-5.5288C102.9348,81.8306,107.198,84,112,84
		s9.0652-2.1694,12-5.5288C126.9348,81.8306,131.198,84,136,84s9.0652-2.1694,12-5.5288C150.9348,81.8306,155.198,84,160,84
		s9.0652-2.1694,12-5.5288C174.9348,81.8306,179.198,84,184,84c8.8242,0,16-7.1777,16-16V4C200,1.791,198.2109,0,196,0z M16,76
		c-4.4102,0-8-3.5879-8-8V8h16v60C24,72.4121,20.4102,76,16,76z M40,76c-4.4102,0-8-3.5879-8-8V8h16v60C48,72.4121,44.4102,76,40,76
		z M64,76c-4.4102,0-8-3.5879-8-8V8h16v60C72,72.4121,68.4102,76,64,76z M88,76c-4.4102,0-8-3.5879-8-8V8h16v60
		C96,72.4121,92.4102,76,88,76z M112,76c-4.4102,0-8-3.5879-8-8V8h16v60C120,72.4121,116.4102,76,112,76z M136,76
		c-4.4102,0-8-3.5879-8-8V8h16v60C144,72.4121,140.4102,76,136,76z M160,76c-4.4102,0-8-3.5879-8-8V8h16v60
		C168,72.4121,164.4102,76,160,76z M192,68c0,4.4121-3.5898,8-8,8s-8-3.5879-8-8V8h16V68z"/>
	<path fill="#00576F" d="M188,88H12c-2.2109,0-4,1.791-4,4v112c0,2.209,1.7891,4,4,4h20h48h108c2.2109,0,4-1.791,4-4V92
		C192,89.791,190.2109,88,188,88z M36,200v-72h40v72H36z M184,200H84v-76c0-2.209-1.7891-4-4-4H32c-2.2109,0-4,1.791-4,4v76H16V96
		h168V200z"/>
	<path fill="#00576F" d="M96,184h72c2.2109,0,4-1.791,4-4v-60c0-2.209-1.7891-4-4-4H96c-2.2109,0-4,1.791-4,4v60
		C92,182.209,93.7891,184,96,184z M164,176h-28v-52h28V176z M100,124h28v52h-28V124z"/>
	<rect x="56" y="160" fill="#00576F" width="16" height="8"/>
</g>
</svg>
