<svg xmlns="http://www.w3.org/2000/svg" viewBox="0 0 200 208">
  <path fill="#edf4f5" d="M32 8v60c0 4.412 3.59 8 8 8s8-3.588 8-8V8H32zM8 8v60c0 4.412 3.59 8 8 8s8-3.588 8-8V8H8z"/>
  <path fill="#FFF" d="M16 200h12v-76c0-2.209 1.79-4 4-4h48c2.21 0 4 1.791 4 4v76h100V96H16v104zm76-80c0-2.209 1.79-4 4-4h72c2.21 0 4 1.791 4 4v60c0 2.209-1.79 4-4 4H96c-2.21 0-4-1.791-4-4v-60z"/>
  <path fill="#edf4f5" d="M136 124h28v52h-28zM36 128v72h40v-72H36zm36 40H56v-8h16v8zM100 124h28v52h-28zM56 8v60c0 4.412 3.59 8 8 8s8-3.588 8-8V8H56zM152 8v60c0 4.412 3.59 8 8 8s8-3.588 8-8V8h-16zM80 8v60c0 4.412 3.59 8 8 8s8-3.588 8-8V8H80zM176 68c0 4.412 3.59 8 8 8s8-3.588 8-8V8h-16v60zM128 8v60c0 4.412 3.59 8 8 8s8-3.588 8-8V8h-16zM104 8v60c0 4.412 3.59 8 8 8s8-3.588 8-8V8h-16z"/>
  <path fill="#00576F" d="M196 0H4C1.79 0 0 1.791 0 4v64c0 8.822 7.176 16 16 16 4.802 0 9.065-2.17 12-5.529C30.935 81.831 35.198 84 40 84s9.065-2.17 12-5.529C54.935 81.831 59.198 84 64 84s9.065-2.17 12-5.529C78.935 81.831 83.198 84 88 84s9.065-2.17 12-5.529c2.935 3.36 7.198 5.529 12 5.529s9.065-2.17 12-5.529c2.935 3.36 7.198 5.529 12 5.529s9.065-2.17 12-5.529c2.935 3.36 7.198 5.529 12 5.529s9.065-2.17 12-5.529c2.935 3.36 7.198 5.529 12 5.529 8.824 0 16-7.178 16-16V4c0-2.209-1.79-4-4-4zM16 76c-4.41 0-8-3.588-8-8V8h16v60c0 4.412-3.59 8-8 8zm24 0c-4.41 0-8-3.588-8-8V8h16v60c0 4.412-3.59 8-8 8zm24 0c-4.41 0-8-3.588-8-8V8h16v60c0 4.412-3.59 8-8 8zm24 0c-4.41 0-8-3.588-8-8V8h16v60c0 4.412-3.59 8-8 8zm24 0c-4.41 0-8-3.588-8-8V8h16v60c0 4.412-3.59 8-8 8zm24 0c-4.41 0-8-3.588-8-8V8h16v60c0 4.412-3.59 8-8 8zm24 0c-4.41 0-8-3.588-8-8V8h16v60c0 4.412-3.59 8-8 8zm32-8c0 4.412-3.59 8-8 8s-8-3.588-8-8V8h16v60zM188 88H12c-2.21 0-4 1.791-4 4v112c0 2.209 1.79 4 4 4h176c2.21 0 4-1.791 4-4V92c0-2.209-1.79-4-4-4zM36 200v-72h40v72H36zm148 0H84v-76c0-2.209-1.79-4-4-4H32c-2.21 0-4 1.791-4 4v76H16V96h168v104z"/>
  <path fill="#00576F" d="M96 184h72c2.21 0 4-1.791 4-4v-60c0-2.209-1.79-4-4-4H96c-2.21 0-4 1.791-4 4v60c0 2.209 1.79 4 4 4zm68-8h-28v-52h28v52zm-64-52h28v52h-28v-52zM56 160h16v8H56z"/>
</svg>
