<svg xmlns="http://www.w3.org/2000/svg" viewBox="0 0 228 228">
  <path fill="#FFF" d="M102.255 99.401l-2.854 2.854C97.301 104.963 96 108.316 96 112c0 8.822 7.178 16 16 16s16-7.178 16-16-7.178-16-16-16c-3.683 0-7.038 1.302-9.745 3.401z"/>
  <circle fill="#FFF" cx="112" cy="16" r="8"/>
  <circle fill="#FFF" cx="48" cy="48" r="4"/>
  <circle fill="#FFF" cx="180" cy="48" r="4"/>
  <circle fill="#FFF" cx="16" cy="112" r="8"/>
  <circle fill="#FFF" cx="212" cy="112" r="8"/>
  <circle fill="#FFF" cx="180" cy="180" r="4"/>
  <circle fill="#FFF" cx="48" cy="180" r="4"/>
  <circle fill="#FFF" cx="112" cy="212" r="8"/>
  <path fill="#00576F" d="M212 96c-7.433 0-13.643 5.12-15.432 12h-60.93a23.83 23.83 0 0 0-2.544-7.439l41.765-41.763C176.423 59.546 178.153 60 180 60c6.617 0 12-5.383 12-12s-5.383-12-12-12-12 5.383-12 12c0 1.847.454 3.577 1.202 5.142l-41.107 41.106A23.903 23.903 0 0 0 116 88.361v-56.93c6.881-1.788 12-7.997 12-15.431 0-8.822-7.178-16-16-16S96 7.178 96 16c0 7.434 5.119 13.643 12 15.432v56.93a23.846 23.846 0 0 0-9.884 4.097L58.798 53.142C59.546 51.577 60 49.847 60 48c0-6.617-5.383-12-12-12s-12 5.383-12 12 5.383 12 12 12c1.847 0 3.577-.454 5.141-1.202L92.46 98.115A23.843 23.843 0 0 0 88.36 108h-56.93C29.644 101.12 23.434 96 16 96c-8.822 0-16 7.178-16 16s7.178 16 16 16c7.433 0 13.643-5.12 15.432-12h56.93a23.9 23.9 0 0 0 5.887 12.096L53.14 169.202C51.577 168.454 49.847 168 48 168c-6.617 0-12 5.383-12 12s5.383 12 12 12 12-5.383 12-12c0-1.847-.454-3.577-1.202-5.142l41.764-41.763c2.28 1.24 4.79 2.096 7.438 2.544v60.93c-6.881 1.788-12 7.997-12 15.43 0 8.823 7.178 16 16 16s16-7.177 16-16c0-7.433-5.119-13.642-12-15.43v-60.93a23.846 23.846 0 0 0 9.884-4.098l43.318 43.317c-.748 1.565-1.202 3.295-1.202 5.142 0 6.617 5.383 12 12 12s12-5.383 12-12-5.383-12-12-12c-1.847 0-3.577.454-5.141 1.202l-43.319-43.317A23.843 23.843 0 0 0 135.64 116h60.929c1.79 6.88 7.999 12 15.432 12 8.822 0 16-7.178 16-16s-7.178-16-16-16zm-32-52c2.205 0 4 1.795 4 4s-1.795 4-4 4-4-1.795-4-4 1.795-4 4-4zm-52 68c0 8.822-7.178 16-16 16s-16-7.178-16-16c0-3.684 1.302-7.037 3.401-9.745l2.854-2.854C104.962 97.301 108.317 96 112 96c8.822 0 16 7.178 16 16zm-24-96c0-4.412 3.588-8 8-8s8 3.588 8 8-3.588 8-8 8-8-3.588-8-8zM44 48c0-2.205 1.795-4 4-4s4 1.795 4 4-1.795 4-4 4-4-1.795-4-4zm-28 72c-4.412 0-8-3.588-8-8s3.588-8 8-8 8 3.588 8 8-3.588 8-8 8zm32 64c-2.205 0-4-1.795-4-4s1.795-4 4-4 4 1.795 4 4-1.795 4-4 4zm72 28c0 4.412-3.588 8-8 8s-8-3.588-8-8 3.588-8 8-8 8 3.588 8 8zm64-32c0 2.205-1.795 4-4 4s-4-1.795-4-4 1.795-4 4-4 4 1.795 4 4zm28-60c-4.412 0-8-3.588-8-8s3.588-8 8-8 8 3.588 8 8-3.588 8-8 8z"/>
</svg>
