<svg xmlns="http://www.w3.org/2000/svg" viewBox="0 0 216 188">
  <path fill="#edf4f5" d="M82.066 180h51.868l-8.57-20H90.636z"/>
  <path fill="#FFF" d="M8 152h200v-24H8v24zm100-20c4.412 0 8 3.59 8 8s-3.588 8-8 8-8-3.59-8-8 3.588-8 8-8z"/>
  <path fill="#edf4f5" d="M203.973 8H12.027C9.807 8 8 9.777 8 11.965V120h200V11.965C208 9.777 206.193 8 203.973 8zM61.078 28.578l-32.25 32.25C28.047 61.61 27.023 62 26 62s-2.047-.39-2.828-1.172a3.998 3.998 0 0 1 0-5.656l32.25-32.25a3.999 3.999 0 1 1 5.656 5.656z"/>
  <path fill="#00576F" d="M203.973 0H12.027C5.395 0 0 5.367 0 11.965V160h81.935l-9.61 22.426A3.996 3.996 0 0 0 76 188h64a3.995 3.995 0 0 0 3.676-5.574L134.065 160H216V11.965C216 5.367 210.606 0 203.973 0zm-70.04 180H82.067l8.57-20h34.727l8.57 20zM208 152H8v-24h200v24zM8 120V11.965C8 9.777 9.807 8 12.027 8h191.946c2.22 0 4.027 1.777 4.027 3.965V120H8z"/>
  <path fill="#00576F" d="M108 148c4.412 0 8-3.59 8-8s-3.588-8-8-8-8 3.59-8 8 3.588 8 8 8zM55.422 22.922l-32.25 32.25A3.998 3.998 0 0 0 26 62c1.023 0 2.047-.39 2.828-1.172l32.25-32.25a3.999 3.999 0 1 0-5.656-5.656z"/>
</svg>
