<?xml version="1.0" encoding="utf-8"?>
<!-- Generator: Adobe Illustrator 19.2.0, SVG Export Plug-In . SVG Version: 6.00 Build 0)  -->
<svg version="1.1" id="monitor" xmlns="http://www.w3.org/2000/svg" xmlns:xlink="http://www.w3.org/1999/xlink" x="0px" y="0px"
	 viewBox="0 0 216 188" enable-background="new 0 0 216 188" xml:space="preserve">
<g>
	<polygon fill="#edf4f5" points="82.0664,180 133.9336,180 125.3633,160 90.6367,160 	"/>
	<path fill="#FFFFFF" d="M8,152h80h40h80v-24H8V152z M108,132c4.4121,0,8,3.5898,8,8s-3.5879,8-8,8s-8-3.5898-8-8
		S103.5879,132,108,132z"/>
	<path fill="#edf4f5" d="M203.9727,8H12.0273C9.8066,8,8,9.7773,8,11.9648V120h200V11.9648C208,9.7773,206.1934,8,203.9727,8z
		 M61.0781,28.5781l-32.25,32.25C28.0469,61.6094,27.0234,62,26,62s-2.0469-0.3906-2.8281-1.1719
		c-1.5625-1.5625-1.5625-4.0938,0-5.6562l32.25-32.25c1.5625-1.5625,4.0938-1.5625,5.6562,0S62.6406,27.0156,61.0781,28.5781z"/>
	<path fill="#00576F" d="M203.9727,0H12.0273C5.3945,0,0,5.3672,0,11.9648V120v8v32h81.9353l-9.6111,22.4258
		c-0.5312,1.2344-0.4043,2.6523,0.3359,3.7773C73.4004,187.3242,74.6562,188,76,188h64c1.3438,0,2.5996-0.6758,3.3398-1.7969
		c0.7402-1.125,0.8672-2.543,0.3359-3.7773L134.0647,160H216v-32v-8V11.9648C216,5.3672,210.6055,0,203.9727,0z M133.9336,180
		H82.0664l8.5703-20h34.7266L133.9336,180z M208,152h-80H88H8v-24h200V152z M8,120V11.9648C8,9.7773,9.8066,8,12.0273,8h191.9453
		C206.1934,8,208,9.7773,208,11.9648V120H8z"/>
	<path fill="#00576F" d="M108,148c4.4121,0,8-3.5898,8-8s-3.5879-8-8-8s-8,3.5898-8,8S103.5879,148,108,148z"/>
	<path fill="#00576F" d="M55.4219,22.9219l-32.25,32.25c-1.5625,1.5625-1.5625,4.0938,0,5.6562C23.9531,61.6094,24.9766,62,26,62
		s2.0469-0.3906,2.8281-1.1719l32.25-32.25c1.5625-1.5625,1.5625-4.0938,0-5.6562S56.9844,21.3594,55.4219,22.9219z"/>
</g>
</svg>
