<svg xmlns="http://www.w3.org/2000/svg" viewBox="0 0 210.757 196.581">
  <path fill="#edf4f5" d="M59.818 72.58H28.197l7.5 24h31.621zM99.818 72.58H68.197l7.5 24h31.621zM195.697 96.58h7.06v-24h-14.56z"/>
  <path fill="#FFF" d="M154.815 36.344l31.498-2.756-9.562-23.254-31.5 2.755z"/>
  <path fill="#edf4f5" d="M139.818 72.58h-31.621l7.5 24h31.621z"/>
  <path fill="#FFF" d="M114.968 39.83l31.497-2.755-9.563-23.255-31.497 2.756zM26.922 47.534L17.36 24.279l-9.028.79 2.093 23.908zM194.662 32.858l7.033-.615-2.094-23.909-14.5 1.27z"/>
  <path fill="#edf4f5" d="M192.77 104.58c-.004 0-.008.003-.013.003l-.012-.002H152.77l-.013.002-.012-.002H112.77l-.013.002-.012-.002H72.77l-.012.002-.013-.002H32.77l-.013.002-.012-.002H10.758v84h192v-84h-9.988zm-174.013 8h84v8h-84v-8zm0 12h84v8h-84v-8zm176 40h-24v16h-8v-16h-32v16h-8v-16h-32v16h-8v-16h-32v16h-8v-16h-24v-8h176v8zM19.818 72.58h-9.06v24h16.56z"/>
  <path fill="#FFF" d="M35.27 46.803l31.5-2.756-9.563-23.254-31.498 2.755z"/>
  <path fill="#edf4f5" d="M179.818 72.58h-31.621l7.5 24h31.621z"/>
  <path fill="#FFF" d="M75.12 43.317l31.498-2.756-9.562-23.255-31.5 2.756z"/>
  <path fill="#00576F" d="M206.757 64.58h-200c-2.21 0-4 1.792-4 4v124c0 2.21 1.79 4 4 4h200c2.211 0 4-1.79 4-4v-124c0-2.208-1.789-4-4-4zm-4 32h-7.06l-7.5-24h14.56v24zm-167.06 0l-7.5-24h31.621l7.5 24H35.697zm40 0l-7.5-24h31.621l7.5 24H75.697zm40 0l-7.5-24h31.621l7.5 24h-31.621zm40 0l-7.5-24h31.621l7.5 24h-31.621zm-144.94-24h9.061l7.5 24h-16.56v-24zm0 116v-84h21.988c.005 0 .008.003.013.003l.012-.002h39.975l.012.002.013-.002h39.975l.012.002.013-.002h39.975l.012.002.013-.002h39.975l.012.002.013-.002h9.987v84h-192zM4.218 56.376a3.992 3.992 0 0 0 2.918.92l199.239-17.432a3.999 3.999 0 0 0 3.636-4.332l-2.789-31.88a4.005 4.005 0 0 0-1.414-2.716 3.971 3.971 0 0 0-2.918-.92L3.652 17.448A3.999 3.999 0 0 0 .015 21.78l2.79 31.879a4.005 4.005 0 0 0 1.413 2.717zm52.99-35.583l9.562 23.254-31.499 2.756-9.562-23.255 31.498-2.755zm39.848-3.487l9.562 23.255-31.499 2.756-9.562-23.255 31.499-2.756zm39.847-3.486l9.562 23.255-31.497 2.756-9.563-23.255 31.498-2.756zm39.848-3.486l9.562 23.255-31.498 2.755-9.563-23.255 31.499-2.755zm24.944 21.909l-7.033.615L185.1 9.603l14.501-1.269 2.094 23.909zM17.36 24.279l9.562 23.255-16.497 1.443L8.332 25.07l9.028-.79z"/>
  <path fill="#00576F" d="M18.758 112.581h84v8h-84zM18.758 124.581h84v8h-84zM162.757 156.58h-144v8h24v16h8v-16h32v16h8v-16h32v16h8v-16h32v16h8v-16h24v-8h-24z"/>
</svg>
