<?xml version="1.0" encoding="utf-8"?>
<!-- Generator: Adobe Illustrator 19.2.0, SVG Export Plug-In . SVG Version: 6.00 Build 0)  -->
<svg version="1.1" id="moviecut" xmlns="http://www.w3.org/2000/svg" xmlns:xlink="http://www.w3.org/1999/xlink" x="0px" y="0px"
	 viewBox="0 0 210.7575 196.5806" enable-background="new 0 0 210.7575 196.5806" xml:space="preserve">
<g>
	<polygon fill="#edf4f5" points="59.8183,72.5806 28.197,72.5806 35.697,96.5806 67.3183,96.5806 	"/>
	<polygon fill="#edf4f5" points="99.8183,72.5806 68.197,72.5806 75.697,96.5806 107.3183,96.5806 	"/>
	<polygon fill="#edf4f5" points="195.697,96.5806 202.7575,96.5806 202.7575,72.5806 188.197,72.5806 	"/>
	<polygon fill="#FFFFFF" points="154.8146,36.3443 186.3129,33.5884 176.7509,10.3336 145.2519,13.0894 	"/>
	<polygon fill="#edf4f5" points="139.8183,72.5806 108.197,72.5806 115.697,96.5806 147.3183,96.5806 	"/>
	<polygon fill="#FFFFFF" points="114.9677,39.8306 146.4653,37.0748 136.9025,13.8199 105.405,16.5757 	"/>
	<polygon fill="#FFFFFF" points="26.9216,47.5337 17.3596,24.2789 8.3317,25.0689 10.4255,48.9771 	"/>
	<polygon fill="#FFFFFF" points="194.6623,32.858 201.695,32.2427 199.6013,8.3345 185.1003,9.6031 	"/>
	<path fill="#edf4f5" d="M192.7702,104.5806c-0.0042,0-0.0085,0.002-0.0127,0.002s-0.0081-0.002-0.0122-0.002h-39.9751
		c-0.0042,0-0.0085,0.002-0.0127,0.002s-0.0081-0.002-0.0122-0.002h-39.9751c-0.0042,0-0.0085,0.002-0.0127,0.002
		s-0.0081-0.002-0.0122-0.002H72.7702c-0.0042,0-0.0085,0.002-0.0127,0.002s-0.0081-0.002-0.0122-0.002H32.7702
		c-0.0042,0-0.0085,0.002-0.0127,0.002s-0.0081-0.002-0.0122-0.002H10.7575v84h192v-84H192.7702z M18.7575,112.5806h84v8h-84
		V112.5806z M18.7575,124.5806h84v8h-84V124.5806z M194.7575,164.5806h-24v16h-8v-16h-32v16h-8v-16h-32v16h-8v-16h-32v16h-8v-16h-24
		v-8h24h8h32h8h32h8h32h8h24V164.5806z"/>
	<polygon fill="#edf4f5" points="19.8183,72.5806 10.7575,72.5806 10.7575,96.5806 27.3183,96.5806 	"/>
	<polygon fill="#FFFFFF" points="35.2709,46.8033 66.77,44.0474 57.2072,20.7925 25.7087,23.5484 	"/>
	<polygon fill="#edf4f5" points="179.8183,72.5806 148.197,72.5806 155.697,96.5806 187.3183,96.5806 	"/>
	<polygon fill="#FFFFFF" points="75.1193,43.3169 106.6183,40.5611 97.0556,17.3062 65.5566,20.0621 	"/>
	<path fill="#00576F" d="M206.7575,64.5806h-200c-2.2109,0-4,1.791-4,4v32v92c0,2.209,1.7891,4,4,4h200c2.2109,0,4-1.791,4-4v-92
		v-32C210.7575,66.3716,208.9684,64.5806,206.7575,64.5806z M202.7575,96.5806h-7.0605l-7.5-24h14.5605V96.5806z M35.697,96.5806
		l-7.5-24h31.6213l7.5,24H35.697z M75.697,96.5806l-7.5-24h31.6213l7.5,24H75.697z M115.697,96.5806l-7.5-24h31.6213l7.5,24H115.697
		z M155.697,96.5806l-7.5-24h31.6213l7.5,24H155.697z M10.7575,72.5806h9.0608l7.5,24H10.7575V72.5806z M10.7575,188.5806v-84
		h21.9878c0.0042,0,0.0081,0.002,0.0122,0.002s0.0085-0.002,0.0127-0.002h39.9751c0.0042,0,0.0081,0.002,0.0122,0.002
		s0.0085-0.002,0.0127-0.002h39.9751c0.0042,0,0.0081,0.002,0.0122,0.002s0.0085-0.002,0.0127-0.002h39.9751
		c0.0042,0,0.0081,0.002,0.0122,0.002s0.0085-0.002,0.0127-0.002h39.9751c0.0042,0,0.0081,0.002,0.0122,0.002
		s0.0085-0.002,0.0127-0.002h9.9873v84H10.7575z"/>
	<path fill="#00576F" d="M4.2184,56.3755c0.7227,0.6074,1.6328,0.9355,2.5703,0.9355c0.1172,0,0.2305-0.0059,0.3477-0.0156
		l199.2383-17.4316c2.2031-0.1914,3.8281-2.1328,3.6367-4.332l-2.7891-31.8789c-0.0938-1.0586-0.6016-2.0352-1.4141-2.7168
		c-0.8125-0.6836-1.8594-1.0156-2.918-0.9199L3.652,17.4478c-2.2031,0.1914-3.8281,2.1328-3.6367,4.332l2.7891,31.8789
		C2.8981,54.7173,3.4059,55.6939,4.2184,56.3755z M57.2072,20.7925L66.77,44.0474l-31.499,2.7559l-9.5623-23.2549L57.2072,20.7925z
		 M97.0556,17.3062l9.5627,23.2549l-31.499,2.7559l-9.5627-23.2549L97.0556,17.3062z M136.9025,13.8199l9.5627,23.2549
		l-31.4976,2.7559l-9.5627-23.2549L136.9025,13.8199z M176.7509,10.3336l9.562,23.2549l-31.4983,2.7559l-9.5627-23.2549
		L176.7509,10.3336z M201.695,32.2427l-7.0327,0.6152l-9.562-23.2549l14.501-1.2686L201.695,32.2427z M17.3596,24.2789
		l9.562,23.2549l-16.4961,1.4434L8.3317,25.0689L17.3596,24.2789z"/>
	<rect x="18.7575" y="112.5806" fill="#00576F" width="84" height="8"/>
	<rect x="18.7575" y="124.5806" fill="#00576F" width="84" height="8"/>
	<polygon fill="#00576F" points="162.7575,156.5806 130.7575,156.5806 122.7575,156.5806 90.7575,156.5806 82.7575,156.5806
		50.7575,156.5806 42.7575,156.5806 18.7575,156.5806 18.7575,164.5806 42.7575,164.5806 42.7575,180.5806 50.7575,180.5806
		50.7575,164.5806 82.7575,164.5806 82.7575,180.5806 90.7575,180.5806 90.7575,164.5806 122.7575,164.5806 122.7575,180.5806
		130.7575,180.5806 130.7575,164.5806 162.7575,164.5806 162.7575,180.5806 170.7575,180.5806 170.7575,164.5806 194.7575,164.5806
		194.7575,156.5806 170.7575,156.5806 	"/>
</g>
</svg>
