<svg xmlns="http://www.w3.org/2000/svg" viewBox="0 0 204 216">
  <path fill="#edf4f5" d="M138.309 94.75a4.006 4.006 0 0 1 3.14-2.88c3.797-.692 6.551-4 6.551-7.87a8.012 8.012 0 0 0-5.91-7.727 4.003 4.003 0 0 1-2.895-3.136C135.656 53.935 120.852 40 104 40S72.344 53.935 68.805 73.137a4.003 4.003 0 0 1-2.895 3.136A8.012 8.012 0 0 0 60 84a7.986 7.986 0 0 0 6.55 7.87 4.006 4.006 0 0 1 3.141 2.88C74.47 112.246 88.258 124 104 124s29.531-11.754 34.309-29.25zM24 28c4.41 0 8-3.588 8-8s-3.59-8-8-8-8 3.588-8 8 3.59 8 8 8zM104 132c-20.707 0-37.79 15.816-39.8 36h79.6c-2.01-20.184-19.093-36-39.8-36zM16 132c-4.41 0-8 3.59-8 8s3.59 8 8 8 8-3.59 8-8-3.59-8-8-8zM188 24c4.41 0 8-3.588 8-8s-3.59-8-8-8-8 3.588-8 8 3.59 8 8 8zM184 192c-4.41 0-8 3.59-8 8s3.59 8 8 8 8-3.59 8-8-3.59-8-8-8z"/>
  <path fill="#00576F" d="M122.126 127.58c10.626-5.422 19.114-15.512 23.245-28.502A15.995 15.995 0 0 0 156 84c0-6.348-3.762-12.027-9.406-14.582C141.617 47.602 124.024 32 104 32S66.383 47.602 61.406 69.418C55.762 71.973 52 77.652 52 84a15.995 15.995 0 0 0 10.629 15.078c4.13 12.99 12.619 23.08 23.245 28.502C68.37 134.748 56 151.946 56 172c0 2.21 1.79 4 4 4h88c2.21 0 4-1.79 4-4 0-20.054-12.371-37.252-29.874-44.42zM69.691 94.75a4.006 4.006 0 0 0-3.14-2.88A7.986 7.986 0 0 1 60 84a8.012 8.012 0 0 1 5.91-7.727 4.003 4.003 0 0 0 2.895-3.136C72.344 53.935 87.148 40 104 40s31.656 13.935 35.195 33.137a4.003 4.003 0 0 0 2.895 3.136A8.012 8.012 0 0 1 148 84a7.986 7.986 0 0 1-6.55 7.87 4.006 4.006 0 0 0-3.141 2.88C133.53 112.246 119.742 124 104 124s-29.531-11.754-34.309-29.25zM64.2 168c2.012-20.184 19.094-36 39.801-36s37.79 15.816 39.8 36H64.2zM24 36c4.22 0 8.035-1.673 10.896-4.35l19.135 13.174a3.994 3.994 0 0 0 2.266.705 3.988 3.988 0 0 0 3.297-1.732 3.998 3.998 0 0 0-1.024-5.563L39.161 24.871C39.66 23.325 40 21.709 40 20c0-8.822-7.176-16-16-16S8 11.178 8 20s7.176 16 16 16zm0-24c4.41 0 8 3.588 8 8s-3.59 8-8 8-8-3.588-8-8 3.59-8 8-8z"/>
  <path fill="#00576F" d="M184 184c-.867 0-1.7.123-2.53.256l-31.208-61.795a4 4 0 1 0-7.14 3.61l31.02 61.422C170.43 190.426 168 194.913 168 200c0 8.824 7.176 16 16 16s16-7.176 16-16-7.176-16-16-16zm0 24c-4.41 0-8-3.59-8-8s3.59-8 8-8 8 3.59 8 8-3.59 8-8 8zM59.285 123.23a3.996 3.996 0 0 0 1.446-5.468 3.998 3.998 0 0 0-5.47-1.446l-25.843 15.026C26.565 126.936 21.63 124 16 124c-8.824 0-16 7.176-16 16s7.176 16 16 16 16-7.176 16-16c0-.293-.07-.566-.086-.855l27.371-15.915zM16 148c-4.41 0-8-3.59-8-8s3.59-8 8-8 8 3.59 8 8-3.59 8-8 8zM155.016 56.15c.976 0 1.949-.353 2.722-1.068l25.679-23.831c1.461.44 2.98.749 4.583.749 8.824 0 16-7.178 16-16s-7.176-16-16-16-16 7.178-16 16c0 4.218 1.672 8.032 4.349 10.894l-24.056 22.325a4.004 4.004 0 0 0-.21 5.652 3.99 3.99 0 0 0 2.933 1.28zM188 8c4.41 0 8 3.588 8 8s-3.59 8-8 8-8-3.588-8-8 3.59-8 8-8z"/>
</svg>
