<?xml version="1.0" encoding="utf-8"?>
<!-- Generator: Adobe Illustrator 19.2.0, SVG Export Plug-In . SVG Version: 6.00 Build 0)  -->
<svg version="1.1" id="networkconnection" xmlns="http://www.w3.org/2000/svg" xmlns:xlink="http://www.w3.org/1999/xlink" x="0px"
	 y="0px" viewBox="0 0 204 216" enable-background="new 0 0 204 216" xml:space="preserve">
<g>
	<path fill="#edf4f5" d="M138.3086,94.7501c0.4062-1.4845,1.6289-2.6036,3.1406-2.881C145.2461,91.1777,148,87.8691,148,84
		c0-3.6113-2.4297-6.7871-5.9102-7.7266c-1.4883-0.4004-2.6133-1.6211-2.8945-3.1367C135.6562,53.9355,120.8516,40,104,40
		S72.3438,53.9355,68.8047,73.1367c-0.2812,1.5156-1.4062,2.7363-2.8945,3.1367C62.4297,77.2129,60,80.3887,60,84
		c0,3.8691,2.7539,7.1777,6.5508,7.8691c1.5117,0.2773,2.7344,1.3965,3.1406,2.881C74.4688,112.2461,88.2578,124,104,124
		S133.5312,112.2461,138.3086,94.7501z"/>
	<path fill="#edf4f5" d="M24,28c4.4102,0,8-3.5879,8-8s-3.5898-8-8-8s-8,3.5879-8,8S19.5898,28,24,28z"/>
	<path fill="#edf4f5" d="M104,132c-20.707,0-37.7891,15.8164-39.8008,36h79.6016C141.7891,147.8164,124.707,132,104,132z"/>
	<path fill="#edf4f5" d="M16,132c-4.4102,0-8,3.5898-8,8s3.5898,8,8,8s8-3.5898,8-8S20.4102,132,16,132z"/>
	<path fill="#edf4f5" d="M188,24c4.4102,0,8-3.5879,8-8s-3.5898-8-8-8s-8,3.5879-8,8S183.5898,24,188,24z"/>
	<path fill="#edf4f5" d="M184,192c-4.4102,0-8,3.5898-8,8s3.5898,8,8,8s8-3.5898,8-8S188.4102,192,184,192z"/>
	<path fill="#00576F" d="M122.1262,127.5798c10.626-5.4219,19.114-15.5117,23.2449-28.5017C151.6562,96.8477,156,90.8633,156,84
		c0-6.3477-3.7617-12.0273-9.4062-14.582C141.6172,47.6016,124.0234,32,104,32S66.3828,47.6016,61.4062,69.418
		C55.7617,71.9727,52,77.6523,52,84c0,6.8633,4.3438,12.8477,10.6289,15.0781c4.1309,12.99,12.6189,23.0798,23.2449,28.5017
		C68.3711,134.7483,56,151.9458,56,172c0,2.2109,1.7891,4,4,4h88c2.2109,0,4-1.7891,4-4
		C152,151.9458,139.6289,134.7483,122.1262,127.5798z M69.6914,94.7501c-0.4062-1.4845-1.6289-2.6036-3.1406-2.881
		C62.7539,91.1777,60,87.8691,60,84c0-3.6113,2.4297-6.7871,5.9102-7.7266c1.4883-0.4004,2.6133-1.6211,2.8945-3.1367
		C72.3438,53.9355,87.1484,40,104,40s31.6562,13.9355,35.1953,33.1367c0.2812,1.5156,1.4062,2.7363,2.8945,3.1367
		C145.5703,77.2129,148,80.3887,148,84c0,3.8691-2.7539,7.1777-6.5508,7.8691c-1.5117,0.2773-2.7344,1.3965-3.1406,2.881
		C133.5312,112.2461,119.7422,124,104,124S74.4688,112.2461,69.6914,94.7501z M64.1992,168C66.2109,147.8164,83.293,132,104,132
		s37.7891,15.8164,39.8008,36H64.1992z"/>
	<path fill="#00576F" d="M24,36c4.2197,0,8.0347-1.6729,10.896-4.3506l19.1353,13.1748c0.6953,0.4766,1.4844,0.7051,2.2656,0.7051
		c1.2734,0,2.5234-0.6055,3.2969-1.7324c1.2539-1.8184,0.7969-4.3086-1.0234-5.5625L39.1611,24.8708
		C39.6597,23.3254,40,21.7092,40,20c0-8.8223-7.1758-16-16-16S8,11.1777,8,20S15.1758,36,24,36z M24,12c4.4102,0,8,3.5879,8,8
		s-3.5898,8-8,8s-8-3.5879-8-8S19.5898,12,24,12z"/>
	<path fill="#00576F" d="M184,184c-0.8665,0-1.7004,0.1228-2.5298,0.2559l-31.2085-61.7949
		c-0.9961-1.9688-3.4023-2.7656-5.375-1.7656c-1.9688,0.9961-2.7617,3.4023-1.7656,5.375l31.0208,61.4231
		C170.4304,190.4258,168,194.9124,168,200c0,8.8242,7.1758,16,16,16s16-7.1758,16-16S192.8242,184,184,184z M184,208
		c-4.4102,0-8-3.5898-8-8s3.5898-8,8-8s8,3.5898,8,8S188.4102,208,184,208z"/>
	<path fill="#00576F" d="M59.2852,123.2305c1.9102-1.1094,2.5586-3.5586,1.4453-5.4688c-1.1133-1.9141-3.5625-2.5547-5.4688-1.4453
		L29.418,131.3425C26.5654,126.9363,21.6299,124,16,124c-8.8242,0-16,7.1758-16,16s7.1758,16,16,16s16-7.1758,16-16
		c0-0.2927-0.0708-0.5659-0.0864-0.855L59.2852,123.2305z M16,148c-4.4102,0-8-3.5898-8-8s3.5898-8,8-8s8,3.5898,8,8
		S20.4102,148,16,148z"/>
	<path fill="#00576F" d="M155.0156,56.1504c0.9766,0,1.9492-0.3535,2.7227-1.0684l25.6785-23.8313
		C184.8784,31.6917,186.3965,32,188,32c8.8242,0,16-7.1777,16-16s-7.1758-16-16-16s-16,7.1777-16,16
		c0,4.218,1.6721,8.0322,4.3486,10.8936L152.293,49.2188c-1.6172,1.502-1.7109,4.0332-0.2109,5.6523
		C152.8711,55.7207,153.9414,56.1504,155.0156,56.1504z M188,8c4.4102,0,8,3.5879,8,8s-3.5898,8-8,8s-8-3.5879-8-8S183.5898,8,188,8
		z"/>
</g>
</svg>
