<svg xmlns="http://www.w3.org/2000/svg" viewBox="0 0 216 192">
  <path fill="#edf4f5" d="M32 124h20v40H32zM102.639 21.895c.076.03.157.02.232.054.554.254.999.631 1.367 1.067 1.127.607 2.395.984 3.762.984 4.41 0 8-3.59 8-8s-3.59-8-8-8-8 3.59-8 8c0 2.341 1.03 4.43 2.639 5.895zM76 124h20v16H76z"/>
  <path fill="#edf4f5" d="M203.973 104H12.027C9.805 104 8 105.777 8 107.965v72.07C8 182.223 9.805 184 12.027 184h191.946c2.222 0 4.027-1.777 4.027-3.965v-72.07c0-2.188-1.805-3.965-4.027-3.965zM60 168c0 2.21-1.79 4-4 4H28c-2.21 0-4-1.79-4-4v-48c0-2.21 1.79-4 4-4h28c2.21 0 4 1.79 4 4v48zm44-24c0 2.21-1.79 4-4 4H76v20c0 2.21-1.79 4-4 4s-4-1.79-4-4v-48c0-2.21 1.79-4 4-4h28c2.21 0 4 1.79 4 4v24zm40-4c2.21 0 4 1.79 4 4s-1.79 4-4 4h-24v16h24c2.21 0 4 1.79 4 4s-1.79 4-4 4h-28c-2.21 0-4-1.79-4-4v-48c0-2.21 1.79-4 4-4h28c2.21 0 4 1.79 4 4s-1.79 4-4 4h-24v16h24zm46.172 31.785a3.962 3.962 0 0 1-1.98.528 3.994 3.994 0 0 1-3.477-2.016L164 134.008V168c0 2.21-1.79 4-4 4s-4-1.79-4-4v-48c0-1.218.573-2.27 1.43-3.004.284-.32.585-.629.976-.851 1.914-1.11 4.36-.43 5.457 1.488L184 152.909V120c0-2.21 1.79-4 4-4s4 1.79 4 4v47.353c.425 1.698-.236 3.524-1.828 4.432z"/>
  <path fill="#00576F" d="M203.973 96h-51.321l-32.134-70.155C122.665 23.121 124 19.73 124 16c0-8.824-7.176-16-16-16S92 7.176 92 16c0 4.168 1.64 7.935 4.259 10.785L64.555 96H12.027C5.395 96 0 101.367 0 107.965v72.07C0 186.633 5.394 192 12.027 192h191.946c6.632 0 12.027-5.367 12.027-11.965v-72.07C216 101.367 210.606 96 203.973 96zM108 8c4.41 0 8 3.59 8 8s-3.59 8-8 8c-1.367 0-2.635-.377-3.762-.984a3.94 3.94 0 0 0-1.367-1.067c-.075-.034-.156-.025-.232-.054C101.029 20.431 100 18.341 100 16c0-4.41 3.59-8 8-8zm-4.938 23.14c1.564.513 3.204.86 4.938.86 2.122 0 4.14-.435 5.995-1.188L143.854 96H73.353l29.709-64.86zM208 180.035c0 2.188-1.805 3.965-4.027 3.965H12.027C9.805 184 8 182.223 8 180.035v-72.07C8 105.777 9.805 104 12.027 104h191.946c2.222 0 4.027 1.777 4.027 3.965v72.07z"/>
  <path fill="#00576F" d="M56 116H28c-2.21 0-4 1.79-4 4v48c0 2.21 1.79 4 4 4h28c2.21 0 4-1.79 4-4v-48c0-2.21-1.79-4-4-4zm-4 48H32v-40h20v40zM192 120c0-2.21-1.79-4-4-4s-4 1.79-4 4v32.909l-20.137-35.276c-1.097-1.918-3.543-2.598-5.457-1.488-.39.222-.692.532-.975.85-.858.734-1.431 1.786-1.431 3.005v48c0 2.21 1.79 4 4 4s4-1.79 4-4v-33.992l20.715 36.289a3.994 3.994 0 0 0 3.476 2.016c.672 0 1.356-.168 1.98-.528 1.593-.908 2.255-2.734 1.829-4.431V120zM144 124c2.21 0 4-1.79 4-4s-1.79-4-4-4h-28c-2.21 0-4 1.79-4 4v48c0 2.21 1.79 4 4 4h28c2.21 0 4-1.79 4-4s-1.79-4-4-4h-24v-16h24c2.21 0 4-1.79 4-4s-1.79-4-4-4h-24v-16h24zM100 116H72c-2.21 0-4 1.79-4 4v48c0 2.21 1.79 4 4 4s4-1.79 4-4v-20h24c2.21 0 4-1.79 4-4v-24c0-2.21-1.79-4-4-4zm-24 8h20v16H76v-16z"/>
</svg>
