<?xml version="1.0" encoding="utf-8"?>
<!-- Generator: Adobe Illustrator 19.2.0, SVG Export Plug-In . SVG Version: 6.00 Build 0)  -->
<svg version="1.1" id="paws" xmlns="http://www.w3.org/2000/svg" xmlns:xlink="http://www.w3.org/1999/xlink" x="0px" y="0px"
	 viewBox="0 0 232 186.6035" enable-background="new 0 0 232 186.6035" xml:space="preserve">
<g>
	<path fill="#00576F" d="M212,166.6035v-66c0-40.8047-33.2051-74-74.0215-74h-24.2451c-0.2561-2.25-0.2312-6.354,1.8584-8.957
		c1.6191-2.0195,4.4473-3.043,8.4082-3.043h4v-8h-4c-6.5078,0-11.4355,2.0312-14.6484,6.0371
		c-1.3367,1.666-2.2109,3.5103-2.7781,5.3486C102.5774,10.7119,94.6997,2.999,80.6582,0.6582L76.7129,0l-1.3164,7.8906
		l3.9453,0.6582C95.3962,11.2241,100.147,21.7812,101.5,26.6035h-7.4785c-40.8164,0-74.0215,33.1953-74.0215,74v66H0v8h24h4h12v8
		c0,2.209,1.791,4,4,4h12h8h4h8h12c2.209,0,4-1.791,4-4v-8h48v8c0,2.209,1.791,4,4,4h12h8h4h8h12c2.209,0,4-1.791,4-4v-8h12h4h24v-8
		H212z"/>
	<path fill="#edf4f5" d="M84,178.6035h-8v-12h-8v12h-4v-12h-8v12h-8v-4v-4c0-4.4121,3.5996-8,8.0234-8h19.9531
		c4.4238,0,8.0234,3.5879,8.0234,8v4V178.6035z"/>
	<path fill="#edf4f5" d="M184,178.6035h-8v-12h-8v12h-4v-12h-8v12h-8v-4v-4c0-4.4121,3.5996-8,8.0234-8h19.9531
		c4.4238,0,8.0234,3.5879,8.0234,8v4V178.6035z"/>
	<path fill="#edf4f5" d="M191.4312,166.6035c-1.7915-6.8809-8.01-12-15.4546-12h-19.9531c-7.4446,0-13.6628,5.1191-15.4543,12
		H91.4312c-1.7915-6.8809-8.01-12-15.4546-12H56.0234c-7.4446,0-13.6628,5.1191-15.4543,12H28v-66c0-36.3926,29.6172-66,66.0215-66
		h43.957c36.4043,0,66.0215,29.6074,66.0215,66v66H191.4312z"/>
	<circle fill="#00576F" cx="80" cy="114.6035" r="8"/>
	<circle fill="#00576F" cx="152" cy="114.6035" r="8"/>
</g>
</svg>
