<svg xmlns="http://www.w3.org/2000/svg" viewBox="0 0 232 186.603">
  <path fill="#00576F" d="M212 166.603v-66c0-40.804-33.205-74-74.022-74h-24.245c-.256-2.25-.23-6.354 1.859-8.957 1.619-2.019 4.447-3.043 8.408-3.043h4v-8h-4c-6.508 0-11.435 2.032-14.648 6.038-1.337 1.666-2.211 3.51-2.778 5.348C102.577 10.712 94.7 3 80.658.66L76.713 0l-1.316 7.89 3.945.659c16.054 2.675 20.805 13.232 22.158 18.055h-7.479c-40.816 0-74.021 33.195-74.021 74v66H0v8h40v8a4 4 0 0 0 4 4h44a4 4 0 0 0 4-4v-8h48v8a4 4 0 0 0 4 4h44a4 4 0 0 0 4-4v-8h40v-8h-20z"/>
  <path fill="#edf4f5" d="M84 178.603h-8v-12h-8v12h-4v-12h-8v12h-8v-8c0-4.412 3.6-8 8.023-8h19.953c4.424 0 8.024 3.588 8.024 8v8zM184 178.603h-8v-12h-8v12h-4v-12h-8v12h-8v-8c0-4.412 3.6-8 8.023-8h19.954c4.423 0 8.023 3.588 8.023 8v8z"/>
  <path fill="#edf4f5" d="M191.431 166.603c-1.791-6.88-8.01-12-15.454-12h-19.954c-7.444 0-13.662 5.12-15.454 12H91.431c-1.791-6.88-8.01-12-15.454-12H56.023c-7.444 0-13.662 5.12-15.454 12H28v-66c0-36.392 29.617-66 66.022-66h43.956c36.405 0 66.022 29.608 66.022 66v66h-12.569z"/>
  <circle fill="#00576F" cx="80" cy="114.603" r="8"/>
  <circle fill="#00576F" cx="152" cy="114.603" r="8"/>
</svg>
