<svg xmlns="http://www.w3.org/2000/svg" viewBox="0 0 220 188">
  <path fill="#edf4f5" d="M59.523 74.027c34.301-4.12 50.252 1.813 68.71 8.676 8.96 3.332 18.228 6.781 30.591 9.383 9.063 1.91 20.218 3.391 33.176 4.424V32H28v48.812c10.6-3.226 21.182-5.541 31.523-6.785zM164 40c8.822 0 16 7.176 16 16s-7.178 16-16 16-16-7.176-16-16 7.178-16 16-16z"/>
  <path fill="#edf4f5" d="M157.176 99.914c-12.947-2.726-22.496-6.277-31.73-9.71-17.485-6.505-32.598-12.122-64.97-8.231-10.632 1.273-21.544 3.68-32.476 7.156V128h164v-23.457c-13.578-1.063-25.28-2.617-34.824-4.629zM164 64c4.412 0 8-3.59 8-8s-3.588-8-8-8-8 3.59-8 8 3.588 8 8 8z"/>
  <path fill="#FFF" d="M208.012 8H11.988C9.79 8 8 9.777 8 11.965v164.07C8 178.223 9.79 180 11.988 180h196.024c2.199 0 3.988-1.777 3.988-3.965V11.965C212 9.777 210.21 8 208.012 8zM200 100.828V132c0 2.21-1.791 4-4 4H24c-2.209 0-4-1.79-4-4V28c0-2.21 1.791-4 4-4h172c2.209 0 4 1.79 4 4v72.828z"/>
  <path fill="#00576F" d="M208.012 0H11.988C5.377 0 0 5.367 0 11.965v164.07C0 182.633 5.377 188 11.988 188h196.024c6.611 0 11.988-5.367 11.988-11.965V11.965C220 5.367 214.623 0 208.012 0zM212 176.035c0 2.188-1.79 3.965-3.988 3.965H11.988C9.79 180 8 178.223 8 176.035V11.965C8 9.777 9.79 8 11.988 8h196.024C210.21 8 212 9.777 212 11.965v164.07z"/>
  <path fill="#00576F" d="M196 24H24c-2.209 0-4 1.79-4 4v104c0 2.21 1.791 4 4 4h172c2.209 0 4-1.79 4-4V28c0-2.21-1.791-4-4-4zm-4 8v64.51c-12.958-1.032-24.113-2.515-33.176-4.424-12.363-2.602-21.63-6.05-30.592-9.383-18.457-6.863-34.408-12.797-68.709-8.676C49.182 75.27 38.601 77.587 28 80.812V32h164zm0 96H28V89.129c10.932-3.477 21.844-5.883 32.477-7.156 32.37-3.89 47.484 1.726 64.968 8.23 9.235 3.434 18.784 6.985 31.73 9.711 9.546 2.012 21.247 3.567 34.825 4.629V128z"/>
  <path fill="#00576F" d="M164 72c8.822 0 16-7.176 16-16s-7.178-16-16-16-16 7.176-16 16 7.178 16 16 16zm0-24c4.412 0 8 3.59 8 8s-3.588 8-8 8-8-3.59-8-8 3.588-8 8-8z"/>
</svg>
