<?xml version="1.0" encoding="utf-8"?>
<!-- Generator: Adobe Illustrator 19.2.0, SVG Export Plug-In . SVG Version: 6.00 Build 0)  -->
<svg version="1.1" id="spaceship" xmlns="http://www.w3.org/2000/svg" xmlns:xlink="http://www.w3.org/1999/xlink" x="0px" y="0px"
	 viewBox="0 0 213.5673 202.5056" enable-background="new 0 0 213.5673 202.5056" xml:space="preserve">
<g>
	<path fill="#edf4f5" d="M59.5703,135.9919c-4.8086,0-9.3281,1.8711-12.7266,5.2715c-4.918,4.916-10.4688,24.5879-13.625,39.082
		c14.4961-3.1582,34.168-8.7129,39.082-13.625c7.0156-7.0176,7.0156-18.4395,0-25.457
		C68.8984,137.863,64.3789,135.9919,59.5703,135.9919z"/>
	<path fill="#FFFFFF" d="M164.332,35.0915c-1.8906,1.8887-2.9297,4.4004-2.9297,7.0703c0,2.6719,1.0391,5.1816,2.9297,7.0723
		c3.7852,3.7812,10.3711,3.7773,14.1406,0c1.8906-1.8906,2.9297-4.4004,2.9297-7.0723c0-2.6699-1.0391-5.1816-2.9297-7.0703
		C174.6953,31.3161,168.1172,31.3122,164.332,35.0915z"/>
	<path fill="#FFFFFF" d="M131.8047,63.7693c-4.6094,0-9.2188,1.7539-12.7266,5.2617c-3.4024,3.4004-5.2734,7.9199-5.2734,12.7285
		s1.8711,9.3281,5.2734,12.7285c3.3984,3.4004,7.918,5.2715,12.7266,5.2715s9.3281-1.8711,12.7305-5.2715
		c7.0156-7.0176,7.0156-18.4395,0-25.457C141.0234,65.5232,136.4141,63.7693,131.8047,63.7693z"/>
	<path fill="#edf4f5" d="M203.4102,10.154c-33.8008-6.9883-68.3359,3.2852-92.8203,27.7676
		C98.3672,50.1462,89.4062,65.3318,84.6758,81.8318c-0.5664,1.9824-2.5703,3.207-4.5703,2.832
		c-2.1836-0.4043-4.418-0.6289-6.6484-0.666c-9.875-0.1914-19.3867,3.3008-26.7188,9.5938c0.668-0.0391,1.3398-0.0645,2.0078-0.0762
		c18.9648-0.2422,35.9883,10.2988,44.1094,27.1953c16.8984,8.1191,27.5273,25.2676,27.1953,44.1113
		c-0.0117,0.6699-0.0351,1.3398-0.0742,2.0078c6.2891-7.334,9.7656-16.7695,9.5938-26.7207
		c-0.0391-2.2324-0.2617-4.4668-0.668-6.6406c-0.375-2.0273,0.8477-4.0098,2.832-4.5781
		c16.5117-4.7344,31.6953-13.6973,43.9102-25.916C200.125,78.4939,210.4102,43.9646,203.4102,10.154z M150.1914,100.1443
		c-4.9102,4.9121-11.4414,7.6152-18.3867,7.6152s-13.4727-2.7031-18.3828-7.6152c-4.9102-4.9102-7.6172-11.4395-7.6172-18.3848
		s2.707-13.4746,7.6172-18.3848c10.1328-10.1426,26.6289-10.1348,36.7695,0C160.3281,73.5115,160.3281,90.0075,150.1914,100.1443z
		 M184.1289,54.8904c-3.3984,3.4004-7.918,5.2715-12.7266,5.2715c-4.8047,0-9.3242-1.8711-12.7266-5.2715
		c-3.4023-3.4004-5.2734-7.9199-5.2734-12.7285s1.8711-9.3281,5.2734-12.7266c3.3985-3.4004,7.9219-5.2734,12.7266-5.2734
		c4.8086,0,9.3281,1.873,12.7266,5.2734c3.4023,3.3984,5.2734,7.918,5.2734,12.7266S187.5312,51.49,184.1289,54.8904z"/>
	<path fill="#00576F" d="M210.668,5.8923c-0.3477-1.4863-1.5078-2.6465-2.9961-2.9922
		c-37.2812-8.6543-75.6992,2.3281-102.7383,29.3652C92.5859,44.6169,83.3203,59.7732,78.0078,76.2771
		c-1.4648-0.1602-2.9414-0.2539-4.4102-0.2793c-16.5469-0.25-31.6719,7.707-40.7969,21.3848
		c-0.9414,1.416-0.8906,3.2734,0.1367,4.6309c1.0234,1.3535,2.793,1.916,4.4141,1.3984c3.7109-1.1914,7.5898-1.8301,11.5352-1.8965
		c0.2383-0.0039,0.4766-0.0078,0.7109-0.0078c15.8477,0,30.1562,9.2949,36.582,23.834c0.4062,0.9102,1.1328,1.6387,2.043,2.041
		c14.7578,6.5254,24.1133,21.166,23.8281,37.3027c-0.0664,3.9258-0.7031,7.8066-1.8945,11.5352
		c-0.5195,1.6191,0.043,3.3887,1.4023,4.4121c0.7109,0.5371,1.5586,0.8066,2.4062,0.8066c0.7734,0,1.5469-0.2227,2.2188-0.6719
		c13.6758-9.125,21.6719-24.375,21.3867-40.7949c-0.0273-1.4746-0.1172-2.9492-0.2773-4.4121
		c16.5117-5.3203,31.668-14.584,44.0078-26.9297C208.3398,81.5935,219.3203,43.1853,210.668,5.8923z M131.7344,128.8904
		c-1.9844,0.5684-3.207,2.5508-2.832,4.5781c0.4062,2.1738,0.6289,4.4082,0.668,6.6406c0.1719,9.9512-3.3047,19.3867-9.5938,26.7207
		c0.0391-0.668,0.0625-1.3379,0.0742-2.0078c0.3321-18.8438-10.2969-35.9922-27.1953-44.1113
		c-8.1211-16.8965-25.1445-27.4375-44.1094-27.1953c-0.668,0.0117-1.3398,0.0371-2.0078,0.0762
		c7.332-6.293,16.8438-9.7852,26.7188-9.5938c2.2305,0.0371,4.4648,0.2617,6.6484,0.666c2,0.375,4.0039-0.8496,4.5703-2.832
		c4.7305-16.5,13.6914-31.6855,25.9141-43.9102c24.4844-24.4824,59.0195-34.7559,92.8203-27.7676
		c7,33.8105-3.2852,68.3398-27.7656,92.8203C163.4297,115.1931,148.2461,124.156,131.7344,128.8904z"/>
	<path fill="#00576F" d="M171.4023,24.1618c-4.8047,0-9.3281,1.873-12.7266,5.2734c-3.4023,3.3984-5.2734,7.918-5.2734,12.7266
		s1.8711,9.3281,5.2734,12.7285c3.4024,3.4004,7.9219,5.2715,12.7266,5.2715c4.8086,0,9.3281-1.8711,12.7266-5.2715
		c3.4023-3.4004,5.2734-7.9199,5.2734-12.7285s-1.8711-9.3281-5.2734-12.7266C180.7305,26.0349,176.2109,24.1618,171.4023,24.1618z
		 M178.4727,49.2341c-3.7695,3.7773-10.3555,3.7812-14.1406,0c-1.8906-1.8906-2.9297-4.4004-2.9297-7.0723
		c0-2.6699,1.0391-5.1816,2.9297-7.0703c3.7852-3.7793,10.3633-3.7754,14.1406,0c1.8906,1.8887,2.9297,4.4004,2.9297,7.0703
		C181.4023,44.8337,180.3633,47.3435,178.4727,49.2341z"/>
	<path fill="#00576F" d="M113.4219,63.3747c-4.9102,4.9102-7.6172,11.4395-7.6172,18.3848s2.707,13.4746,7.6172,18.3848
		c4.9102,4.9121,11.4375,7.6152,18.3828,7.6152s13.4766-2.7031,18.3867-7.6152c10.1367-10.1367,10.1367-26.6328,0-36.7695
		C140.0508,53.24,123.5547,53.2322,113.4219,63.3747z M144.5352,94.488c-3.4023,3.4004-7.9219,5.2715-12.7305,5.2715
		s-9.3281-1.8711-12.7266-5.2715c-3.4024-3.4004-5.2734-7.9199-5.2734-12.7285s1.8711-9.3281,5.2734-12.7285
		c3.5078-3.5078,8.1172-5.2617,12.7266-5.2617s9.2188,1.7539,12.7305,5.2617C151.5508,76.0486,151.5508,87.4704,144.5352,94.488z"/>
	<path fill="#00576F" d="M59.5703,127.9919c-6.9453,0-13.4727,2.7051-18.3828,7.6152c-9.1993,9.1953-16.2578,45.0645-17.0352,49.125
		c-0.2461,1.3008,0.1641,2.6426,1.1016,3.5781c0.7578,0.7578,1.7773,1.1719,2.8281,1.1719c0.25,0,0.5-0.0234,0.75-0.0703
		c4.0586-0.7754,39.9258-7.8379,49.125-17.0352c10.1367-10.1367,10.1367-26.6328,0-36.7695
		C73.0469,130.6951,66.5156,127.9919,59.5703,127.9919z M72.3008,166.7204c-4.914,4.9121-24.5859,10.4668-39.082,13.625
		c3.1562-14.4941,8.707-34.166,13.625-39.082c3.3984-3.4004,7.918-5.2715,12.7266-5.2715s9.3281,1.8711,12.7305,5.2715
		C79.3164,148.281,79.3164,159.7029,72.3008,166.7204z"/>

		<rect x="-12.2595" y="171.8873" transform="matrix(0.2344 -0.9721 0.9721 0.2344 -164.2294 143.2469)" fill="#00576F" width="42.1753" height="8.0002"/>

		<rect x="52.0235" y="193.3341" transform="matrix(0.9955 -0.0952 0.0952 0.9955 -18.4975 7.0452)" fill="#00576F" width="25.0898" height="7.9992"/>
</g>
</svg>
