<svg xmlns="http://www.w3.org/2000/svg" viewBox="0 0 213.567 202.506">
  <path fill="#edf4f5" d="M59.57 135.992a17.873 17.873 0 0 0-12.726 5.271c-4.918 4.916-10.47 24.588-13.625 39.082 14.496-3.158 34.168-8.713 39.082-13.625 7.015-7.017 7.015-18.44 0-25.457a17.888 17.888 0 0 0-12.73-5.271z"/>
  <path fill="#FFF" d="M164.332 35.092a9.928 9.928 0 0 0-2.93 7.07 9.932 9.932 0 0 0 2.93 7.072c3.785 3.781 10.371 3.777 14.14 0a9.932 9.932 0 0 0 2.93-7.072c0-2.67-1.039-5.182-2.93-7.07-3.777-3.776-10.355-3.78-14.14 0zM131.805 63.77c-4.61 0-9.22 1.753-12.727 5.261-3.402 3.4-5.273 7.92-5.273 12.729s1.87 9.328 5.273 12.728c3.398 3.4 7.918 5.271 12.727 5.271s9.328-1.87 12.73-5.271c7.016-7.018 7.016-18.44 0-25.457a17.958 17.958 0 0 0-12.73-5.262z"/>
  <path fill="#edf4f5" d="M203.41 10.154c-33.8-6.988-68.336 3.285-92.82 27.768-12.223 12.224-21.184 27.41-25.914 43.91a4.01 4.01 0 0 1-4.57 2.832 40.286 40.286 0 0 0-6.649-.666 39.89 39.89 0 0 0-26.719 9.594c.668-.04 1.34-.065 2.008-.077 18.965-.242 35.988 10.3 44.11 27.196a47.91 47.91 0 0 1 27.195 44.111c-.012.67-.035 1.34-.074 2.008 6.289-7.334 9.765-16.77 9.593-26.72a40.067 40.067 0 0 0-.668-6.642 4.002 4.002 0 0 1 2.832-4.578c16.512-4.734 31.696-13.697 43.91-25.916 24.481-24.48 34.766-59.01 27.766-92.82zm-53.219 89.99c-4.91 4.912-11.441 7.615-18.386 7.615s-13.473-2.703-18.383-7.615c-4.91-4.91-7.617-11.44-7.617-18.385s2.707-13.474 7.617-18.384c10.133-10.143 26.629-10.135 36.77 0 10.136 10.136 10.136 26.632 0 36.77zM184.13 54.89a17.872 17.872 0 0 1-12.727 5.272 17.886 17.886 0 0 1-12.726-5.272c-3.403-3.4-5.274-7.92-5.274-12.728s1.871-9.328 5.274-12.727a17.881 17.881 0 0 1 12.726-5.273c4.809 0 9.328 1.873 12.727 5.273 3.402 3.399 5.273 7.918 5.273 12.727s-1.87 9.328-5.273 12.728z"/>
  <path fill="#00576F" d="M210.668 5.892a4.008 4.008 0 0 0-2.996-2.992c-37.281-8.654-75.7 2.328-102.738 29.365C92.586 44.617 83.32 59.773 78.008 76.277a48.32 48.32 0 0 0-4.41-.28c-16.547-.25-31.672 7.708-40.797 21.386a4.002 4.002 0 0 0 4.55 6.029 39.89 39.89 0 0 1 11.536-1.897 39.926 39.926 0 0 1 37.293 23.826 4.02 4.02 0 0 0 2.043 2.042 39.932 39.932 0 0 1 23.828 37.302 40.097 40.097 0 0 1-1.895 11.535 3.994 3.994 0 0 0 1.403 4.413c.71.537 1.558.806 2.406.806.773 0 1.547-.222 2.219-.672 13.675-9.125 21.671-24.375 21.386-40.795a48.906 48.906 0 0 0-.277-4.412c16.512-5.32 31.668-14.584 44.008-26.93 27.039-27.036 38.02-65.445 29.367-102.738zM131.734 128.89a4.002 4.002 0 0 0-2.832 4.579c.407 2.173.63 4.408.668 6.64.172 9.951-3.304 19.387-9.593 26.72.039-.667.062-1.337.074-2.007a47.91 47.91 0 0 0-27.195-44.111c-8.122-16.897-25.145-27.438-44.11-27.196-.668.012-1.34.037-2.008.077a39.89 39.89 0 0 1 26.72-9.594c2.23.037 4.464.261 6.647.666a4.01 4.01 0 0 0 4.57-2.832c4.731-16.5 13.692-31.686 25.915-43.91 24.484-24.483 59.02-34.756 92.82-27.768 7 33.81-3.285 68.34-27.765 92.82-12.215 12.22-27.399 21.182-43.91 25.916z"/>
  <path fill="#00576F" d="M171.402 24.162a17.881 17.881 0 0 0-12.726 5.273c-3.403 3.399-5.274 7.918-5.274 12.727s1.871 9.328 5.274 12.728a17.886 17.886 0 0 0 12.726 5.272c4.809 0 9.328-1.871 12.727-5.272 3.402-3.4 5.273-7.92 5.273-12.728s-1.87-9.328-5.273-12.727a17.875 17.875 0 0 0-12.727-5.273zm7.07 25.072c-3.769 3.777-10.355 3.781-14.14 0a9.932 9.932 0 0 1-2.93-7.072c0-2.67 1.04-5.182 2.93-7.07 3.785-3.78 10.363-3.776 14.14 0a9.928 9.928 0 0 1 2.93 7.07 9.933 9.933 0 0 1-2.93 7.072zM113.422 63.375c-4.91 4.91-7.617 11.44-7.617 18.384s2.707 13.475 7.617 18.385c4.91 4.912 11.437 7.615 18.383 7.615s13.476-2.703 18.386-7.615c10.137-10.136 10.137-26.633 0-36.77-10.14-10.134-26.636-10.142-36.77 0zm31.113 31.113c-3.402 3.4-7.922 5.271-12.73 5.271s-9.328-1.87-12.727-5.271c-3.402-3.4-5.273-7.92-5.273-12.729s1.87-9.328 5.273-12.728c3.508-3.508 8.117-5.262 12.727-5.262s9.218 1.754 12.73 5.262c7.016 7.018 7.016 18.44 0 25.457zM59.57 127.992c-6.945 0-13.472 2.705-18.382 7.615-9.2 9.195-16.258 45.065-17.036 49.125a4.004 4.004 0 0 0 4.68 4.68c4.059-.776 39.926-7.838 49.125-17.035 10.137-10.137 10.137-26.633 0-36.77-4.91-4.912-11.441-7.615-18.387-7.615zM72.3 166.72c-4.913 4.913-24.585 10.467-39.081 13.625 3.156-14.494 8.707-34.166 13.625-39.082 3.398-3.4 7.918-5.271 12.726-5.271s9.328 1.871 12.73 5.271c7.016 7.018 7.016 18.44 0 25.457zM-.012 195.454l9.886-40.998 7.777 1.875-9.886 40.998zM51.697 194.557l24.977-2.389.761 7.963-24.977 2.389z"/>
</svg>
