<svg xmlns="http://www.w3.org/2000/svg" viewBox="0 0 176 196">
  <path fill="#edf4f5" d="M56 138c0-3.309-2.697-6-6.012-6H14.012C10.697 132 8 134.691 8 138s2.697 6 6.012 6h35.976c3.315 0 6.012-2.691 6.012-6zM116 24h36v4h-36zM56 58c0-3.309-2.697-6-6.012-6H14.012C10.697 52 8 54.691 8 58s2.697 6 6.012 6h35.976C53.303 64 56 61.309 56 58zM56 98c0-3.309-2.697-6-6.012-6H14.012C10.697 92 8 94.691 8 98s2.697 6 6.012 6h35.976c3.315 0 6.012-2.691 6.012-6z"/>
  <path fill="#FFFFFF" d="M36 44h13.988C57.715 44 64 50.281 64 58s-6.285 14-14.012 14H36v12h13.988C57.715 84 64 90.281 64 98s-6.285 14-14.012 14H36v12h13.988C57.715 124 64 130.281 64 138s-6.285 14-14.012 14H36v36h132V8H36v36zm72-24c0-2.21 1.791-4 4-4h44c2.209 0 4 1.79 4 4v12c0 2.21-1.791 4-4 4h-44c-2.209 0-4-1.79-4-4V20zM72 44h84a4 4 0 1 1 0 8H72a4 4 0 1 1 0-8zm0 20h84a4 4 0 1 1 0 8H72a4 4 0 1 1 0-8zm0 20h84a4 4 0 1 1 0 8H72a4 4 0 1 1 0-8zm0 20h84a4 4 0 1 1 0 8H72a4 4 0 1 1 0-8zm0 20h84a4 4 0 1 1 0 8H72a4 4 0 1 1 0-8zm0 20h84a4 4 0 1 1 0 8H72a4 4 0 1 1 0-8zm0 20h84a4 4 0 1 1 0 8H72a4 4 0 1 1 0-8z"/>
  <path fill="#00576F" d="M172 0H32c-2.209 0-4 1.79-4 4v40H14.012C6.285 44 0 50.281 0 58s6.285 14 14.012 14H28v12H14.012C6.285 84 0 90.281 0 98s6.285 14 14.012 14H28v12H14.012C6.285 124 0 130.281 0 138s6.285 14 14.012 14H28v40c0 2.21 1.791 4 4 4h140c2.209 0 4-1.79 4-4V4c0-2.21-1.791-4-4-4zM8 58c0-3.309 2.697-6 6.012-6h35.976C53.303 52 56 54.691 56 58s-2.697 6-6.012 6H14.012C10.697 64 8 61.309 8 58zm0 40c0-3.309 2.697-6 6.012-6h35.976C53.303 92 56 94.691 56 98s-2.697 6-6.012 6H14.012C10.697 104 8 101.309 8 98zm0 40c0-3.309 2.697-6 6.012-6h35.976c3.315 0 6.012 2.691 6.012 6s-2.697 6-6.012 6H14.012C10.697 144 8 141.309 8 138zm160 50H36v-36h13.988C57.715 152 64 145.719 64 138s-6.285-14-14.012-14H36v-12h13.988C57.715 112 64 105.719 64 98s-6.285-14-14.012-14H36V72h13.988C57.715 72 64 65.719 64 58s-6.285-14-14.012-14H36V8h132v180z"/>
  <path fill="#00576F" d="M112 36h44c2.209 0 4-1.79 4-4V20c0-2.21-1.791-4-4-4h-44c-2.209 0-4 1.79-4 4v12c0 2.21 1.791 4 4 4zm4-12h36v4h-36v-4zM72 52h84a4 4 0 1 0 0-8H72a4 4 0 1 0 0 8zM72 72h84a4 4 0 1 0 0-8H72a4 4 0 1 0 0 8zM72 92h84a4 4 0 1 0 0-8H72a4 4 0 1 0 0 8zM72 112h84a4 4 0 1 0 0-8H72a4 4 0 1 0 0 8zM72 132h84a4 4 0 1 0 0-8H72a4 4 0 1 0 0 8zM72 152h84a4 4 0 1 0 0-8H72a4 4 0 1 0 0 8zM72 172h84a4 4 0 1 0 0-8H72a4 4 0 1 0 0 8z"/>
</svg>
