<svg viewBox="0 0 47 47" xmlns="http://www.w3.org/2000/svg"><g transform="translate(1 1)" fill="none" fill-rule="evenodd"><circle stroke="#FFF" opacity=".8" cx="22.5" cy="22.5" r="22.5"/><path d="M28.75 14.063H14.843c-.81 0-1.485.675-1.485 1.484v4.135h5.62c.843-.608 1.737-1.13 2.817-1.13 1.046 0 1.99.522 2.818 1.13h5.62v-4.134c0-.81-.676-1.486-1.486-1.486zm.354 3.914c0 .32-.253.59-.574.59h-2.21c-.32 0-.59-.27-.59-.59v-2.21c0-.32.27-.574.59-.574h2.21c.32 0 .574.253.574.574v2.21zm-4.49 5.08c0-1.553-1.265-2.8-2.817-2.8-1.553 0-2.818 1.247-2.818 2.8 0 1.552 1.264 2.818 2.817 2.818 1.552 0 2.818-1.266 2.818-2.818zm1.486-1.114c.1.338.135.692.135 1.046 0 2.463-1.99 4.454-4.438 4.454-2.447 0-4.438-1.99-4.438-4.455 0-.355.032-.71.134-1.047H13.36v7.51c0 .81.674 1.485 1.484 1.485H28.75c.81 0 1.484-.675 1.484-1.485v-7.51H26.1z" fill="#FFF"/></g></svg>