<svg viewBox="0 0 47 47" xmlns="http://www.w3.org/2000/svg"><g transform="translate(1 1)" fill="none" fill-rule="evenodd"><circle stroke="#FFF" opacity=".8" cx="22.5" cy="22.5" r="22.5"/><path d="M27.195 18.854s0-.142 0 0c-.72-.707-1.584-.99-2.447-.848.863-.142 1.295-.424 1.44-.566 0-.14 0-.282-.145-.282-.432 0-.863.14-1.15.282.43-.282.575-.424.575-.565-.432 0-.864.283-1.44.707.144-.283.288-.424.144-.566-.288.142-.432.283-.576.566-.432.424-.72.706-.863 1.13-.576.99-1.008 1.838-1.296 2.827h-.144c-.288-.425-.72-.85-1.295-1.132-.576-.424-1.296-.706-2.16-1.13-.863-.424-1.727-.848-2.735-1.13 0 .988.432 1.836 1.44 2.402-.288 0-.72 0-1.008.14 0 .85.72 1.556 2.015 1.838-.43 0-.863.142-1.295.425.432.848 1.15 1.13 2.303 1.13-.144.142-.432.283-.432.283-.144.14-.288.424-.144.707.288.424.576.565 1.296.565-1.008.99-2.303 1.555-3.743 1.413-.863 0-1.87-.423-2.88-1.27 1.01 1.413 2.448 2.543 4.176 3.25 2.016.565 4.03.707 5.903.14 1.87-.564 3.598-1.695 4.894-3.25.576-.847 1.007-1.695 1.15-2.543 1.01 0 1.73-.283 2.16-.85-.287.143-1.007.143-2.015-.14 1.008-.14 1.728-.424 1.872-.99-.72.283-1.44.283-2.16 0-.144-.99-.575-1.837-1.44-2.543z" fill="#FFF"/></g></svg>