<svg xmlns="http://www.w3.org/2000/svg" viewBox="0 0 277 75">
  <g fill="#FFF">
    <path d="M28.885 71.184c-3.225 0-6.156-1.514-8.794-4.544-2.052-2.247-3.518-5.179-4.397-8.795L2.501 3.758H20.53l8.355 40.749h1.466l.293-1.026c.096-.586 2.931-13.826 8.501-39.723h18.762l-15.83 58.631c-.49 1.759-1.637 3.495-3.444 5.204-1.81 1.711-3.738 2.762-5.79 3.151-1.37.293-2.689.44-3.958.44zM79.761 3.758v67.426h-17.59V3.758h17.59zM133.276 48.464c0 6.743-.05 10.7-.146 11.873-.293 1.663-1.026 3.177-2.199 4.544-3.616 4.202-7.769 6.303-12.459 6.303H92.088c-.783 0-1.956-.88-3.518-2.639-1.37-1.466-2.199-3.027-2.492-4.69V10.793c1.764-3.518 3.822-5.863 6.174-7.036h26.32c5.392.783 9.704 3.177 12.94 7.183 1.37 1.663 1.958 6.401 1.763 14.218-1.003 4.301-3.005 7.819-6.01 10.554 3.322 3.517 5.326 7.768 6.011 12.752zm-28.289-16.563h2.723c4.439-.586 6.658-2.735 6.658-6.449 0-3.907-2.32-5.863-6.96-5.863h-2.42v12.312zm0 21.694h2.42c4.64 0 6.96-1.954 6.96-5.863 0-3.713-2.219-5.863-6.658-6.449h-2.723v12.312zM186.644 48.464c0 6.743-.05 10.7-.146 11.873-.293 1.663-1.026 3.177-2.199 4.544-3.616 4.202-7.769 6.303-12.459 6.303h-26.384c-.783 0-1.956-.88-3.518-2.639-1.37-1.466-2.199-3.027-2.492-4.69V10.793c1.764-3.518 3.822-5.863 6.174-7.036h26.32c5.392.783 9.704 3.177 12.94 7.183 1.37 1.663 1.958 6.401 1.763 14.218-1.003 4.301-3.005 7.819-6.01 10.554 3.322 3.517 5.326 7.768 6.011 12.752zm-28.29-16.563h2.723c4.439-.586 6.658-2.735 6.658-6.449 0-3.907-2.32-5.863-6.96-5.863h-2.42v12.312zm0 21.694h2.42c4.64 0 6.96-1.954 6.96-5.863 0-3.713-2.219-5.863-6.658-6.449h-2.723v12.312z"/>
  </g>
  <g fill="#FFF">
    <path d="M211.263 3.758v67.426h-17.589V3.758h17.589zM225.481 10.647c5.666-4.592 12.262-6.889 19.787-6.889 7.817 0 14.607 2.297 20.375 6.889 6.742 5.474 10.113 14.415 10.113 26.824 0 11.825-3.421 20.619-10.26 26.384-5.277 4.397-11.825 6.841-19.642 7.329-8.405-.586-15.148-3.027-20.228-7.329-6.939-5.765-10.407-14.559-10.407-26.384.002-12.409 3.421-21.35 10.262-26.824zm24.625 37.231c3.32-1.855 5.13-5.57 5.423-11.14-.392-8.208-3.616-12.507-9.674-12.899-3.518.197-6.061 1.223-7.622 3.078-1.759 2.151-2.639 5.522-2.639 10.114 0 2.835.536 5.181 1.612 7.035 1.759 3.225 4.592 5.082 8.502 5.57 1.27-.194 2.735-.781 4.398-1.758z"/>
  </g>
</svg>
