<?xml version="1.0" encoding="utf-8"?>
<!-- Generator: Adobe Illustrator 16.0.0, SVG Export Plug-In . SVG Version: 6.00 Build 0)  -->
<!DOCTYPE svg PUBLIC "-//W3C//DTD SVG 1.1//EN" "http://www.w3.org/Graphics/SVG/1.1/DTD/svg11.dtd">
<svg version="1.1" id="Layer_1" xmlns="http://www.w3.org/2000/svg" xmlns:xlink="http://www.w3.org/1999/xlink" x="0px" y="0px"
	 width="277px" height="75px" viewBox="0 0 277 75" enable-background="new 0 0 277 75" xml:space="preserve">
<g>
	<g>
		<g>
			<path fill="#FFFFFF" d="M28.885,71.184c-3.225,0-6.156-1.514-8.794-4.544c-2.052-2.247-3.518-5.179-4.397-8.795L2.501,3.758
				H20.53l8.355,40.749h1.466l0.293-1.026c0.096-0.586,2.931-13.826,8.501-39.723h18.762L42.077,62.389
				c-0.49,1.759-1.637,3.495-3.444,5.204c-1.81,1.711-3.738,2.762-5.79,3.151C31.473,71.037,30.154,71.184,28.885,71.184z"/>
			<path fill="#FFFFFF" d="M79.761,3.758v67.426H62.171V3.758H79.761z"/>
			<path fill="#FFFFFF" d="M133.276,48.464c0,6.743-0.05,10.7-0.146,11.873c-0.293,1.663-1.026,3.177-2.199,4.544
				c-3.616,4.202-7.769,6.303-12.459,6.303H92.088c-0.783,0-1.956-0.88-3.518-2.639c-1.37-1.466-2.199-3.027-2.492-4.69V10.793
				c1.764-3.518,3.822-5.863,6.174-7.036h26.32c5.392,0.783,9.704,3.177,12.94,7.183c1.37,1.663,1.958,6.401,1.763,14.218
				c-1.003,4.301-3.005,7.819-6.01,10.554C130.587,39.229,132.591,43.48,133.276,48.464z M104.987,31.901h2.723
				c4.439-0.586,6.658-2.735,6.658-6.449c0-3.907-2.32-5.863-6.96-5.863h-2.42V31.901z M104.987,53.595h2.42
				c4.64,0,6.96-1.954,6.96-5.863c0-3.713-2.219-5.863-6.658-6.449h-2.723V53.595z"/>
			<path fill="#FFFFFF" d="M186.644,48.464c0,6.743-0.05,10.7-0.146,11.873c-0.293,1.663-1.026,3.177-2.199,4.544
				c-3.616,4.202-7.769,6.303-12.459,6.303h-26.384c-0.783,0-1.956-0.88-3.518-2.639c-1.37-1.466-2.199-3.027-2.492-4.69V10.793
				c1.764-3.518,3.822-5.863,6.174-7.036h26.32c5.392,0.783,9.704,3.177,12.94,7.183c1.37,1.663,1.958,6.401,1.763,14.218
				c-1.003,4.301-3.005,7.819-6.01,10.554C183.955,39.229,185.959,43.48,186.644,48.464z M158.354,31.901h2.723
				c4.439-0.586,6.658-2.735,6.658-6.449c0-3.907-2.32-5.863-6.96-5.863h-2.42V31.901z M158.354,53.595h2.42
				c4.64,0,6.96-1.954,6.96-5.863c0-3.713-2.219-5.863-6.658-6.449h-2.723V53.595z"/>
		</g>
	</g>
	<g>
		<path fill="#FFFFFF" d="M211.263,3.758v67.426h-17.589V3.758H211.263z"/>
		<path fill="#FFFFFF" d="M225.481,10.647c5.666-4.592,12.262-6.889,19.787-6.889c7.817,0,14.607,2.297,20.375,6.889
			c6.742,5.474,10.113,14.415,10.113,26.824c0,11.825-3.421,20.619-10.26,26.384c-5.277,4.397-11.825,6.841-19.642,7.329
			c-8.405-0.586-15.148-3.027-20.228-7.329c-6.939-5.765-10.407-14.559-10.407-26.384C215.221,25.062,218.64,16.121,225.481,10.647z
			 M250.106,47.878c3.32-1.855,5.13-5.57,5.423-11.14c-0.392-8.208-3.616-12.507-9.674-12.899c-3.518,0.197-6.061,1.223-7.622,3.078
			c-1.759,2.151-2.639,5.522-2.639,10.114c0,2.835,0.536,5.181,1.612,7.035c1.759,3.225,4.592,5.082,8.502,5.57
			C246.978,49.442,248.443,48.855,250.106,47.878z"/>
	</g>
</g>
</svg>
