<svg width="166" height="166" xmlns="http://www.w3.org/2000/svg">
  <path d="M162.8 82.9c0 44.183-35.817 80-80 80s-80-35.817-80-80 35.817-80 80-80 80 35.817 80 80zm-21.496 1.63c0-2.006-.251-4.106-.658-6.268-.627-3.227-2.288-6.267-4.983-9.118-2.695-2.852-5.452-4.638-8.21-5.421L35.076 38.81v29.55c40.799 8.773 61.668 13.223 62.577 13.38l1.63.47v2.318L35.076 97.69v28.39l85.233-20.775c5.703-1.379 10.31-3.698 13.85-6.925 4.763-4.136 7.145-8.774 7.145-13.85z" fill-rule="nonzero" stroke="#1DCAD3" stroke-width="5" fill="none"/>
</svg>
