<svg xmlns="http://www.w3.org/2000/svg">
    <path d="M1091.163 634.64c0 168.796-136.165 305.626-304.128 305.626S482.907 803.437 482.907 634.64c0-168.795 136.165-305.63 304.128-305.63s304.128 136.835 304.128 305.63z" fill="#25CBD3" fill-rule="nonzero" opacity=".3"/>
    <ellipse fill="#EDF4F5" fill-rule="nonzero" opacity=".15" cx="185.403" cy="634.639" rx="184.408" ry="185.32"/>
    <path d="M1637.896 634.641c0 232.653-187.679 421.249-419.185 421.249-231.507 0-419.185-188.596-419.185-421.249 0-232.653 187.678-421.255 419.185-421.255 231.506 0 419.185 188.601 419.185 421.255z" fill="#25CBD3" fill-rule="nonzero" opacity=".4"/>

    <path d="M1878.154 1049.194c-21.999-280.204-402.397-623.784-794.058-742.873C692.436 187.233 97.926 370.447 5.039 440.582" fill="none"/>
    <path d="M1912.27 1026.702c-59.193-274.135-476.79-560.211-875.163-622.565C638.733 341.783 162.48 458.505 1.793 689.833" fill="none"/>
    <path d="M1909.389 910.407C1789.162 711.664 1369.06 507.525 972.033 500.29 575.005 493.053 67.477 764.695.006 843.73" fill="none" id="theMotionPath"/>
</svg>
