<svg version="1" xmlns="http://www.w3.org/2000/svg" viewBox="0 0 1548 381">
  <path d="M543.7 1c-6 1.5-11.3 4.7-14.6 8.7-6.1 7.4-6.1 7.2-6.1 68 0 30.4-.2 55.3-.4 55.3-.3 0-3.6-2.3-7.3-5.2-8.4-6.3-20.1-11.9-31.3-14.9-7.1-1.9-10.9-2.3-23-2.3-20.9.1-35.8 4-53.5 14.3-10.3 6-27.3 22.6-34.5 33.6-28.9 44.6-32.5 107.5-9 157 12.1 25.5 33.5 46.8 56.2 56 16.2 6.6 31.1 9.1 48.4 8.1 20.1-1.1 35.3-6.3 48.6-16.5l6.5-4.9 1.1 3.6c1.8 5.8 6.6 11.6 12.4 14.8 4.6 2.5 6.3 2.9 13.3 2.9 7.1 0 8.6-.4 13.5-3.1 6-3.3 11.2-9.9 13-16.2.6-2.5 1-60 1-170.4 0-164 0-166.8-2-172-2.3-6.1-8.6-12.9-14.2-15.2-4.8-2-13.3-2.8-18.1-1.6zm-60.6 161.9c8.8 2.8 19.4 10.4 25.3 18.1 22.5 30 24.6 87.3 4.4 121.4-13.6 22.9-39.1 32.6-65 24.6-16.7-5.2-30.1-19.9-37.3-41.1-9-26.4-8.3-61.9 1.9-86.9 8.2-20.3 22.3-33.3 40.6-37.5 8.4-1.9 21.4-1.3 30.1 1.4zM180.7 24.4c-9.5 3.4-15.5 9.7-21.2 22.1-1.8 3.8-18.9 49.2-38.1 100.7l-34.8 93.6-33.6.4c-36.3.4-38.1.7-45.5 6.3-5.6 4.4-7.8 10.1-7.4 19.9.4 7.1.8 8.8 3.2 12.3 1.6 2.3 5.1 5.3 8 6.9l5.2 2.9 25.8.3c14.1.2 25.7.4 25.7.6 0 .1-4.5 12.3-10 27.1-11.3 30.2-13 37.2-11.1 44.3 2.9 11.1 10.4 17.1 22.2 18 4.1.3 8.7 0 11.4-.8 5.5-1.5 12.4-7.4 16-13.6 2-3.5 28.5-73.2 28.5-75.1 0-.2 16.8-.3 37.3-.3 43.1 0 45-.3 52.2-7.4 5.3-5.3 6.8-9.8 6.3-18.6-.3-5.7-.9-7.7-3.4-11.2-3.4-4.8-7.9-8.2-13.3-9.9-2.1-.7-15.1-1.4-32.2-1.8l-28.6-.6 23.8-65c13.1-35.8 24.2-65.8 24.7-66.8.7-1.8 19.2 47.8 77.2 206.8 9.5 25.9 18.5 49.2 20.2 51.8 5.4 8.5 13.3 12.7 23.7 12.7 8.5 0 14.2-2.3 19.4-7.9 5.7-6.1 7.6-13 5.9-21.6C337 344.7 229 54.1 224.3 44.2c-3.8-8.2-12.2-16.7-19-19.2-6.4-2.4-18.7-2.7-24.6-.6zM716.5 111.1c-15.5 2.1-36.3 9.9-48.3 18.1-7.3 5-20.9 18.5-27.2 26.9-31.1 41.7-36.5 107.6-13 158.6 7.5 16.2 20.2 32.2 34.2 42.9 11.8 9.2 29.4 16.7 46.5 20 12.6 2.5 36.7 2.5 49.8 0 28.3-5.2 56.5-18.6 71.8-33.9 10-10 13.6-20 10.7-30.3-2.7-9.7-12-17.4-21-17.4-4.7 0-12.9 4-20.4 9.8-22.9 18-37.6 23.5-62.6 23.6-15.5.1-22.5-1.4-33.6-7-17.2-8.6-29.2-25.5-32.7-46l-1.3-7.9 79.5-.5c73.9-.5 79.9-.6 83.6-2.3 5.1-2.3 9.1-6.1 11.8-11.2 4.9-9.3 2.8-38.8-4.3-60.5-12.2-37.3-39.4-66.8-71.9-77.9-14.6-5-36.2-7.1-51.6-5zm33.7 51.8c20.7 6.6 36.4 28.1 40.3 55.3l.7 4.8H669.3l1-6.3c2.3-15.9 10.8-33.9 19.8-42.4 7.3-6.8 16.8-11.4 27.7-13.3 7.9-1.5 24.9-.4 32.4 1.9zM978.5 111.1c-45.1 5.7-79.2 34.8-94.4 80.4-6.3 19.1-7.5 27.6-7.5 53.5 0 20.7.2 24.7 2.2 34 6.5 29.6 17.6 51.5 35.2 69 10 10 19.9 16.9 31.9 22.1 44.6 19.2 106.6 9.1 119.7-19.5 3.6-7.9 3.1-17.2-1.2-24.4-4.2-6.9-11.6-10.5-20.4-10-5.3.3-8.5 1.3-17.6 5.6-16.8 8-29 9.8-43.9 6.7-31.1-6.6-50.8-38.9-50.8-83.5 0-23.3 5.1-42.9 15.2-58.2 11.3-17 25-25.1 45-26.4 11.3-.8 20.3 1.2 33.4 7.2 8.6 4 11.4 4.8 17.7 5.1 11.5.7 18.7-3.3 23.7-13 5.3-10.5 2.6-22.6-7-31.4-14.8-13.7-50-21.1-81.2-17.2zM1201 110.7c-40.4 4.3-70.5 24.7-89.4 60.4-22.2 42-22.6 103.3-.9 146.3 8.7 17.2 23.6 34.4 38.2 44.1 26.3 17.3 65.3 23 98.9 14.4 23.2-5.9 39.2-20.4 39.2-35.5 0-10.3-4.4-18-12.7-22-8.2-4-14.8-3.2-28.9 3.4-16.8 8-29 9.8-43.9 6.7-20.6-4.4-36.8-20.3-45-44.5-4.5-13.3-5.9-22.5-5.9-39 0-29.8 7.7-52.2 23.4-68.1 12.2-12.4 26.5-17.7 44-16.5 10.7.7 14.1 1.7 26.5 7.3 8.3 3.8 11.3 4.7 17.6 5.1 6.6.4 8.1.1 12.6-2.2 16-8 18-29.5 4-42.3-14.1-13-48.4-20.7-77.7-17.6zM1414.5 111.1c-48.2 6-85.4 44-97.5 99.5-7.6 34.9-3 74.1 12.3 104.9 9.4 19 27.5 39.4 43.5 48.9 31.1 18.5 72.2 20.6 104.8 5.2 12.6-6 20.4-11.5 30.4-21.5 14-14.1 24.1-31 31-52.1 6-18.4 7.5-28.5 7.5-51s-1.5-32.6-7.5-51c-18.9-58.1-67-90.1-124.5-82.9zm33.4 51.8c27 8.5 43.5 39.5 43.5 82.1 0 35.5-11 62.5-30.7 75.7-9.8 6.6-17.4 8.7-30.7 8.7-12.5 0-20.7-2.3-30-8.5-20.5-13.7-32.3-45.3-30.7-81.9 2-43.4 20.8-72.4 50.7-78 6.8-1.3 20.7-.4 27.9 1.9z"/>
</svg>
