<svg width="1002" height="165" viewBox="0 0 1002 165" xmlns="http://www.w3.org/2000/svg">
  <g fill="#000" fill-rule="nonzero">
    <path d="M72.3 1c-6.9 1-8.4 1.6-7.7 3.3.3.8-.5 3.9-1.6 7-2.4 6.3-9.6 14.5-14.8 16.6-1.8.7-3.2 1.8-3.2 2.3 0 .6.7.4 1.6-.3 1-.8 4-1.4 7.3-1.4 17.6.1 34.6 21.4 37.5 47 1.9 16.3-7.1 37.8-17.8 42.9-12 5.7-26-3.9-37-25.4-9.2-17.8-12.2-30.5-11.3-46.9.4-5.8.9-12 1.2-13.6.3-1.7.2-2.4-.1-1.8-.4.9-1.1.9-3-.3-3.1-2.1-4.2-1.2-10.4 8.3C4.2 52 0 66.6 0 83.2.1 128.5 36.9 165 82.6 165c47.1 0 85.2-40.7 82.1-87.5-2.6-38.4-30.4-69.4-68.2-76C87.2-.1 80.8-.2 72.3 1z"/>
    <path d="M52.9 41.7c-2 2.3-1.6 14.4.6 21.8 2.5 8.6 6.7 16.4 11.1 20.8 3.4 3.3 3.9 3.6 5.8 2.4 1.2-.7 3.1-3.3 4.4-5.8 2-3.7 2.3-5.5 1.9-11.4-.9-16.2-17.5-35.5-23.8-27.8zm176.6 6.5c-.3.7-7.5 19.7-16 42.2-8.5 22.5-15.5 41.2-15.5 41.7 0 1.5 17.6 1.1 18.7-.4.6-.6 2.3-4.9 3.8-9.5l2.8-8.2h32.3l3 9.2 3 9.3 9.7.3c5.3.1 9.7-.1 9.7-.5s-7-19.8-15.7-43.1L249.5 47h-9.8c-6.9 0-9.9.4-10.2 1.2zm15.4 35.7c2.8 7.9 5.1 14.6 5.1 14.8 0 .1-4.8.3-10.6.3-8.1 0-10.5-.3-10.2-1.3.3-.6 2.6-7.4 5.3-15 2.6-7.6 4.9-13.6 5.1-13.5.1.2 2.6 6.8 5.3 14.7zM285 90v43h17v-21.6l3.3-3.2 3.2-3.1 7.4 12.2c4.1 6.7 8.1 13 8.9 13.9 1.2 1.5 3.2 1.8 10.7 1.8 5 0 9.4-.3 9.8-.6.3-.3-5.2-9.3-12.3-19.9l-12.9-19.4 11.4-10.9c6.3-6 11.5-11.2 11.5-11.5 0-.4-4.4-.7-9.7-.7h-9.8l-10.7 11.2-10.7 11.3-.1-22.8V47h-17v43zm182-.6V132h23.3c13.3 0 24.8-.5 27-1.1 4.8-1.3 11.2-7 13.9-12.3 3.3-6.3 3.1-15.8-.4-21.7-2.9-4.9-5.9-7.4-10.2-8.5l-2.7-.6 4.2-3.6c9.9-8.5 10.5-22.8 1.3-31.4-5.1-4.8-7.4-5.2-32.6-5.6l-23.8-.4v42.6zM512.8 59c6.7 4.1 8 14.9 2.4 20.3-3.7 3.5-9.5 4.6-24.4 4.7H478V57h15.8c14 0 16.1.2 19 2zm1.9 36.3c5.2 2.7 7.3 6.3 7.3 12.1s-2.3 10.5-6.7 13.3c-2.3 1.5-5.4 1.9-20 2.1l-17.3.4V92.8l16.8.4c13.1.3 17.4.8 19.9 2.1zM544 53.5V60h10V47h-10v6.5zm89 36V132h11V96.7l.1-35.2 13.2 35 13.3 35 5 .3 5 .3 12.9-34.4 13-34.4.3 34.3.2 34.4h11V47h-15.5l-12.8 34.3c-7.1 18.9-13.2 34.9-13.6 35.5-.4.7-6.3-13.7-14-34.3L648.8 47H633v42.5zm196.2-36.3l.3 6.3h10v-12l-5.3-.3-5.3-.3.3 6.3zM368 69.9c-9.6 3.1-17.7 10.7-20.7 19.4-1.2 3.5-1.8 7.9-1.7 13.4 0 7.4.4 9 3.5 15 5.6 11 14.8 16.3 28.5 16.3 11.9 0 21.2-5.6 26.3-15.7 1.2-2.3 2.1-4.5 2.1-4.8 0-.3-3.4-.5-7.5-.5-6.4 0-7.6.3-8.5 2-1.5 2.8-8.2 6-12.5 6-7.8 0-13-4.2-14.2-11.4l-.6-3.6H407v-4.9c0-11.9-7-24.5-16.4-29.3-4.5-2.3-17.9-3.5-22.6-1.9zm15 13.6c3.1 1.6 4.7 3.9 6 8.6l.9 2.9h-27.1l.6-3.2c.7-3.5 3.9-7.5 7.1-8.8 3.2-1.4 9.4-1.1 12.5.5zm57.2-12.4c-2.4 1.2-5.5 3.7-7 5.6l-2.7 3.3-.5-4.7-.5-4.8h-16v62h17l.5-18.5c.4-16.1.8-18.9 2.5-21.9 2.7-4.6 7.7-7.1 14.2-7.1h5.3V69h-4.2c-2.4 0-6.2 1-8.6 2.1zm143-.4c-7 2.1-14.2 8.6-17.3 15.5-3.4 7.6-3.4 22.9 0 30.5 2.6 5.9 9.3 12.6 14.9 15.1 5.9 2.5 18.5 2.2 25-.7 10.8-4.9 16.7-15.2 16.7-29.6 0-10-2.3-16.8-7.5-22.8-7.2-8.1-20.5-11.5-31.8-8zm19.1 10.1c1.8 1 4.5 4 6.2 6.7 2.8 4.5 3 5.6 3 13.9 0 7.5-.4 9.8-2.3 13.3-4.5 8.6-14.9 12.3-23.4 8.5-7.9-3.5-11.8-10.8-11.8-22.1 0-14.4 8.5-23.8 20.3-22.7 2.7.3 6.3 1.4 8 2.4zm145-10.4c-2.9.7-6.9 2.5-8.9 4.1-3.7 2.9-7.3 9.3-7.4 13.2 0 2.1.5 2.3 4.9 2.3 4.7 0 5-.2 5.6-3 1.4-6.3 10.1-10.1 19.6-8.5 5.5 1 8.9 4.3 8.9 9 0 5.2-2.5 7.1-11.1 8.5-17.6 2.7-23.3 4.9-27.2 10.2-3.9 5.2-3.9 15.4 0 20.6 6.4 8.6 25.5 9.3 34.7 1.2 3.9-3.5 4.6-3.7 4.6-1.1 0 5 7.4 8.5 13.3 6.2 2.2-.9 2.7-1.7 2.7-4.6 0-3.1-.3-3.5-2.5-3.5-1.4 0-2.9-.8-3.5-1.9-.6-1.2-1-10-1-21.8 0-23.3-.6-25.3-8.2-29.1-5.8-2.9-17-3.7-24.5-1.8zm22.7 36.8c0 10.2-5 15.9-15 17.3-11.8 1.6-18.9-5-14.5-13.4 1.9-3.7 6.2-5.7 15.9-7.1 4.4-.7 8.9-1.6 10-2 3.5-1.4 3.6-1.2 3.6 5.2zm45.9-36.9c-5.2 1.9-7.9 4.1-11.1 8.8l-2.8 4.2V71h-10v61h10v-14.9c0-8.1.5-17.2 1-20.2 1.9-10 7.8-15.6 17.8-16.7l4.3-.5-.3-5.1c-.3-4.6-.5-5.1-2.8-5.3-1.4-.2-4.1.3-6.1 1zm59.4-.4c-4.3 1.1-8.2 3.6-11.5 7.5l-2.7 3.1-.1-4.8V71h-9v61h10v-19.8c0-21.4.8-25.1 6.1-29.8 5.5-5 16.5-5.5 20.7-1.1 3.7 4 4.2 7.2 4.2 29.3V132h10.2l-.4-24.8c-.2-18.6-.6-25.3-1.7-27.2-2-3.7-5.2-7-8.3-8.6-3.4-1.8-13.2-2.6-17.5-1.5zm56.9.6c-13.1 4.1-20.5 15.3-20.4 31 0 18.4 9.6 30.4 25.8 32.1 11.8 1.3 23.2-4.6 27.5-14.1 2.8-6 2.6-6.5-3.1-6.5-3.7 0-5 .4-5 1.5 0 2.8-6.1 8.4-10.3 9.6-11.9 3.2-22.4-3.6-24.4-15.7l-.6-3.4H968v-4.8c0-6-2.4-14.3-5.5-19.3-6.2-9.7-18.7-14-30.3-10.4zM945 79c2 .5 5.1 2.5 6.9 4.4 3.4 3.5 6.5 10.5 5.2 11.9-.4.4-8.4.6-17.7.5l-16.9-.3.3-3c.5-4.7 4.8-10.4 9.5-12.6 4.8-2.1 7.6-2.3 12.7-.9zm34-9c0 .5.9 1 2 1 1.8 0 2 .7 2 5.5 0 3 .5 5.5 1 5.5.6 0 1-2.5 1-5.5 0-4.8.2-5.5 2-5.5 1.1 0 2-.5 2-1 0-.6-2.2-1-5-1-2.7 0-5 .4-5 1zm11.2 5.7c.1 6.7.1 6.7.7 1.8l.6-5 1.8 4.7c1 2.7 2.2 4.8 2.6 4.8.5 0 1.7-2.1 2.7-4.8l1.9-4.7.6 5c.6 4.9.6 4.8.7-1.8.2-8.1-1.4-8.7-3.7-1.4-.8 2.6-1.7 4.7-2 4.7-.4 0-1.4-2.3-2.4-5-1-2.8-2.2-5-2.7-5-.6 0-.9 3-.8 6.7zM544 101.5V132h10V71h-10v30.5zm285 0V132h11V71h-11v30.5z"/>
  </g>
</svg>
