<svg version="1" xmlns="http://www.w3.org/2000/svg" viewBox="0 0 2000 260">
  <path d="M3 128.5V254h252V136H122V3H3v125.5z"/>
  <path d="M137 62v59h118V70l-33.2-.2-33.3-.3-.3-33.3L188 3h-51v59z"/>
  <path d="M205 28.5V54h50V3h-50v25.5zM996.5 66c-17.8 2.1-31.5 8.1-41.7 18.1-8.3 8.1-12.3 16.1-14 27.7-3.1 21.1 5.7 36.9 25.5 46.2 9.2 4.3 19 7.1 44.7 12.9 29.8 6.7 40.9 12.4 45.5 23.3 2 4.9 1.9 16.1-.1 22.1-3.1 9-13 16.5-26.4 19.8-7.2 1.8-28.8 1.8-36 0-20.2-5-34.2-19.2-35.7-36l-.6-6.1H935v5.2c0 11.8 5.7 26.3 14 36 4.8 5.5 15 12.6 23.6 16.1 14.6 6.1 39.8 8.4 57.4 5.3 37.4-6.8 58-32 52-63.7-3.2-17.2-16.7-29.9-39.4-37.3-4.3-1.4-16-4.4-26-6.7-32.6-7.4-41.4-10.9-48-19.2-3-3.7-3.1-4.3-3.1-13 0-10.4 1.7-14.7 7.7-20.3 12.3-11.6 41.9-13.9 59.1-4.7 10.2 5.5 15.5 12.8 18.3 25.3l1.6 7h22.8v-3.3c0-5.6-2.9-16.8-5.8-23.1-7.3-15.4-21.9-26.1-41-30-9.1-1.9-23.2-2.6-31.7-1.6zM428.2 72.7c-.5 1.6-15.8 41.9-34 89.8-18.1 47.8-33.2 88-33.6 89.2l-.7 2.3h40.9l4.2-11.7c2.3-6.5 5.5-15.7 7.2-20.6l3.1-8.7h68.5l5.6 16.3c3.1 8.9 6.2 18 7 20.2l1.3 4 21.3.3c16.8.2 21.1 0 20.8-1-.3-.7-15.7-42.1-34.4-92L471.5 70h-42.3l-1 2.7zm33.8 77.2c6 17.8 11 32.5 11 32.7 0 .2-10.6.4-23.6.4-18.5 0-23.5-.3-23.2-1.3.3-.6 5.6-15.7 11.9-33.4 6.3-17.7 11.7-31.9 12.1-31.5.4.4 5.7 15.3 11.8 33.1zM552 162v92h37v-45.8l7.2-6.7c5.2-4.8 7.4-6.3 8-5.3.4.7 8.5 13.9 18 29.3l17.3 28 22.3.3c12.2.1 22.2 0 22.2-.2 0-.3-12.4-19.2-27.6-42.2l-27.7-41.8 24.7-23.9c13.5-13.1 24.6-24.3 24.6-24.8s-9-.9-20.9-.9h-20.9l-13.9 14.2c-7.6 7.9-18.2 18.8-23.6 24.3l-9.7 10V70h-37v92zM1247 162v92h22V70h-22v92zM1517 83.5V97h21V70h-21v13.5zM1446 101v20h-23v19h23v46c0 28.9.4 47.8 1.1 50.9 1.5 7 4.6 11.2 10.4 14.1 4.6 2.3 6.3 2.5 21.3 2.9l16.2.3v-19l-11.1-.4c-10.7-.3-11.2-.4-13.5-3.1l-2.4-2.8V140h27v-19h-27V81h-22v20zM1948.7 107.7c-1.6 1.6-.4 2.3 3.8 2.3h4.5v12c0 11.3.1 12 2 12s2-.7 2-12v-12h4.5c3.3 0 4.5-.4 4.5-1.5 0-1.2-1.8-1.5-10.3-1.5-5.7 0-10.7.3-11 .7zM1973 120.5c0 11.3.2 13.5 1.5 13.5 1.2 0 1.5-1.9 1.5-10.7 0-5.8.3-10.4.6-10.1.3.3 2.2 5 4.3 10.4 2.2 6.1 4.3 10 5.3 10.2 1.1.2 2.6-2.5 5.6-10.5l4.1-10.8v10.7c.1 10.2.2 10.8 2.1 10.8 2 0 2-.5 1.8-13.3-.3-13.2-.3-13.2-2.7-13.2-2.1 0-2.9 1.2-6.6 11l-4.3 11-1.4-3.5c-.8-1.9-2.7-7-4.3-11.3-2.4-6.6-3.1-7.7-5.1-7.7h-2.4v13.5z"/>
  <path d="M731.2 118.9c-18.5 4.6-34.9 17.6-42.9 34.1-9.2 19-10.6 41-3.8 61 7.2 21.3 23.5 36.4 45 41.6 10.6 2.6 29.7 2.4 40-.5 17.7-5 29.2-14.4 36.9-30.3 2.5-5.2 4.6-9.9 4.6-10.6 0-.9-4.2-1.2-15.9-1.2h-15.8l-2.6 3.9c-2.8 4.2-8.8 8.8-14.7 11.2-2.2.9-7 1.4-13 1.4-19.7-.1-27.9-7.7-31.4-29.2l-.5-3.3 48.2-.2 48.2-.3-.2-11.5c-.3-23.2-9.7-43.5-25.6-55.6-11.6-8.8-23.3-12.4-39.7-12.3-5.6 0-12.5.8-16.8 1.8zm30.3 28.8c6.7 3.5 10.6 9.1 13.8 20l1.6 5.3h-59.6l.8-4.3c2.1-11.3 8-18.4 18.8-22.4 5.4-2 19.5-1.2 24.6 1.4zM900.7 118.1c-10.9 2.6-24.1 12.5-29.8 22.3l-2.9 5.1V120h-35v134h37v-32.8c0-18 .5-35.6 1.1-39.2 2.2-13.6 8.5-22.7 19.3-27.6 5.6-2.6 7-2.8 17.9-2.7l11.7.1v-16.4c0-15.1-.1-16.4-1.9-17.4-2.3-1.2-12.1-1.2-17.4.1zM1144 119.6c-16.8 4.4-31.2 16-38.8 31.1-5.7 11.6-7.7 20.9-7.7 36.8 0 15.8 2 25.2 7.6 36.5 7.2 14.4 18.1 23.8 33.9 29.4 8 2.8 9.4 3 23 3s15-.2 23-3c20.4-7.2 33.2-21.5 39.2-43.9 2.8-10.8 3.1-30.5.5-42-5.6-24.5-22.2-42.1-45.2-48-7.6-1.9-28-1.9-35.5.1zm30.1 19.4c11.8 3.7 22.1 14.3 26.2 27 5.8 17.7 3.5 40.3-5.4 54.1-8.4 13.2-26 20.4-41 16.9-17.4-4-29-17.1-32.4-36.7-1.8-9.8-1.8-15.8-.1-25.5 3.3-18.1 12.9-30.5 27.5-35.5 8.3-2.8 16.9-2.9 25.2-.3zM1605.7 119.6c-19.1 4.6-35.7 20-42.2 39.1-5 14.8-5.8 36.3-2 51.3 5.5 21.3 20 37.1 39.9 43.7 7.2 2.3 9.7 2.7 22.1 2.7 10.8.1 15.4-.3 20-1.8 28.7-8.7 44.7-32.8 44.7-67.1 0-19.2-4.2-33.6-13.5-46.2-11.8-15.9-28.4-23.4-51.6-23.2-6.4 0-14.2.7-17.4 1.5zm34.5 21.1c16.3 7.6 24.8 23.7 24.8 46.8 0 22-7.8 37.7-22.6 45.7-18.2 9.8-42.4 3.2-52.7-14.5-5.5-9.3-7.1-16.1-7.1-30.7-.1-11.6.2-14.5 2.2-20.5 3.1-9.2 6.3-14.3 12.3-20 8.2-7.7 16.2-10.5 28.4-10.1 6.6.2 9.3.8 14.7 3.3zM1756.8 119.9c-10.2 3.3-18.7 9.9-25 19.1-1.6 2.4-1.7 2.2-1.7-7.8l-.1-10.2h-21v133h22v-41.3c0-33.9.3-42.3 1.5-47.2 3.2-12.3 9.7-20.4 20.4-25.4 4.9-2.3 6.9-2.6 16.1-2.6 9.3 0 11.1.3 15.5 2.5 6 3.1 10.8 9.7 12.4 17 .7 3.3 1.1 21.8 1.1 51v46h22.2l-.4-50.2c-.4-43.5-.7-51.1-2.2-56.2-3.7-13.1-9.9-20.5-21.5-25.9-6.2-3-7.4-3.2-20.1-3.4-11.1-.3-14.5 0-19.2 1.6zM1873.2 120c-19.8 5.2-31.2 17.5-31.5 34.2-.2 10.4 1.7 16 7.4 22.3 6.2 6.7 16.3 11.8 30.1 15 5.6 1.4 14.4 3.5 19.3 4.6 22 5.3 30.5 11.4 30.5 22.1-.1 4.6-3.2 11.1-6.6 13.5-11.1 7.9-38.1 8.1-50.3.5-6-3.6-10.2-9.7-10.8-15.6l-.6-4.6H1839v3.2c.1 13.8 9.4 28.2 22.4 34.7 10.4 5.2 17.3 6.6 34.1 6.5 23.1 0 36.4-4.3 46.5-15 6.6-7 9.1-12.8 9.7-23 .7-10.8-1.4-17.7-7.4-24.4-8-8.9-14.8-11.8-45.1-18.9-26-6.1-34.2-11.1-34.2-20.9 0-6.8 2.8-10.7 9.8-14 5.2-2.4 6.8-2.7 17.7-2.7 10.5 0 12.7.3 17.2 2.4 6.6 2.9 11.9 8.7 13.5 14.6l1.2 4.5h10.8c12.5 0 12.1.4 9.2-10.5-5.4-20.9-22.1-30.6-52.1-30.4-8.3 0-14 .6-19.1 1.9zM1297.3 171.2c.4 53.6.6 56 5.6 65.6 6.8 13.3 20.5 20.2 40.1 20.2 18 0 32.5-7 41-19.7l3-4.6V254h21V121h-22v40.6c0 46.3-.4 50.1-7 60.2-7 10.9-16.1 15.4-31.5 15.6-9.3.1-10.4-.1-15.4-2.9-6.3-3.5-10.4-9.2-12-16.6-.7-3.1-1.1-22.3-1.1-50.9v-46h-22.1l.4 50.2zM1517 187.5V254h21V121h-21v66.5z"/>
</svg>
