<svg width="571" height="191" xmlns="http://www.w3.org/2000/svg">
  <g fill="none" fill-rule="evenodd">
    <rect fill="#DDDDDD" x="11" width="134" height="176" rx="13"/>
    <g fill="#000" fill-rule="nonzero">
      <path d="M341 68v33h15.9l.3-10.8.3-10.7 5.9 10.7 5.9 10.8h19.8l-8.6-12.5-8.6-12.5 7.6-9.9c4.1-5.5 7.5-10.3 7.5-10.6 0-.3-3.9-.4-8.7-.3l-8.8.3-6 8.9-6 8.8-.3-19.1L357 35h-16v33zM0 73.3v34.5l10.6.7c5.9.4 21.9.4 35.7 0l25-.8 24-8.9c13.3-4.9 24.8-9.3 25.6-9.8 1-.6-5.9-1-18.5-1-15.5 0-21.2.4-24.5 1.5-7.4 2.6-7.7 2.8-2.9 3.4l4.5.6-6.3 2.2-6.3 2.2.7-5.2c.4-2.9.7-5.3.8-5.4.1-.1 4.6-1.1 10.1-2.2 16.3-3.3 31.9-4.4 45.1-3.1 10.2 1 12 .9 15.9-.6 4.4-1.6 4.5-1.8 4.5-6 0-3.9-.3-4.4-2.7-5-7.8-2-47.7 1.5-70.6 6.2-7.1 1.4-8 1.4-9.6 0-.9-.8-2.7-1.9-3.9-2.3-2.3-.9-2.2-1 1.4-3.3 5.3-3.5 7.4-6.8 8-12.5.8-7.3-2.4-13.1-9.1-16.5-4.9-2.5-5.4-2.5-31.2-2.8L0 38.9v34.4zm38.6-17.8c3.9 5.3.1 9.5-8.8 9.5H24V52.8l6.6.4c5 .3 7 .9 8 2.3zm-3.3 25.6c5.2 1.4 6.8 4.9 4 8.7-1.8 2.4-2.8 2.7-8.7 3l-6.6.3V80h3.8c2 0 5.4.5 7.5 1.1zM186 70v31.2l17.8-.4c16.7-.3 18.1-.4 22.7-2.8 6.3-3.3 8.9-7.6 8.9-14.6 0-6.4-2.2-10-7.6-12.4-3.4-1.5-3.7-1.9-2.1-2.4 1.1-.3 3.2-2 4.8-3.6 2.2-2.3 2.9-4.1 3.2-8.2.5-7.1-1.8-11.5-7.7-14.8-4.2-2.3-5.6-2.5-22.2-2.8l-17.8-.4V70zm29.2-16.9c1.1.6 1.8 2.1 1.8 3.9 0 3.9-3.1 5.9-9.6 6.2l-4.9.3-.3-4.9c-.5-7.4 0-8 6-7.2 2.8.4 6 1.2 7 1.7zm-.8 22.9c3.2 1.2 4.9 4.5 4.1 7.7-.7 3.1-5.8 5.3-12 5.3H202V75h4.9c2.7 0 6.1.4 7.5 1zM251.8 55.6l-4.8 1.5v5.4c0 3 .1 5.5.3 5.5.1 0 2.4-.7 5.1-1.5 7.1-2.2 13.8-1.9 17 .6 4.7 3.7 3.5 4.7-6.6 5.1-14.6.6-21 5-21.1 14.6-.1 6.4 2.3 10.5 7.6 13.1 7.8 3.8 17.9 2.1 22.4-3.8 1.1-1.4 1.2-1.1 1.3 1.6v3.3h15.2l-.4-16.8c-.4-20.5-1.4-23.2-9.8-27.5-4.6-2.3-6.5-2.7-13.4-2.6-4.5 0-10.2.7-12.8 1.5zM272 83.1c0 3-5.3 7.9-8.5 7.9-4.2 0-6.5-1.7-6.5-5 0-3.8 2.1-4.9 9.3-5 5.1 0 5.7.2 5.7 2.1zM310.7 55.6c-6.1 1.9-12.8 8.4-14.5 14-4.2 14.2 3 27.9 16.5 31.3 5.3 1.4 13.7 1.4 18.6 0 3.6-1 3.7-1.1 3.7-5.7 0-6.3-.9-7.6-4.4-6.2-6.4 2.4-14.5.1-17-4.9-5.5-10.6 3-20.5 14.8-17.3 4.9 1.3 5.6.6 5.6-6 0-4.3-.2-4.7-3.1-5.7-4.4-1.5-14.4-1.3-20.2.5zM407 55.3c-5.4 1.8-12.4 9.4-13.8 14.9-3.2 12.5.8 22.8 11.1 28.4 4.2 2.2 6.7 2.9 13.2 3.1 4.6.2 10.1-.2 13-.9l5-1.3.3-5.8c.2-3.1-.1-5.7-.5-5.7s-2.6.7-4.8 1.5c-6.3 2.2-13.6 1.9-17.6-.8-1.9-1.2-3.5-3-3.7-4-.3-1.5 1.1-1.7 15.4-1.7h15.7l-.6-6.5c-.6-8.4-4-15-9.5-18.9-3.6-2.5-5.2-3-11.9-3.2-4.3-.2-9.4.2-11.3.9zm16.3 11.8c.9 1.2 1.7 3 1.7 4 0 1.7-.8 1.9-8 1.9-7.1 0-8-.2-8-1.8 0-6.3 10-9.2 14.3-4.1zM207 111.6c-11.2 3-18.8 9.7-21.5 18.8-2 6.5-1.9 17.1.1 22.9 2.1 6.3 8.4 13 15.2 16.4 5.4 2.7 6.3 2.8 20.2 2.8 8 0 16.2-.4 18.3-.8l3.7-.8V136h-26v11.9l4.8.3 4.7.3.3 5.7c.3 5.4.2 5.8-2.3 6.4-6.5 1.6-16.4-2.3-20.3-8-4.8-7-3.7-18.5 2.3-24.2 6-5.6 20.3-7.6 28.9-4 2.2.9 4.1 1.5 4.3 1.3.2-.2.6-3.4 1-6.9l.6-6.6-5.2-1.1c-7.2-1.5-22.5-1.3-29.1.5zM278 125.7c-4 1.3-6.5 3.1-8.2 5.8l-1.8 3v-8.6l-7.2.3-7.3.3-.3 22.7-.2 22.8h16.8l.4-13.5c.3-13.2.4-13.5 3-16.2 2.1-2.1 4.1-2.9 8-3.3l5.3-.5.3-5.9c.2-4.1-.1-6.2-1-6.7-1.4-.9-5.4-1-7.8-.2zM376.5 125.9c-4.4 1.1-7.1 2.8-9.4 5.7l-2.1 2.7V126h-15v65h16V166.7l2.3 2c3.7 3.4 6.3 4.3 12.7 4.3 7.1 0 10.5-1.5 14.8-6.5 9.2-10.4 7.4-30.2-3.4-37.7-4.2-3-10.9-4.2-15.9-2.9zm3.6 13.1c4.9 2.7 6.3 12.7 2.5 18.4-2.3 3.6-7.9 4.5-11.4 1.9-10.1-7.5-1.9-26 8.9-20.3zM433.7 126.2c-2 .6-5 2.2-6.6 3.8l-3 2.7-.3-3.1-.3-3.1-7.2-.3-7.3-.3V191h16v-23.9l2.6 2.4c3.1 2.9 7.6 3.9 14.8 3.3 10.2-.8 16.6-8.6 17.4-21.2.5-8.8-.8-14-5-19-5.4-6.6-12.4-8.7-21.1-6.4zm5.6 13.8c7.3 5.7 3.7 21-4.8 21-4 0-8.5-4.8-9.2-9.7-1.4-10.2 6.9-16.9 14-11.3zM481.8 126.3c-10.6 3-16.3 11.2-16.3 23.3.1 6.2.5 7.9 3.1 12 1.8 3 4.8 6 7.8 7.9 4.4 2.7 5.9 3 14.4 3.4 5.5.2 11.2-.2 13.8-.9l4.4-1.3v-5.8c0-3.3-.2-5.9-.4-5.9s-2 .7-3.9 1.5c-4.3 1.8-14.9 2-18 .3-1.2-.6-2.7-1.8-3.4-2.7-2.9-3.8-1.9-4.1 14.3-4.1h15.6l-.4-6.4c-.8-13.1-8.2-21.1-20.3-22.1-3.5-.3-7.9.1-10.7.8zm13.9 11.9c1.3 1.2 2.3 3.2 2.3 4.5 0 2.2-.3 2.3-8 2.3-7.4 0-8-.2-8-2 0-1.2 1.1-3.2 2.5-4.5 3.1-3.2 8-3.3 11.2-.3zM545.7 126.2c-2.1.5-5.1 2.3-6.7 4l-3 3V126h-15v46h15.8l.4-13.3c.2-10.6.7-13.8 2.1-16 3.5-5.4 11.3-4.7 13.4 1.3.7 1.9 1.2 9 1.2 15.7l.1 12.3h16.2l-.4-17.8c-.3-16.1-.5-18-2.5-21.2-1.2-1.9-3.5-4.3-5.2-5.3-3.8-2.2-11.4-2.9-16.4-1.5zM292.2 143.7c.3 19.9 1.1 22.6 7.8 27 6.6 4.5 20.1 2.5 24.7-3.6 1.1-1.4 1.2-1.1 1.3 1.6v3.3h15v-46h-16v11.7c0 15-1 18.9-5.5 21-1.8.9-4.3 1.3-5.6 1-4.4-1.1-5.3-4.1-5.7-19.5l-.4-14.2h-16l.4 17.7z"/>
    </g>
  </g>
</svg>
