<svg version="1" xmlns="http://www.w3.org/2000/svg" viewBox="0 0 2000 2000">
  <path d="M0 1000v1000h2000V0H0v1000zm931-489.7c58.9 8.9 107.3 32.8 147 72.6 61 61.1 86.5 147.9 68.5 233.1-14 65.9-57 126.7-115 162.1l-8.6 5.3 5.6 3c20 10.8 44.1 29 61 46 42.4 42.5 68.8 96.3 77.2 156.6 2.3 17.2 2.3 53.6-.1 71.5-4.7 34.6-12.5 61.2-26.6 90-41 83.6-120.5 134-221.5 140.5-10.2.6-108.5 1-270.2 1H394v-197h82V705h-82V507.9l262.8.4c243.1.3 263.6.4 274.2 2zm675 96.2V705h-82v590h82v197l-196.2-.2-196.3-.3-.3-98.3-.2-98.2h83V705h-83v-97.8c0-53.8.3-98.2.7-98.5.3-.4 88.8-.7 196.5-.7H1606v98.5z"/>
  <path d="M704 803.5V902h197V705H704v98.5zM704 1196.5v98.5h197v-197H704v98.5z"/>
</svg>
