<svg xmlns="http://www.w3.org/2000/svg" width="370.76" height="147.34">
  <path fill="#000" d="M1.404 122.199h368.762V1.077H1.404V122.2z"/>
  <path fill="#222" d="M1.404 146.424h368.762v-18.162H1.404v18.162z"/>
  <path fill="#FFF" d="M299.051 25.311c-23.201 0-40.869 17.653-40.869 40.861 0 23.238 17.668 40.893 40.869 40.893 8.194 0 15.748-2.216 22.034-6.115l-25.561-32.983v20.767h-14.358v-45.08h14.356V64.41l14.81-20.756h16.432l-15.997 21.672L331.514 91.5c5.243-6.848 8.412-15.556 8.412-25.326 0-23.208-17.677-40.862-40.875-40.862v-.001zM55.361 42.845c-13.635 0-23.685 10.185-23.685 23.327 0 13.163 10.051 23.359 23.685 23.359 8.8 0 16.043-4.37 20.173-11.12l-8.96-5.85c-2.325 3.634-6.042 6.29-10.97 6.29-7.23 0-12.23-5.734-12.23-12.679 0-6.915 5-12.667 12.23-12.667 4.928 0 8.426 2.516 10.872 6.409l9.178-6.025C71.526 46.996 64.16 42.846 55.36 42.845zm100.69 0c-13.646 0-23.685 10.185-23.685 23.327 0 13.163 10.039 23.359 23.685 23.359 8.815 0 16.04-4.37 20.174-11.12l-8.965-5.85c-2.335 3.634-6.053 6.29-10.966 6.29-7.23 0-12.23-5.734-12.23-12.679 0-6.915 5-12.667 12.23-12.667 4.912 0 8.412 2.516 10.868 6.409l9.168-6.025c-4.11-6.892-11.46-11.043-20.27-11.043l-.009-.001zm-77.167.809v45.08h11.6v-45.08h-11.6zm16.966 0v45.08h11.586v-18.9l12.07 18.9h13.684l-11.47-17.19c4.589-1.924 8.344-6.385 8.344-12.99 0-9.91-7.058-14.9-19.725-14.9h-14.49zm83.399 0v45.08h27.378v-10.27h-15.61V43.652l-11.769.002zm31.143 0v45.08h29.682v-10.27h-18.08V70.84h17.216v-9.475h-17.216v-7.479h18.03V43.654h-29.632zm-102.958 9.558h3.327c4.71 0 7.789 2.059 7.789 6.653 0 4.691-3.273 6.941-7.871 6.941h-3.247V53.212h.002zM1.402 122.195v6.059h368.762v-6.06H1.401z"/>
</svg>