<svg version="1" xmlns="http://www.w3.org/2000/svg" viewBox="0 0 400 52">
  <path d="M14.5 14l10 10h22.6l-7.8-8.6c-4.3-4.7-9-9.2-10.5-10C27 4.4 22.7 4 15.3 4H4.5l10 10zM72 26v20.2l10.4-.4c8.7-.2 10.8-.6 12.6-2.3 3.6-3.2 5-7.8 5-16.7 0-10.1-1.2-14.7-4.6-17.9-2.3-2.2-3.6-2.4-13-2.7L72 5.8V26zm17.7-10c1.6 3.1 1.7 15.6.2 19.8-1 2.9-3.2 4.2-7.1 4.2-1.6 0-1.8-1.3-1.8-13.6V12.9l3.7.3c2.8.2 4.1.9 5 2.8zM114.6 7.7C111.8 17.2 104 45 104 45.4c0 .3 2 .6 4.4.6 4.3 0 4.4 0 5.5-4.5l1.2-4.6 5.6.3 5.7.3 1.2 4c1 3.9 1.2 4 5.7 4.3 2.6.2 4.7 0 4.7-.3 0-.5-7.7-27.8-10.6-37.8C127 6.3 125.7 6 121 6s-6 .3-6.4 1.7zm9.4 22c0 .8-1.4 1.3-3.6 1.3-3.2 0-3.6-.2-3.1-2.3.3-1.2 1.1-4.9 1.8-8.1l1.3-6 1.8 7c1 3.8 1.8 7.5 1.8 8.1zM137 9.5c0 3.5 0 3.5 4.5 3.5h4.5v33h9V13h10V6h-28v3.5zM169.1 24.7c-2.9 10.3-5.5 19.4-5.8 20-.3.9.9 1.3 4.1 1.3h4.6l1.2-4.5 1.2-4.5h11.4l1.1 4.5C188 46 188 46 192.5 46c2.9 0 4.5-.4 4.5-1.3 0-.6-2.4-9.5-5.3-19.7l-5.2-18.5-6-.3-6-.3-5.4 18.8zm12.8-2.2c.7 2.7 1.4 5.8 1.7 6.7.5 1.5-.1 1.8-3.6 1.8-3.3 0-4.1-.3-3.7-1.5.4-.8 1.2-4.1 1.9-7.5 1.4-6.8 2-6.7 3.7.5zM203 26v20h9l.1-13.8.1-13.7 2.9 11.5c1.6 6.3 3.1 12.5 3.4 13.7.5 1.9 1.2 2.3 4.8 2.3h4.2l3.5-13.8 3.5-13.7.3 13.7.3 13.8h8.9V6h-13.9l-.9 3.2c-.5 1.8-2 7.8-3.3 13.2l-2.4 9.9-3-12.9-3-12.9-7.3-.3-7.2-.3V26zM254 26v20h23v-6h-14V28h13v-6h-13v-9h14V6h-23v20zM282 9.5c0 3.5 0 3.5 4.5 3.5h4.5v33h9V13h10V6h-28v3.5zM315 26v20h9V30h2.8c3.9 0 5.2 1.7 5.2 7 0 8 .7 9 5.6 9h4.3l-.6-7.3c-.6-7.4-2.3-11.7-4.7-11.7-.9 0-.3-1.1 1.5-2.9 2.4-2.4 2.9-3.8 2.9-7.6s-.5-5.2-2.9-7.6c-2.9-2.8-3.2-2.9-13-2.9H315v20zm16.8-9.2c.4 4.2-1.2 6.2-4.9 6.2-2.8 0-2.9-.2-2.9-5.1v-5l3.8.3c3.4.3 3.7.6 4 3.6zM350 26v20h9V6h-9v20zM370 15.4l5.1 9.5-5.1 10c-2.7 5.5-5 10.3-5 10.6 0 .3 1.9.5 4.3.5 4.3 0 4.3 0 7.2-6 1.6-3.3 3.2-6 3.5-6 .4 0 1.8 2.7 3.3 6l2.6 6h5.1c2.8 0 5-.3 4.8-.8-.2-.4-2.5-4.9-5.1-10l-4.8-9.4 5.1-9.9 5.1-9.9h-9.2l-2.9 6.2-2.8 6.3-2.9-6.2-2.8-6.2-5.3-.1h-5.3l5.1 9.4zM2 26.1v19.3l4.3-3.9C16.2 32.2 22 26.5 22 26c0-.4-4.5-4.8-10-9.9L2 6.8v19.3zM14.6 38L4.5 48h10.8c7.4 0 11.6-.4 13.5-1.4 1.5-.8 6.2-5.3 10.5-10l7.8-8.6H24.7L14.6 38z"/>
</svg>
