<svg xmlns="http://www.w3.org/2000/svg" xmlns:xlink="http://www.w3.org/1999/xlink" width="1000" height="360.947">
  <defs>
    <linearGradient x2="1" gradientUnits="userSpaceOnUse" gradientTransform="matrix(0 589.05865 589.05865 0 0 -7.956)" id="a">
      <stop offset="0" stop-color="#fff"/>
      <stop offset=".77" stop-opacity="0" stop-color="#fff"/>
      <stop offset=".77" stop-opacity="0" stop-color="#fff"/>
      <stop offset="1" stop-opacity="0" stop-color="#fff"/>
    </linearGradient>
    <linearGradient x2="1" gradientUnits="userSpaceOnUse" gradientTransform="matrix(0 -322.60196 322.60196 0 0 1034.646)" id="b">
      <stop offset="0" stop-color="#fff"/>
      <stop offset=".77" stop-opacity="0" stop-color="#fff"/>
      <stop offset=".77" stop-opacity="0" stop-color="#fff"/>
      <stop offset="1" stop-opacity="0" stop-color="#fff"/>
    </linearGradient>
    <clipPath id="c">
      <path d="M-66.197 953.237h923.04V30.197h-923.04v923.04z"/>
    </clipPath>
    <clipPath id="d">
      <path d="M-16.156 1146.2h730.08V416.117h-730.08V1146.2z"/>
    </clipPath>
    <clipPath id="e">
      <path d="M123.724 389.369h730.08v-400.32h-730.08v400.32z"/>
    </clipPath>
    <clipPath id="f">
      <path d="M-217.85 389.369h730.08v-400.32h-730.08v400.32z"/>
    </clipPath>
    <linearGradient x2="1" gradientUnits="userSpaceOnUse" gradientTransform="matrix(745.26242 98.11565 0 -758.17957 -33.341 759.15)" id="g">
      <stop offset="0" stop-color="#fff"/>
      <stop offset="1" stop-opacity="0" stop-color="#fff"/>
    </linearGradient>
    <clipPath id="h">
      <path d="M-29.338 1071.42h839.52V648.058h-839.52v423.362z"/>
    </clipPath>
    <clipPath id="i">
      <path d="M-14.268 1051.36h298.44V899.439h-298.44v151.921z"/>
    </clipPath>
    <clipPath id="j">
      <path d="M4.016 173.284h663.84V64.564H4.016v108.72z"/>
    </clipPath>
    <clipPath id="k">
      <path d="M3.484 773.229h706.68v-213.84H3.484v213.84z"/>
    </clipPath>
    <clipPath id="r">
      <path d="M645.281 46.094l-8.851-9.417c-5.354-5.354-6.278-12.183-6.278-14.84-.017-.2-.022-.412-.027-.632v-.394c.032-2.23.508-4.983.795-5.798l.645-2.04 18.673 18.977a12.402 12.402 0 0 1 3.59 9.986 12.469 12.469 0 0 1-3.598 7.613l-2.312 2.305-.975 1.022c.052-.101.962-3.601-1.662-6.782"/>
    </clipPath>
    <clipPath id="s">
      <path d="M.016-.521h1.116V.522H.016V-.521z"/>
    </clipPath>
    <linearGradient x2="1" gradientUnits="userSpaceOnUse" gradientTransform="matrix(25.09386 33.06006 33.06006 -25.09386 627.736 13.945)" id="t">
      <stop offset="0" stop-color="#000"/>
      <stop offset="1" stop-color="#000"/>
    </linearGradient>
    <clipPath id="u">
      <path d="M630.986 87.269c-.018-.089-1.473-5.516.45-12.271 1.55-5.448 5.968-10.451 5.968-10.451l18.44-18.507c3.114-3.117 2.231-7.052 2.178-7.155h.013l.814.905 2.371 2.33a12.453 12.453 0 0 1 3.586 7.603c.037.384.056.771.059 1.149v.102a12.396 12.396 0 0 1-3.649 8.74l-29.822 29.549-.408-1.994z"/>
    </clipPath>
    <clipPath id="v">
      <path d="M-.34-.77h1.577V.77H-.34V-.77z"/>
    </clipPath>
    <linearGradient x2="1" gradientUnits="userSpaceOnUse" gradientTransform="scale(-38.81345 38.81345) rotate(49 -9.924 -17.96)" id="w">
      <stop offset="0" stop-color="#000"/>
      <stop offset="1" stop-color="#000"/>
    </linearGradient>
    <clipPath id="A">
      <path d="M453.298 12.973h211.568v76.289H453.298V12.973z"/>
    </clipPath>
    <linearGradient x2="1" gradientUnits="userSpaceOnUse" gradientTransform="matrix(751.69324 0 0 -751.69324 -33.341 628.272)" id="l">
      <stop offset="0" stop-opacity="0" stop-color="#fff"/>
      <stop offset=".241" stop-color="#fff"/>
      <stop offset="1" stop-opacity="0" stop-color="#fff"/>
    </linearGradient>
    <linearGradient x2="1" gradientUnits="userSpaceOnUse" gradientTransform="matrix(697.32281 0 0 -697.32281 0 371.004)" id="m">
      <stop offset="0" stop-opacity="0" stop-color="#fff"/>
      <stop offset=".241" stop-color="#fff"/>
      <stop offset="1" stop-opacity="0" stop-color="#fff"/>
    </linearGradient>
    <linearGradient x2="1" gradientUnits="userSpaceOnUse" gradientTransform="matrix(751.69324 0 0 -751.69324 -33.341 363.607)" id="n">
      <stop offset="0" stop-opacity="0" stop-color="#fff"/>
      <stop offset=".241" stop-color="#fff"/>
      <stop offset="1" stop-opacity="0" stop-color="#fff"/>
    </linearGradient>
    <linearGradient x2="1" gradientUnits="userSpaceOnUse" gradientTransform="matrix(697.32281 0 0 -697.32281 0 214.736)" id="o">
      <stop offset="0" stop-opacity="0" stop-color="#fff"/>
      <stop offset=".241" stop-color="#fff"/>
      <stop offset="1" stop-opacity="0" stop-color="#fff"/>
    </linearGradient>
    <linearGradient gradientTransform="matrix(.61516 0 0 .61516 -196.728 -167.19)" gradientUnits="userSpaceOnUse" y2="-433.324" x2="650.236" y1="-322.165" x1="760.685" id="y" xlink:href="#p"/>
    <linearGradient gradientTransform="matrix(.61516 0 0 .61516 -196.728 -167.19)" gradientUnits="userSpaceOnUse" y2="-280.765" x2="803.497" y1="-130.262" x1="652.191" id="z" xlink:href="#q"/>
    <clipPath id="x">
      <path d="M6.827 6.827h354.331V630.45H6.827V6.827z"/>
    </clipPath>
    <linearGradient id="q">
      <stop offset="0" stop-color="#000"/>
      <stop offset=".2" stop-color="#000"/>
      <stop offset=".4" stop-color="#000"/>
      <stop offset=".6" stop-color="#000"/>
      <stop offset=".8" stop-color="#000"/>
      <stop offset="1" stop-color="#000"/>
    </linearGradient>
    <linearGradient id="p">
      <stop offset="0" stop-color="#000"/>
      <stop offset=".2" stop-color="#000"/>
      <stop offset=".4" stop-color="#000"/>
      <stop offset=".6" stop-color="#000"/>
      <stop offset=".8" stop-color="#000"/>
      <stop offset="1" stop-color="#000"/>
    </linearGradient>
  </defs>
  <g clip-path="url(#r)" transform="matrix(1.25 0 0 -1.25 -409.441 645.07)">
    <g clip-path="url(#s)">
      <path d="M645.281 46.094l-8.851-9.417c-5.354-5.354-6.278-12.183-6.278-14.84-.017-.2-.022-.412-.027-.632v-.394c.032-2.23.508-4.983.795-5.798l.645-2.04 18.673 18.977a12.402 12.402 0 0 1 3.59 9.986 12.469 12.469 0 0 1-3.598 7.613l-2.312 2.305-.975 1.022c.052-.101.962-3.601-1.662-6.782" fill="url(#t)"/>
    </g>
  </g>
  <g clip-path="url(#u)" transform="matrix(1.25 0 0 -1.25 -409.441 645.07)">
    <g clip-path="url(#v)">
      <path d="M630.986 87.269c-.018-.089-1.473-5.516.45-12.271 1.55-5.448 5.968-10.451 5.968-10.451l18.44-18.507c3.114-3.117 2.231-7.052 2.178-7.155h.013l.814.905 2.371 2.33a12.453 12.453 0 0 1 3.586 7.603c.037.384.056.771.059 1.149v.102a12.396 12.396 0 0 1-3.649 8.74l-29.822 29.549-.408-1.994z" fill="url(#w)"/>
    </g>
  </g>
  <g clip-path="url(#x)" transform="matrix(1.91766 0 0 -1.91766 447.213 -472.677)">
    <text transform="matrix(1 0 0 -1 368.092 215.991)">
      <tspan y="0" x="0" style="-inkscape-font-specification:HelveticaNeue" font-size="19.841" font-weight="400" fill="#000" font-family="DWOEHL+HelveticaNeue"></tspan>
    </text>
  </g>
  <path d="M202.58-414.35c0 14.485 5.388 27.994 15.218 38.153l20.398 21.6c4.186 4.463 6.168 8.674 6.168 14.384.09 2.107-.461 4.172-.461 4.172l8.625-8.728c5.067-5.607 8.548-12.62 8.548-21.14 0-9.674-3.932-16.738-10.033-22.88l-44.89-45.658s-3.573 8.726-3.573 20.096z" fill="url(#y)" transform="matrix(1.91766 0 0 -1.91766 447.213 -472.677)"/>
  <path d="M203.389-264.61c0 10.522 2.457 17.863 2.457 17.863l72.531-71.814c6.392-6.774 9.623-13.312 9.623-22.471 0-8.067-3.007-15.264-7.678-20.475l-9.418-9.418s.614 1.545.614 3.993c0 6.42-2.884 11.132-6.245 14.485l-44.532 44.584c-10.302 11.242-17.352 26.01-17.352 43.252z" fill="url(#z)" transform="matrix(1.91766 0 0 -1.91766 447.213 -472.677)"/>
  <g fill="#000">
    <g clip-path="url(#A)" transform="matrix(4.71997 0 0 -4.71997 -2139.053 421.905)">
      <path d="M612.614 65.965h-9.009a3.29 3.29 0 0 1-3.316-3.317l-.004-26.832h3.371c1.764 0 3.266 1.298 3.266 2.93V59.93h6.014c2.797-.27 4.503-1.821 4.503-4.523v-.085c0-2.384-1.65-4.254-4.503-4.54h-.058a3.95 3.95 0 0 1-2.882-1.242 3.947 3.947 0 0 1-1.08-2.721l.003-1.952h3l1.49.057c6.075.485 10.756 4.049 10.756 10.524v.09c0 6.16-4.355 10.427-11.55 10.427M508.737 62.684V35.816h3.285c1.833 0 3.284 1.298 3.284 2.93v27.22l-3.41.003a3.262 3.262 0 0 1-3.16-3.285M533.71 60.684a3.254 3.254 0 0 1 .07 4.571l-.104.09a3.255 3.255 0 0 1-4.553-.09l-13.62-14.375 13.62-14.362a3.257 3.257 0 0 1 4.553-.086l.104.09a3.255 3.255 0 0 1-.07 4.572l-9.5 9.79v.004l9.5 9.796zM550.31 62.654V46.541c0-3.489-1.548-4.996-4.136-4.996-1.507 0-2.67.517-4.006 1.507-.645.474-1.16.69-1.978.69-1.77 0-3.146-1.422-3.146-3.186 0-1.036.56-2.026 1.248-2.543 1.898-1.468 4.524-2.628 7.967-2.628 3.276 0 5.991.95 7.843 2.8 1.806 1.808 2.841 4.481 2.841 8.054v19.725l-3.41.005a3.295 3.295 0 0 1-3.223-3.315M488.764 65.969h-3.415a3.294 3.294 0 0 1-3.217-3.317V35.816h18.909c1.654 0 3.017 1.298 3.017 2.939v3.092h-15.294v24.122zM453.297 62.652l.002-26.836h20.242c1.64 0 2.974 1.293 2.974 2.93v3.1h-16.628v6.203h11.503c1.635 0 2.97 1.295 2.97 2.93a2.978 2.978 0 0 1-2.97 2.973h-11.503v6.117h13.654c1.64 0 2.974 1.29 2.974 2.929v2.97h-19.9a3.291 3.291 0 0 1-3.318-3.316M570.095 47.299a9.85 9.85 0 0 0 0 7.372 9.752 9.752 0 0 0 2.154 3.242 9.739 9.739 0 0 0 6.922 2.862 9.78 9.78 0 0 0 3.686-.713 2.974 2.974 0 0 1 3.262.697c.008.006 2.598 2.579 2.598 2.579-1.194.956-2.295 1.625-3.33 2.112a2.77 2.77 0 0 1-.29.137 15.732 15.732 0 0 1-5.926 1.153 15.739 15.739 0 0 1-15.755-15.75c0-2.044.388-4.04 1.151-5.927.067-.166.205-.458.292-.648a23.87 23.87 0 0 1 1.96-2.928s1.72 1.696 2.344 2.34c.399.31.716.716.917 1.19.309.736.317 1.544.015 2.282M592.264 59.532c-.046.065-.764 1.035-.749 1.049l-2.577-2.598a2.973 2.973 0 0 1-.698-3.262 9.758 9.758 0 0 0 .714-3.686 9.739 9.739 0 0 0-2.863-6.922 9.763 9.763 0 0 0-6.923-2.871 9.847 9.847 0 0 0-3.69.717 2.944 2.944 0 0 1-2.281-.015 2.973 2.973 0 0 1-1.172-.891c-.59-.566-2.406-2.407-2.406-2.407a16.248 16.248 0 0 1 3.47-2.146s.107-.049.153-.067a15.724 15.724 0 0 1 5.927-1.152c2.043 0 4.035.388 5.922 1.152a15.698 15.698 0 0 1 5.217 3.459 15.733 15.733 0 0 1 4.61 11.143c0 2.078-.39 4.066-1.19 5.911-.39.898-.876 1.762-1.463 2.586"/>
    </g>
  </g>
</svg>
