<svg version="1" xmlns="http://www.w3.org/2000/svg" viewBox="0 0 800 415">
  <path d="M123 3.4c-16.8 3.8-29.7 11-34.2 19.3-1.5 2.7-8.9 26.8-17.2 55.8-8.1 28-15.2 52.3-15.8 53.9-2.9 7.2-6.5 9.7-23.8 16.5-17.8 7-25.3 13.8-28 25.3-2.7 11.2.9 30.7 10.4 57.1 6.5 17.7 6.9 20.8 5 33.6-.8 5.8-2.2 13.6-2.9 17.2-4 18.8-2.7 25.2 5.5 27.8 3.7 1.2 6.1 1.2 13.5.3 23.4-3 67.3-15.4 101.9-28.8 30.7-12 40-19.4 46-37 4.6-13.5 4.5-21.2-.1-25.8-5.3-5.3-12.5-3.8-57.3 11.9-34.2 12-41.1 13-44.5 6.5-2.7-5.3-1.3-15.8 4.6-33.2 5.3-15.8 9.2-22.9 15.9-29.1 8-7.4 14.6-10.5 39.5-18.3 11.6-3.6 23-7.5 25.4-8.7 7.9-3.9 13.7-13 15.6-24.5.5-3.3.2-5.2-1.4-8.6-2.8-5.6-8-8.5-23.6-12.6-14.2-3.8-18.7-5.9-20.3-9.5-2.2-4.7 2.1-16 7.7-20.8 3.9-3.3 7.7-4.1 59.1-12.7 28-4.7 43.9-7.8 46.7-9.1 2.3-1.1 5.8-3.9 7.9-6.1 4.9-5.5 11.4-19.5 12.1-26.2.5-4.8.3-5.6-2.5-8.7-2.7-3.1-3.5-3.4-9.8-3.7-8.3-.5-29.8 2.2-69.9 8.7-19.9 3.2-30.6 4.6-31.7 4-1-.5-2.5-3.5-3.4-6.5-2.5-8.7-3.6-9.4-15.1-9.3-5.4.1-12.3.7-15.3 1.3zM510.4 41.8c-10.7 3.8-31.2 17.4-46.8 31.1-3.2 2.9-6 5-6.2 4.8-.3-.2-.9-3-1.4-6-2-12.2-6.5-16.4-16.3-15.4-11.1 1.1-25 8.7-31.4 17.1-1.7 2.3-8.6 16.9-15.3 32.6-6.8 15.7-12.7 29-13.2 29.6-.4.6-2.8 1.7-5.3 2.4-8.2 2.3-15.3 10.3-16.9 19.2-.8 4.4.8 11.1 3.6 15l1.9 2.8-9.2 22.2c-13.5 32.7-16.7 41-19 49.9-2.4 9.2-2.8 18.8-1 24.1 2.3 6.9 12.9 13.8 24.9 16 9.1 1.7 12.6.6 19.1-6 6.9-7.1 12-15.7 28.7-48.7l13.1-26 9.3 8.3c12.2 10.9 29.5 23.8 45 33.7 15.4 9.8 50.3 27.5 67 34 6.9 2.6 12.8 5.1 13.2 5.4.4.3-4.5 8.5-10.8 18.1-19.2 29.2-34.1 56.9-39.9 74.5-3.7 10.9-3.3 19.7 1.1 25.2 5 6.3 11.2 8.7 22.9 9.1 19.3.7 34.8-5.4 38.5-15.2 1.1-3-.2-8.6-2.1-8.6-.5 0-1.3-.9-2-2.1-3.6-6.8 22.2-53.7 52.9-96.4 40.3-55.8 77.6-100.3 149.6-178.3 14.4-15.5 27.3-30.4 28.8-33 5.5-9.3 3.2-17.9-7.6-28.6-8.3-8.3-16-10.5-23.4-6.7-8.9 4.5-65 65.5-106 115.3-10.3 12.4-19.1 22.7-19.6 22.7-1 .1-.1-23.1 1.5-37.4.5-5 2.7-20.6 4.9-34.7 4.4-28.2 4.8-35.8 2.4-43.8-4-13.5-13.6-20-29.4-20-12.3 0-15.3 4-20.4 28-11.1 51.7-14.1 109.3-8 150.6l1.7 11.1-2.9 3.9c-1.5 2.2-2.9 4-3 4.2 0 .1-4.8-1.4-10.5-3.3-12.5-4.4-31.6-13.4-44.8-21.2-15.9-9.6-42.1-29.8-40.4-31.3.5-.3 4.2-1.9 8.3-3.4 10-3.8 28.9-13.7 37-19.4 3.6-2.5 9.7-7.8 13.6-11.6 16.7-16.8 24.4-34.5 24.4-56.5 0-18.1-4.5-29.6-16-41.1-14.1-14-32.3-20.6-44.6-16.2zM520 94c5.1 5.1 0 19.4-11.5 31.8-14.7 15.8-45.8 32.2-61.3 32.2-4.2 0-4.1-.3 2.9-10.7 7-10.5 20.2-26.5 28-33.9C496.4 96 513.9 87.9 520 94z"/>
  <path d="M348.4 50.2c-4.7 3.7-5.6 5.1-20.5 31.3-29 50.9-56.1 94.3-69.6 111l-4.8 6-.8-43.5c-.8-47.2-1.5-53.4-6.3-59.8-4.1-5.3-8.4-6.7-17.5-5.4-14.5 2.1-23.6 6.9-26.1 14-2.8 8-1.1 114 2.3 142.2 2.8 23.2 10.6 33 25.1 31.7 13.1-1.2 27.5-12.4 49.1-38.2 28.1-33.5 73.2-98.8 100.1-145 8.6-14.7 9.2-22.1 2.5-30.8-4-5.3-12.4-12.2-17.2-14.2-5.5-2.3-12.8-2-16.3.7z"/>
</svg>
