<svg xmlns="http://www.w3.org/2000/svg" viewBox="-236 303.9 138.4 187.1">
  <path d="M-226 488.1l1.7-.1c1.8-.1 1.8-.4 1.8-5.9v-15.7c0-5.5 0-5.8-1.8-5.9l-1.7-.1v-1h20c.2 1 .5 2.8.5 4.8 0 1.1-.1 1.4-.1 1.8l-1.1.2c-1-4.8-1.1-5.5-7.5-5.5h-4.2v13.1h4.4c3.5 0 4.3 0 4.6-1.9l.2-1.6h1.2v8.2h-1.2l-.2-1.6c-.2-1.8-1.1-1.9-4.6-1.9h-4.4v7.1c0 5.5 0 5.8 2.5 5.9l1.7.1v1h-11.7v-1h-.1zm25 0l1.7-.1c1.8-.1 1.8-.4 1.8-5.9v-15.7c0-5.5 0-5.8-1.8-5.9l-1.7-.1v-1h10.9v1l-1.7.1c-1.8.1-1.8.4-1.8 5.9v15.7c0 5.5 0 5.8 1.8 5.9l1.7.1v1H-201v-1zm17.6 0l1.7-.1c1.8-.1 1.8-.4 1.8-5.9v-15.7c0-5.5 0-5.8-1.8-5.9l-1.7-.1v-1h11.8c4.3 0 10.3.6 10.3 7.5 0 4.2-3.7 6.7-6.3 7.8.7 1.3 2.2 4.2 3.4 6.4 1.9 3.4 3.8 6 5 6.7.5.2 1.3.5 2.3.5v1h-3.5c-3 0-5-2-6.4-4.6l-1.8-3.5c-1.2-2.2-2.2-4-2.8-4.4-.7-.6-1.8-.6-2.8-.6h-1.7v6c0 5.5 0 5.8 1.7 5.9l1.7.1v1h-10.9v-1zm7.5-13.4h2.5c3.8 0 7.2-2 7.2-7.1 0-5.3-3.5-7-7-7-1 0-1.9.2-2.8.4.1 0 .1 13.7.1 13.7zm33.2-2.8c3.6 2 7.3 4 7.3 9.4 0 6.1-5.7 8.4-10.5 8.4-3.5 0-5.7-1-7.1-1.8-.8-1.8-1.4-5-1.4-7.9l1.4-.4c.5 3.2 2.2 8.7 8.4 8.7 3.1 0 5.4-2 5.4-5.5 0-3.2-2.8-5.5-6.3-7.1l-2.9-1.6c-2.5-1.4-4.9-4.2-4.9-7.6 0-5.5 4.6-7.8 9.4-7.8 2.8 0 5 .7 6.3 1.4.4 1.4.5 5.2.5 6.3h-1.1c-.5-2.3-1.2-6.3-6.3-6.3-2.6 0-4.9 1.9-4.9 4.9 0 2.6 1.9 4.1 4.4 5.5l2.3 1.4zm17 16.2l1.7-.1c2.5-.1 2.5-.4 2.5-5.9v-21.5h-2.4c-6.4 0-6.5.7-7.5 5.9h-1.1c0-.2-.1-1.4-.1-2 0-2 .4-4.2.5-5.2h25.1c.2 1 .5 3.1.5 5.2 0 .6-.1 1.8-.1 2h-1c-1-5.3-1.1-5.9-7.5-5.9h-2.4v21.5c0 5.5 0 5.8 2.5 5.9l1.7.1v1h-12.5v-1zm21.7-180c-.7.2-1.4-.6-1-1.4.5-.7-.5-1.3-1.1-1-.2.1-.5.4-.7.6-1.4.7-3.1 3.5-3.6 5-1.8 5.9 1.4 12-1.9 16.2-2 2.6-5.5 2.4-9 2.3-3.1-.1-14.2-3.2-19 1.8-4.2-2.3-9.5-1.1-12.1.4-7.3 3.8-8.7 11.3-8.2 17 .6 8.4 6.7 16.3 15.7 18.6 1 .2 1.2.6 1.1 1.1-.1.4-.4.7-2.2.4-7.2-1.2-16-7.1-18-20.1-1-6-2.8-10.9-5-13.6-4.9-5.9-12.1-8.2-20.2-8.2-13.8 0-24.3.4-33.2-4.3-2.4-1.3-4.4-2.6-5.8-4.9-.2-.5-.8-.4-.8.2.1 3.2 1.4 10.3 10.1 14.4 6.1 2.5 10.9 2.8 17.2 3 2.5.1 5.8.1 9.6.5 1.7.1 3.1.4 4.8.6 1 .1 1.7.6 1.7 1.1-.1.6-.8.5-1.6.5-1-.1-2.9-.2-4.3-.1-6.5 0-13.1.7-17.9.2-8.2-1-14.8-3.5-17.8-9.5-.4-.6-1-.5-.8.2.4 5.2 3.4 16.7 22.8 17.3 4.8.1 9.3-.5 13.5-1.1 2.8-.4 5.3-.6 8.7-.2 1 .1 1.1.4 1 .7-.1.5-.4.7-1.7.7-3.1 0-5.3.4-7.9 1-4 .8-7.8 2-13 1.9-6.4 0-11.8-.8-17.3-5.7-.5-.4-.8.1-.6.5 1.8 4 7.7 12.7 22.4 12 5.3-.2 8.8-1.3 13.3-3 3-1.1 5.7-1.1 7.3-1 1.2.1 1.3 1.6 0 1.6-5.7-.1-8.4 1.9-10.2 3.4-2.4 1.9-4.3 4.8-5.4 7.2-1.8 3.8-6.5 7.3-12.5 7.2-1.6 0-3-.2-4.4-.7-1-.4-1.6.7-.4 1.3 1.4.7 3 1.3 4.8 1.4 4.1.5 7.8-.4 10.7-2.9-.4 6.1-.8 11.9-1.7 15.5-1.2 5.4-2.9 9-8.2 17-.7 1.2-.4 3 1.1 3.6 3.2 1.3 8.9 3.8 9.7 4.2 1.6.6 3.1.2 3.6-1.1 8.3-27.5 47.5-36.1 65.5-16.7 1.1 1.1 3.1 1.6 4.3 0 2-2.8 5.9-6.9 6.9-7.9 1.2-1.4.5-3.2-1-4.1-2.9-1.4-20.7-10.2-20.9-18.8 0-1.3.8-2.3 3.1-2.9 3-.7 6.5-2.6 8.1-4 .4-.4 1-.7 1.4-.4 1.3.8 3.1 1.6 4.9 2.2 3.8 1.4 7.9 1.8 11.8 1.3 1.6-.2 1.1-1.6 0-1.6-2-.1-4.2-.4-6.4-1.1-4.1-1.2-5.8-2.3-7.7-4.7-.2-.2-.2-.8.2-1 11.9-4.6 16.6-13.2 17.6-20.3.5-3.6-.2-7.2-.8-9.7-1.3-4.8-.6-9.6 1.3-10.7.2-.1.5-.4.6-.5 1-.2.4-1.1-.5-.9m-23.1 29.8c-1.3.2-2.4-.2-2.6-1-.1-.8.7-1.7 2-1.9 1.3-.2 2.5.2 2.6 1 .2.9-.6 1.7-2 1.9z"/>
</svg>