<svg version="1" xmlns="http://www.w3.org/2000/svg" viewBox="0 0 2000 427">
  <path d="M0 100.5V201h201V0H0v100.5zM223 100.5V201h200V0H223v100.5zM1841 67.4c-21.1 4.6-35.2 15.1-43.9 32.8-5.7 11.5-7.1 19-7.1 39V156h-30v35h30v147h43V191h63.9l.3 54.2c.4 52.4.5 54.6 2.6 62.3 4.9 17.6 15.7 28.6 32.5 33.1 12.7 3.4 29.9 2.7 44.3-1.7l6.4-2V302l-3.7 1.8c-12.3 6.2-27.9 4.6-34.2-3.4-4.8-6.1-5.1-9.4-5.1-61.1V191h43v-35h-43v-26.5c0-14.6-.3-26.5-.7-26.5-.5 0-10.1 2.7-21.5 6.1l-20.8 6.2V156h-64.2l.4-17.3c.3-15.4.6-17.7 2.7-22.5 2.7-6.1 8.4-11.4 14-13 5.9-1.8 17.8-1.4 24.1.8 3 1.1 5.8 1.9 6.3 2 .4 0 .6-8.2.5-18.2l-.3-18.2-4.5-1.4c-6.7-2-27.1-2.4-35-.8zM883.1 80.1c-16.3 3-25.3 20.4-18 35 3.8 7.5 14.3 13.9 22.9 13.9 5.2 0 13.1-3.1 17.1-6.7 5.8-5.3 8.2-10.5 8.2-17.8 0-16.3-13.7-27.3-30.2-24.4zM550.7 85.7c-.4.3-.7 57.5-.7 127V339h41.1l-.3-103.4c-.2-56.9-.2-103.4-.2-103.3.1.1 1.3 4.5 2.7 9.7 1.5 5.6 18.5 48.3 41 103l38.5 93.5 14.4.3 14.5.3 38.2-94.6c25.8-63.9 38.8-97.4 40.3-103.5 1.1-5 2.3-8.9 2.5-8.6.3.3 0 11.2-.6 24.3-.6 13.1-1.1 59.3-1.1 102.6V338h44V85l-30.1.2-30 .3-32.3 79c-17.7 43.4-34.9 86.5-38.2 95.7-3.2 9.3-6.1 16.8-6.4 16.8-.3 0-1.9-3.9-3.4-8.8-2.6-7.8-69.5-177.2-71.8-181.5-.8-1.6-3.3-1.7-31.2-1.7-16.6 0-30.6.3-30.9.7zM1017.7 153.5c-23.6 3.8-44.7 15.8-58.7 33.3-6.6 8.3-13.4 22.4-16.7 34.8-2.5 9.1-2.7 11.4-2.7 29.9 0 19.1.1 20.4 2.7 28.9 7.5 24.2 21.3 41.6 41.4 52.3 25.1 13.4 60.9 14.2 89.7 2.3l7.6-3.2V292l-6 3.9c-10.4 6.7-27.4 12.2-37.7 12.1-7-.1-18.9-2.7-24.9-5.6-12.5-5.8-23.2-20-26.9-35.5-2-8.6-1.9-27 .1-36.2 5.8-26 25.8-42.1 52.4-42.1 13.9-.1 25.9 3.4 37.7 11l5.3 3.4v-41.8l-7.2-2.6c-16.4-5.9-38.9-7.9-56.1-5.1zM1304.5 153.1c-41.2 4-69.1 27.1-79.1 65.4-3.5 13.3-4.5 38.2-2 52.2 6.2 35.8 29 61 62.8 69.4 10.7 2.6 32 3.6 44.3 2 52.7-7 83.7-52.7 76.4-112.6-5.5-44.6-33.6-72.3-77.7-76.5-11.7-1.1-13-1.1-24.7.1zm32.8 39.2c12 5.9 20.1 16.6 24.3 31.9 2.1 7.7 2.9 25.8 1.5 36.2-3.2 23.8-11.9 37.5-27.8 43.7-8 3.1-25.5 3.8-33.9 1.4-24-6.9-36.7-29.4-35.1-62 1.5-29.1 12.5-46.7 33.5-53.6 4.6-1.5 8.1-1.9 17.8-1.6 11.8.3 12.4.4 19.7 4zM1487.5 152.7c-16.6 2-30.6 8-40.6 17.2-12.4 11.3-16.9 21.5-16.9 38 0 11.7 1.9 19.5 6.6 27.2 6.9 11.4 16.5 18.1 43.4 30 13.7 6.1 17.4 8.2 21.6 12.4 5.9 5.7 7.3 10.3 5.4 17.6-2.4 8.9-10.7 12.9-26.8 12.9-14.8 0-32.1-5.4-44.7-13.9l-4.5-3v41.8l9.3 3c15.5 4.9 25.6 6.5 41.2 6.5 16.5-.1 27.8-2.4 39.3-8.1 8.8-4.3 19.4-13.9 24.2-21.9 11-18.3 8.6-46.5-5-58.8-7.5-6.7-21.1-14.9-35.5-21.1-25.8-11.4-29.3-13.8-31.4-22.1-2.3-9.2.9-16.3 9.3-20.6 3.1-1.7 6.4-2.3 13.9-2.6 12.5-.6 25.7 2.3 36.5 7.9 4.2 2.1 7.7 3.9 7.9 3.9.2 0 .3-8.7.3-19.4v-19.4l-3.7-1.5c-12.9-5-35.6-7.8-49.8-6zM1652 153c-37.2 3.6-64.5 23.4-76.1 55.1-5.4 14.9-6.4 21.5-6.3 42.4 0 17.2.3 19.9 2.6 28.6 8.5 31.5 30.4 53.3 61.3 61.1 7.7 1.9 11.6 2.3 27.5 2.2 20.2 0 25.3-.8 39.7-6.4 21.3-8.2 39.3-26.8 47.4-49 4.3-11.8 5.9-20.7 6.6-35 1.9-42.8-14.3-75.2-45.1-90-11.5-5.5-19.6-7.7-33.4-9-10.8-1.1-13.3-1-24.2 0zm26.1 37c22.3 6.9 34.2 29.5 32.6 62-1.9 37.1-17.4 55.1-47.6 55-15.9-.1-25.2-3.4-34.1-12.4-6.3-6.3-10.1-12.8-13.2-22.6-2-6.5-2.3-9.5-2.3-23.5 0-17.8.9-23 6.1-34.2 5.5-12.2 16.1-21.5 28.3-24.9 7.4-2 22.8-1.7 30.2.6zM1193.1 154.1c-13.6 2.4-25.7 11.7-32.7 25.2l-3.9 7.7-.5-15.3-.5-15.2-21.2-.3-21.3-.2v182h43v-51.8c0-41.5.3-53.1 1.5-58.6 4.1-19.2 16.5-33 31.6-35.1 6.3-.9 18.3 1 24.2 3.9l4.7 2.3v-42.5l-3.2-1.1c-5.1-1.5-15.7-2.1-21.7-1zM866.7 156.7c-.4.3-.7 41.3-.7 91V338h43V156h-20.8c-11.5 0-21.2.3-21.5.7zM0 323v101h201V222H0v101z"/>
</svg>
