<svg version="1" xmlns="http://www.w3.org/2000/svg" viewBox="0 0 500 170">
  <path d="M76.9 33.4c-8.3 2.1-13 6.7-20.9 20.1-2.9 4.9-6.3 10.6-7.5 12.5-1.3 1.9-4.4 7.2-6.9 11.8L37.1 86l6-4.7c9.5-7.5 14.9-11.5 14.9-11 0 .3-4.7 4.2-10.5 8.7-11 8.4-15.7 13.8-20 22.7-7.7 15.9-4 29.2 9.8 35.4 5.2 2.4 5.3 2.4 44.2 2.4h39l6.6-3.2c8.8-4.3 12.2-9.1 12.7-17.7.6-8.8-1.5-13.7-17.2-40.6-13.7-23.5-16.7-28.1-14.6-22.6 1.8 4.9 3 11.2 5.6 30.4 3 22.6 2.9 25.3-.9 26.7-2.3.8-4.8.3-13-2.4-13-4.3-31.7-11.3-32.2-12.1-.2-.3 4.3-4.2 9.9-8.5l10.3-8-.3-4-.4-4 1 4c.6 2.1.8 4.5.6 5.2-.4 1.1 1.4 14.1 2.9 21 .4 1.6 2.4 2.9 8.5 5.2 11.7 4.6 15 4 15-2.6 0-5.8-6-44.3-7.6-48.6-.9-2.3-1.7-5.3-1.9-6.6-.4-3-7-10.8-12.1-14.3-5.2-3.7-10.8-4.8-16.5-3.4zm3.6 24.8c3.2 1.5 5.3 5.2 6 10.9.5 4.1.4 4-.9-1.1-1.5-5.7-5.1-10-8.5-10-1 0-4.9 2.3-8.6 5.1-3.7 2.9-6.5 4.7-6.1 4.1C63.5 65.4 75.1 57 76.6 57c.7 0 2.5.5 3.9 1.2zM409.1 36.6c-8 2.1-16.3 6.9-22 12.7-6.3 6.4-8.7 10.3-11.7 18.7-3.3 9.3-3.4 25.7-.1 35 4.7 13 13 22.6 25 28.5 20.8 10.2 47.5 6.3 62.9-9.1 10-10 14.8-22 14.8-36.9 0-15.2-5.1-27.7-15.2-37.1-7-6.4-13.3-9.8-22-11.9-7.9-1.9-24.6-1.8-31.7.1zM440.7 54c10.9 5.4 17.3 15.7 18.1 29.1.7 12.5-3.1 22.4-11.5 30-12.1 11-33.4 10.4-45.1-1.2-12.8-12.6-13.6-36.6-1.8-50.7 9.2-10.8 26.6-13.9 40.3-7.2zM164.2 86.1l.3 48.1h16l.3-34.3c.1-18.9.6-34.6 1-35 .4-.4 12.9 15 27.7 34.3l27 35.1 8-.1c4.4-.1 8.3-.1 8.8-.2.4 0 .7-21.6.7-48V38h-18l-.2 34-.3 34.1L209.1 72l-26.3-34H164l.2 48.1zM270 86v48h18V93h55v40.8l8.1.4c4.4.2 8.3.1 8.5-.1.2-.2.4-22 .4-48.3V38h-17v38h-55V38h-18v48z"/>
</svg>
