<svg version="1" xmlns="http://www.w3.org/2000/svg" viewBox="0 0 816 476">
  <path d="M486 129.5V253h43V6h-43v123.5zM323.8 110c-16.7 3.5-34.1 13.8-45 26.7-26.5 31.4-18.4 77.8 16.8 96 10.7 5.6 13.9 6.5 41.9 12.7 24.8 5.5 32.4 8.1 38.3 13 12 10.2 12 28.3.1 39-6.9 6.2-14 8.7-26.4 9.4-26.7 1.3-47-12.5-52.5-35.6-.6-2.8-1.6-5.2-2-5.2-1 0-38.3 13.1-38.9 13.6-.9.8 3.1 12.8 6.3 19.2 7.9 15.7 20.5 27.8 37.1 35.9 29.3 14.1 69.1 13.3 95-1.9 10.1-5.9 21-17.4 26.3-27.4 5.6-10.9 7.5-18.7 7.5-30.4 0-18.2-5.3-31-17.8-43.5-6.2-6.3-10-9.1-17-12.7-11.8-6-17.8-7.8-43.5-13.4-11.8-2.5-23.9-5.5-26.9-6.6-10.6-4-17-12.5-17.1-22.7 0-7.9 1.8-12.8 7.2-18.6 13.2-14.5 41.2-15.9 58.7-3.1 6.2 4.6 12.2 13.5 14.7 21.5 1 3.4 2.3 6.1 2.8 6.1.6 0 9.2-3.1 19.1-6.8l18-6.8-.3-3.5c-.1-1.9-2.5-8.1-5.3-13.8-8.8-18.1-24.3-31.3-44.4-38-16.2-5.4-36.4-6.6-52.7-3.1zM101.6 111.5c-37.3 7.1-67.6 30-84.1 63.9C9.9 190.8 7 202.7 6.3 220.6c-1.3 34.6 10.2 64.7 33.8 88.3 45.5 45.5 119.5 45.5 164.9.1 23.5-23.5 34.9-53.2 33.7-88-.6-18.8-3.5-30-11.6-46.5-7.2-14.5-13.3-22.7-25-33.7-14.5-13.5-31.2-22.7-50.7-27.9-10.6-2.8-38.1-3.5-49.8-1.4zm41.1 39.5c20.9 5.4 39.5 20.4 48.8 39.4 10.7 21.8 11.6 44.6 2.5 66.7-9.7 23.5-32.3 41.6-57.5 46-9.7 1.7-27.2.7-36-2.1-25.2-7.9-43.2-25.4-51.6-50.1-2.8-8.1-3.3-11.1-3.7-22-.5-14.3 1.4-24.1 6.8-35.8 15.9-33.8 53.9-51.5 90.7-42.1zM666.5 111.9c-44.7 9.4-79.1 41.9-90.6 85.7-2.6 10.2-3.7 33.7-2 45.4 8.5 57.7 57.6 100 116.1 100 57.6 0 105.1-41 114.6-98.8 1.9-11.5 1.4-31.8-1-42.8-6.1-28.2-23.2-54-46.6-70.6-9.5-6.8-26-14.4-37.5-17.4-13.7-3.6-39.3-4.3-53-1.5zm41.5 38.8c28.9 6.9 51.4 30.2 57.7 59.6 2.1 10.1 1.3 28.7-1.7 38.2-2.5 7.8-6.9 17-11 23-6.9 10.1-20.3 21.1-31.7 26.1-16.9 7.5-38.6 8.4-56.3 2.5-25.9-8.8-44.1-28.3-51.1-54.7-2.4-9.4-2.9-25.8-1-34.9 2.9-13.4 9.7-26.8 18.8-36.6 19.4-20.9 48.7-29.9 76.3-23.2zM499 282.9c-8.6 2.8-16 9.1-20.1 17.1-3.3 6.3-3.3 19.4-.1 26 3.5 7.1 7.5 11.4 14.4 15 5.6 3.1 7.1 3.5 14.3 3.5 6.7 0 8.9-.4 13.7-2.8 6.2-3 11.5-8.3 15-14.9 3.4-6.3 3.3-20.2-.1-27.2-5.4-10.9-14.8-16.9-27.1-17.3-4.1-.1-8.6.1-10 .6zM347 392c-1.1 1.1-2 2.6-2 3.3 0 2.4 3.1 5.7 5.5 5.7 5 0 7.3-6 3.7-9.3-2.5-2.2-4.8-2.1-7.2.3zM690.7 391.8c-3.4 3.7-1.1 9.2 3.8 9.2 2.4 0 5.5-3.3 5.5-5.7 0-1.9-3.7-5.3-5.8-5.3-1.1 0-2.6.8-3.5 1.8zM41.1 394.1c-9.8 4.9-15.2 14-15.4 25.8-.2 17.7 11.4 30.3 28.1 30.4 20.6.1 33.9-19.1 27.7-40-4.8-16.2-24.6-24.1-40.4-16.2zm21.4 5.8c8.7 3.9 13.2 12.6 12.2 23.4-1.1 11.8-9.2 19.7-20.4 19.7-8.7 0-15.5-4.5-18.8-12.2-2.3-5.5-2-16.2.6-21.5 4.7-9.7 16.5-13.9 26.4-9.4zM130 420v29h8v-58h-8v29zM218 420.5V449h12.5c14.1 0 17.6-.9 21.8-5.9 5.6-6.7 4.4-16.5-2.5-21l-3.8-2.4 2.8-1.7c3.8-2.3 5.6-6.9 5-12.5-1.2-10.3-6.8-13.4-24-13.5H218v28.5zm25.1-18.6c2 2 2.9 3.9 2.9 6.1 0 2.2-.9 4.1-2.9 6.1-2.7 2.7-3.5 2.9-10 2.9H226v-18h7.1c6.5 0 7.3.2 10 2.9zm1.4 24.3c1.5 1.4 2.8 3.8 3.2 6 .5 3.2.1 4.1-2.5 6.8-2.9 2.8-3.5 3-11.1 3H226v-18h7.9c6.8 0 8.4.3 10.6 2.2zM552 420.5V449h8v-23h8.6l6.3 11.5 6.3 11.5h4.5c5.3 0 5.5.9-2.5-12.9l-6-10.5 4.7-2.2c8.4-3.8 11.3-13.6 6.9-22.4-3.7-7.3-8.3-9-24-9H552v28.5zm26-19.8c5.6 3.3 6.5 9.6 2.1 14.5-2.8 3.2-3.3 3.3-11.5 3.7l-8.6.3V399h7.6c5.3 0 8.4.5 10.4 1.7zM98.3 410.9c-6.6 3-9.1 9.8-5.8 16.1 1.5 2.8 5.3 4.8 14.1 7 7.8 1.9 7 10-1 10-3.6 0-8.6-3.3-8.6-5.6 0-1.7.1-1.7-3.9-.3-3.9 1.4-3.9 2.9-.1 7.3 8.6 9.7 26.5 5 26.5-6.9 0-6.1-3.8-10-11.4-11.6-7.1-1.6-8.8-2.4-9.6-5-1-3.1 2.1-5.9 6.6-5.9 3 0 4.2.6 6.1 3.1 2.2 2.8 2.7 2.9 5.1 1.8 1.5-.7 2.7-1.8 2.7-2.5 0-2.4-5.2-7.4-8.8-8.4-5.1-1.4-7.1-1.2-11.9.9zM161.8 410c-11.1 3.3-16.8 14.5-13.4 26.2 2.6 8.9 9.5 14.1 18.6 14.1 11.3 0 19-7.2 19.8-18.4 1.1-15.4-11.2-26.1-25-21.9zm11.2 7.5c4 2.1 6 6.3 6 12.9 0 4.7-.4 6-3.1 9-8.2 9.4-21.7 2.3-20.6-10.7.9-10.1 9.4-15.5 17.7-11.2zM315.3 410.9c-6.6 3-9.1 9.8-5.8 16.1 1.5 2.8 4.2 4.1 14.5 7.2 3.7 1.1 4.6 1.8 4.8 3.9.4 3.5-2.2 5.9-6.2 5.9-3.6 0-8.6-3.3-8.6-5.6 0-1.7.1-1.7-3.9-.3s-3.9 3.3.2 7.4c6.4 6.4 16.2 6.8 22.6.9 3.1-2.8 3.6-3.9 3.6-7.8 0-6-3.7-10-10.9-11.6-8.2-1.9-8.5-2-9.7-4.1-1.8-3.4 1.3-6.9 6.1-6.9 3.1 0 4.3.6 6.2 3 2.3 2.9 2.5 3 5.6 1.7l3.2-1.3-2.2-3.5c-2.7-3.9-8-6.9-12.3-6.9-1.6 0-4.9.9-7.2 1.9zM382 410.1c-1.4.5-3.5 2-4.7 3.1l-2.3 2.1v-2.6c0-2.4-.4-2.7-3.5-2.7H368v39h7v-12.8c0-14.9 1.4-18.6 7.3-19.7 3.9-.8 9 1.4 10.1 4 .3.9.6 7.7.6 15.1V449h8v-14.3c0-15.5-1-19.2-6.1-23-3.1-2.2-9.5-3.1-12.9-1.6zM421.5 410.9c-8.1 3.7-12.1 11.3-11.2 21.4 1.3 14.2 15.4 22.3 28 16.2 3.3-1.5 8.7-7.6 8.7-9.6 0-.4-1.4-1.2-3.2-1.8-3.1-1.1-4.7-.3-4.8 2.2 0 1.4-6.5 4.7-9.3 4.7-4 0-8.4-2.6-10.2-6-3.1-5.9-2.9-6 13-6H447v-4.3c0-4.8-2.7-11.3-5.8-14-2.6-2.4-8.8-4.6-12.7-4.6-1.6 0-4.8.8-7 1.8zm14.6 8c1.6 1.6 2.9 3.9 2.9 5 0 2-.5 2.1-10.5 2.1-12.1 0-12.9-.8-7.1-6.6 4.6-4.6 10.4-4.8 14.7-.5zM462.4 410.4c-4.7 2.1-7.4 6.1-7.4 11.3 0 6.1 3.4 9.4 11.5 11.2 6.4 1.4 9.5 3.4 9.5 6.1 0 2.4-3.2 5-6.3 5-2.8 0-7.7-1.9-7.7-3 0-.3-.6-1.4-1.3-2.4-1.1-1.5-1.6-1.5-4.4-.4-3.2 1.4-3.2 1.4-1.6 4.6 3.9 8.1 18.5 10.5 25 4 7.5-7.5 2.7-18.4-9-20.3-7.9-1.3-10.9-5.2-6.9-8.8 3.5-3.2 12.2-1.1 12.2 2.9 0 1.7-.1 1.7 3.9.3 3.8-1.3 3.9-2.8.5-6.8-3.9-4.7-11.9-6.3-18-3.7zM499.5 410.4c-5.3 2.3-8 6.2-8 11.3 0 5.9 3.9 9.6 12 11.3 5.3 1.1 9.5 3.7 9.5 6s-4.1 5-7.5 5c-3.5 0-7.6-2.8-8.6-5.8-.3-1-1.2-1-3.7-.1-3.8 1.3-3.8 1.4-1.2 5.6 2.5 4.2 7.3 6.6 13.5 6.6 9.5.1 15.3-5.5 14.2-13.7-.7-5.2-3.9-8-10.9-9.6-7-1.6-9.8-3.5-9.8-6.5 0-6.2 12-5.9 14.1.4.3.9 1.2.9 3.7 0 3.7-1.3 3.7-1.1 1.6-5-2.8-5.6-12.4-8.4-18.9-5.5zM609.5 410c-3.9 1.2-9.4 6.5-11.3 11-1.7 4.1-1.9 13.2-.2 17.5 2.7 7.2 9.8 11.8 18 11.8 6.3 0 10.6-1.9 14.4-6.3 3.3-4 3.3-5.6-.1-6.8-2.5-.8-3.2-.5-5.8 2.5-6.4 7.3-17.1 4.4-20-5.5l-.6-2.2h30.4l-.6-4.9c-.8-6.7-3.9-12.4-8.1-15-4-2.5-11.7-3.5-16.1-2.1zm11.4 7.4c2.5 1.3 5.1 5.2 5.1 7.6 0 .6-4.5 1-10.5 1-8.9 0-10.5-.2-10.5-1.6 0-6.4 9.2-10.4 15.9-7zM720.7 410.5c-8 2.8-12.7 10.1-12.7 19.5 0 10.4 5.5 17.6 15.2 20 3.8 1 5.6.9 10.1-.4 14.5-4.2 19.2-23.4 8.3-34.2-6-6-13.1-7.7-20.9-4.9zm13.4 7.8c9.4 6.3 6.5 23.2-4.3 25.2-7.7 1.5-14-4.6-14-13.4 0-11.5 9.6-17.7 18.3-11.8zM772 410.1c-1.4.5-3.5 2-4.7 3.1l-2.3 2.1v-2.7c0-2.5-.3-2.7-3.7-2.4l-3.8.3-.3 19.2-.2 19.3h7.8l.4-14.1c.3-14 .3-14.1 3.1-16.5 4.5-3.8 11.3-2.7 13.6 2.3.6 1.3 1.1 8 1.1 15.3v13h8.2l-.4-14.8c-.3-15.8-1.2-18.9-5.9-22.4-3.1-2.3-9.5-3.2-12.9-1.7zM264 424.2c0 16.6 1.4 21.4 7.2 24.4 4.8 2.5 12.1 2.3 15.8-.4 2.4-1.8 3-1.9 3-.7 0 1.1 1.1 1.5 4.1 1.5 3.8 0 4.1-.2 3.5-2.3-.3-1.2-.6-10-.6-19.5V410h-6.9l-.3 14.6c-.3 14.6-.3 14.6-3.1 17-4.3 3.7-11.2 2.7-13.6-2-.6-1.1-1.2-8.2-1.3-15.6l-.3-13.5-3.7-.3-3.8-.3v14.3zM347 429.4V449h8l-.2-19.3-.3-19.2-3.7-.3-3.8-.3v19.5zM649.3 412.5c-9.8 6-11.2 23.2-2.5 30.9 5.5 4.8 16.9 5 22 .3l2.2-2v2.9c0 9.1-4.3 14.4-11.7 14.4-5.2 0-8.6-2-10.3-6.1-1.2-2.7-1.6-2.9-4.4-2.3-3.9.8-4 .8-3.2 3.8 1.8 7.2 10.8 12.3 20.1 11.3 7.1-.7 11.8-3.7 14.4-9.1 1.9-3.9 2.1-6 2.1-25.4V410h-3.5c-2.8 0-3.5.4-3.5 2 0 2.4-.8 2.5-3.2.3-1.3-1.1-4.1-1.8-8.1-2.1-5.3-.2-6.8.1-10.4 2.3zm15.8 5.1c7.4 3.8 7.7 16.9.7 21.8-4.7 3.3-13.3 1.1-15.6-3.9-.7-1.4-1.2-4.8-1.2-7.4 0-9.5 8-14.7 16.1-10.5zM690.7 410.7c-.4.3-.7 9.1-.7 19.5V449h8v-39h-3.3c-1.9 0-3.7.3-4 .7z"/>
</svg>
