<svg version="1" xmlns="http://www.w3.org/2000/svg" viewBox="0 0 1200 518">
  <path d="M173.6.9C172.7 2.3 160 43 160 44.3c0 .7 2.4 2.6 5.3 4.4 17.1 10.5 30.8 29.8 35.8 50.8 1.8 7.5 2 11.2 1.7 22-.4 11.3-.9 14.2-3.6 22.1-2.8 8.3-3 9.5-1.9 13.2.7 2.2 1.5 4.3 1.8 4.7.4.3 4-1.6 8.1-4.4 8.6-5.7 21.8-13 33.3-18.3l8-3.8h-27.4l-9.5-29.3c-5.2-16-14.7-45.9-21.2-66.2-6.4-20.4-12.1-37.6-12.7-38.3-1.1-1.4-3.3-1.6-4.1-.3zM1.1 136.4c-.6.7-.9 2-.5 2.7.3.8 12.5 9.9 27.1 20.4 14.7 10.4 40 28.8 56.4 40.7 16.4 12 30 21.8 30.3 21.8.2 0-2.9-5.4-7.1-12-4.2-6.6-8.2-12-9-12-2.6 0-16.2-6.1-22.5-10.2-16.2-10.3-31.2-30.6-34.9-47.4l-1.2-5.4H21c-14.7 0-19 .3-19.9 1.4zM285 136.6c-26.2 5.6-58 22.7-83.7 44.8-51.6 44.4-82.5 110.1-84.8 180.1l-.5 15 2.4-12c10.2-51.8 32.5-94.3 69.3-131.8 28.6-29.3 49.3-43.8 86.6-60.6 18.6-8.4 42.9-17.4 64.2-23.6 29-8.5 27-7.7 27-10.5v-2.5l-37-.2c-28.6-.1-38.5.2-43.5 1.3zM697 211c-10 2.4-18.6 8.3-22.1 15.1-1.9 3.7-1.9 7.2-1.9 145.4V513h51v-81.6l4.8-4.7c2.6-2.6 5.1-4.7 5.4-4.7.4 0 20.1 20.5 43.8 45.5l43.1 45.5H885.4l-2.6-2.8c-1.4-1.5-27.6-29.2-58.2-61.6C794 416.2 769 389.4 769 389c0-.3 21-20.2 46.8-44.2 25.7-24 47.8-44.8 49.1-46.2l2.4-2.6h-64.8l-39 37-39 37-.3-80-.2-80-11.8.1c-6.4.1-13.3.5-15.2.9zM917.6 211.1c-5.2 1.2-13.5 5.5-17 8.7-1.6 1.5-3.7 4.5-4.7 6.7-1.8 3.8-1.9 9.9-1.9 145.2V513h51V210l-11.7.1c-6.5.1-13.5.5-15.7 1zM349.5 232.1c-24.7 1.9-49.2 10.3-70 24.1-11.4 7.5-30.8 27.1-38.4 38.7-10.7 16.4-17.8 33.8-21.8 53.6-2.7 13.5-2.4 41.5.5 55.2 8.1 37.5 28.6 68.3 59.4 89.1 43.2 29.2 101.5 32.9 148.2 9.5 39.7-19.9 66.3-54.5 75.8-98.6 2.9-13.7 3.2-41.7.5-55.2-4-19.9-11-37.2-21.5-53-28.9-43.8-78.5-67.5-132.7-63.4zm33.5 48.8c44.9 10.6 74 50.8 71.7 99.1-1.3 26.1-10.9 48.5-28.2 65.5-8 7.9-18.7 15.1-28.4 19-23.2 9.5-51.2 9.3-74.1-.4-32.5-13.9-53.6-45.5-55.6-83.5-2.6-48.5 26.5-89 71.6-99.8 10.7-2.5 32.1-2.5 43 .1zM1063.5 291.2c-40.1 2.6-73.1 25.8-89.1 62.7-17.2 39.7-11.4 89.5 14.5 123.9 16.1 21.3 39.9 35.3 67 39.2 13.2 2 35.5.8 46.6-2.4 12.4-3.6 29.4-12.3 39.3-20.1l8.2-6.5v25h49V296h-7.2c-15.1 0-26.7 3.4-34.3 10.1-4 3.6-7.4 9.8-7.5 13.7 0 2.2-.4 2-5.1-2.2-16.3-14.6-39.8-24.8-60.9-26.4-5.2-.4-14.4-.4-20.5 0zm37 44.2c23.8 6.4 40.4 24.4 46 50 2.1 9.6 1.6 31.7-.9 41.1-7.4 27-26.2 44.3-52.9 48.5-28.6 4.6-55.5-7.1-69.6-30.5-10.4-17.2-13.6-44.8-7.5-65.5 6.8-23.3 23.9-39 48.1-44.4 8.5-1.9 28.2-1.5 36.8.8zM612 294.1c-41.7 3.5-74.2 16.2-81.9 32.2-2.1 4.3-2.1 5.2-2.1 95.5V513h51V340.1l3.8-1c9-2.4 29.1-4.3 49.7-4.6l22-.4v-40.6l-16-.1c-8.8-.1-20.7.2-26.5.7z"/>
</svg>
