<svg version="1" xmlns="http://www.w3.org/2000/svg" viewBox="0 0 760 181">
  <path d="M366 1.6c-32.4 4.3-59.1 16.5-65.4 29.9-2 4.1-2.1 10.7-.2 14.4 7.3 13.9 36.7 24 70.6 24.1h12.5l5.2 7.3c2.8 3.9 8.8 11.6 13.3 16.9l8.1 9.8-.3 15.8c-.3 13.9-.1 16.1 1.5 18.5 1.6 2.4 2.4 2.8 6 2.5l4.2-.3-.4-12.3c-.2-6.7 0-12.2.4-12.2.3 0 4.6 3.6 9.3 8 22.4 20.6 75.3 57 82.9 57 3.5 0 7.3-3.6 7.3-6.8 0-1.7-1-2.4-5.4-3.7-12.1-3.5-48.2-28.7-74.5-52l-10.2-9 4.3-.8c12.3-2.3 25.6-5.9 32.5-8.9 33.8-14.6 46.6-42.3 29.9-64.4C484.5 18 455 5.1 419.5 1c-12.4-1.4-40.9-1.1-53.5.6zm56.5 5.9c35 5.5 60 21.4 65 41.2 1.4 5.5 1.4 6.8.1 13.4-4.5 21.5-26 37.4-53.6 39.6-6.5.5-7.8.3-9.9-1.4l-2.4-2 1.1-18.4c2.1-32.1 1.8-33.9-5.8-33.9-4.3 0-6 1.4-6 5.2 0 3.4-2.1 4.9-12 8.2-17.7 5.8-41.3 5.5-60.3-1-17.8-6.1-24.8-15.3-19.7-25.8 9.7-20 59.4-32.1 103.5-25.1zm-12 77.3c-.5 2.1-.9 1.9-4.8-3-9-11.2-10.2-13.1-8.6-13.7.8-.3 4.1-1.4 7.4-2.6l6-2 .3 9.5c.2 5.2 0 10.5-.3 11.8zM108.5 7c-33 3-64.4 11.6-83.6 23C5 41.8-4.4 58.8 1.7 71.8 7.8 84.9 32.4 97 60.6 101c19.1 2.6 44.6 2.2 47.7-.9 3.3-3.3-8.1-6.2-13.8-3.5-5.1 2.4-24.4.1-39.5-4.8-26.5-8.5-38.6-25.1-30.4-41.6 9.9-20 48.1-34.8 97.4-37.7 33.2-2 63.4 8.5 71.5 25 3 6 2.8 19.4-.3 25.3-7.3 13.7-22.7 23-42 25.2-9.4 1-13.7-.1-16.2-4.2-1.7-2.8-1.8-4.5-1.4-14.2.7-12.9.1-14.4-6.2-15.3-8.5-1.1-8.7.5-8.2 64.8.3 43.3.4 45.8 2.2 47.8 2.1 2.3 5.6 2.7 8.7 1.1 1.8-1 1.9-2.5 1.9-37.1V94.8l4.8.7c6.1.8 22.9-1 33-3.6 4.2-1.1 11.9-4 17-6.4 10.8-5.3 21.2-14.4 25.8-22.7 2.6-4.7 2.9-6.3 2.9-13.8 0-7-.4-9.3-2.4-12.9-7-13.3-24.5-23.2-48.9-27.6-10.4-2-41.3-2.7-55.7-1.5zM739.1 28.7c-6.5 3.2-9.3 11.1-6.6 18.1 2.1 5.2 6.3 8.3 11.9 8.9 5.1.6 9.2-1.2 13.1-5.9 2.4-2.9 2.7-3.8 2.3-9-.3-4.4-1-6.4-2.9-8.4-5.1-5.5-11.4-6.8-17.8-3.7zm11.4 1.7c4 1.7 7.5 6.8 7.5 11.1 0 7.1-7.6 13.4-14.6 12-2-.3-4.5-2-6.3-4.1-5.6-6.4-3.5-15.6 4.3-19 4-1.7 4.9-1.7 9.1 0z"/>
  <path d="M740.5 41.2c0 7 .3 8.3 1.7 8.6 1.2.2 1.8-.5 2-3l.4-3.3 1.9 3.2c1.3 2.2 2.8 3.3 4.3 3.3 2.7 0 2.7-.4 0-4.2-1.7-2.5-1.9-3.4-1-4.7 3.7-5.1 2.4-7.5-4.4-7.9l-4.9-.3v8.3zm6.8-5c.6 1.9-.3 3.8-1.9 3.8-.8 0-1.4-1-1.4-2.5 0-2.6 2.5-3.5 3.3-1.3zM541.8 31c-1.4 1-3.6 4.3-4.9 7.2-2.1 4.9-2.3 7.1-2.8 27.3-.6 21.5-.7 22.1-3.2 26.5-1.5 2.5-3.7 5.4-4.9 6.5-2.3 2-2.3 2-3.4 0-.6-1.1-3.3-4.3-6.1-7.1-10.4-10.7-23-9-29.7 4-2.6 4.9-3.6 18.9-1.9 25.1 1.8 6.9 7.2 14.7 12.5 18.2 4 2.8 5.8 3.3 10.5 3.3 7.6 0 12-3 15.8-10.7 2.4-5 2.8-7.1 2.9-14.6l.1-8.8 3.6-2.5c2-1.3 4-3.1 4.5-4 .6-1 1.5 1.7 2.9 8.8 3.8 19.1 9.3 29.1 17.7 32.3 5.1 2 8 1.5 12.1-1.6 2.7-2.2 8.5-13 8.5-16 0-2.5 1-2.8 4.5-1.3 1.9.8 5.2 1.4 7.3 1.4 3.5 0 4.1.4 7.2 5.2 5.1 7.7 10.5 11.1 18.5 11.6 5.4.4 7 .1 10.1-1.8 5.6-3.5 10.7-12.4 15.4-27 2.5-7.7 4.7-13 5.5-13 2.8 0 6.5 4.3 8 9.3.9 2.9 2 10.7 2.4 17.4.4 7.5 1.2 12.7 2 13.7s2.9 1.6 5.3 1.6c3.3 0 4.6-.7 8.6-4.8 5-5 10.8-15.2 13.7-24.2l1.8-5.4 1.8 8.4c2.7 13.3 6.1 20.9 10.9 24.7 2.3 1.9 7.5 1.5 10.3-.8 3.3-2.5 10.5-17.1 10.9-21.9.3-2.9 0-3.5-1.7-3.5-1.3 0-2.6 1.3-3.8 4-2.2 4.6-6.5 9.5-8.4 9.5-1.9 0-3.9-4.7-5.7-13.5-1.8-8.9-4.6-27.8-4.6-31.3V81h18.6c17 0 18.5-.1 18.2-1.7-.4-2.2-5.9-5.9-10.7-7.4-2-.6-8.8-1.3-15.1-1.6-6.7-.3-11.8-1-12.2-1.7-.4-.6-.8-2.9-.8-5.2 0-2.3-.3-6.2-.6-8.7-.5-3.8-1.1-4.8-3.5-5.7-1.5-.7-3.3-.9-3.8-.5-.7.4-1.1 4.8-1.1 11.1V70h-4.5c-2.5 0-4.5.2-4.5.5 0 1.9 3.2 6.3 5.5 7.5 2.6 1.4 2.7 1.7 2.1 7.7-1.7 16-9.1 36.3-14.9 40.7-3.6 2.7-4.2 1.7-5.1-8.3-1.6-17.9-6-28.2-13.5-32.1-6.1-3.1-9.5-2.7-12.7 1.5-2.2 3-2.5 3.9-1.6 6.4 3.1 8.9-9.5 32-18.3 33.7-3.7.7-8.3-1.4-10.4-4.8-1.1-1.8-.9-2.4 2.3-4.9 4.3-3.6 8.5-11.9 9.2-18.5 1.4-13-11.7-20.1-20.7-11.1-5 5-7.2 11-7.7 21l-.5 8.9-2.9-.6c-1.7-.3-4.2-1.4-5.5-2.4-2.5-1.8-2.6-2.2-2.4-12 .2-10.6-.7-13.9-4.7-17.5-2.8-2.5-7-1.8-9.6 1.6-3.2 4.3-2.8 14.6.8 22.1 2.7 5.4 2.8 6.1 1.6 9.7-1.6 4.8-5.2 8.9-7.9 8.9-1 0-3-1.3-4.4-3-5.1-6.1-7.6-18.9-7.7-39.3 0-11.2.4-14.4 3.1-25 2-7.6 3.2-14.9 3.3-19.4.1-6.3-.2-7.5-2.3-9.7-2.9-3.1-5.9-3.3-9.3-.6zm68.3 63.1c1.7 3.2.2 10.2-3.2 14.8-1.6 2.3-3.3 4.1-3.8 4.1-1.3 0-2.4-9.3-1.6-13.2 1.5-7.2 6.1-10.2 8.6-5.7zm-106.9 2.2c-.7 5.7 6.9 12.7 13.8 12.7 2.6 0 3 .3 3 2.7 0 5-2.1 10.6-5.1 13.6-2.6 2.6-3.5 2.9-7 2.4-5-.7-8.5-3.7-11.2-9.7-4.4-9.9-1-22.6 6.8-25 .1 0-.1 1.5-.3 3.3zm12.3 3.5c-.6.7-3.5-1.8-3.5-3.1 0-.5.9-.2 2 .8s1.8 2 1.5 2.3zM160.2 60.7c-1.7.7-5.2 7.7-5.2 10.6 0 5.7 9.2 9.1 12.4 4.5 2.3-3.2 2.1-12-.2-14.1-1.8-1.7-4.5-2-7-1zM198.4 85.4c-3.8 1.7-7.2 6.3-9 12.3-1.7 5.7-1.8 18.2-.2 23.5 1.3 4.3.7 5.2-4 6.4-3.4.9-6-2.2-12.3-14.4-5.1-9.9-8.6-14.2-11.6-14.2-2.5 0-6.5 5.3-11 14.8-3.8 7.9-4.4 9.9-3.8 13.2.4 2.1 1.3 4.4 2.2 5.1 1.7 1.5 1.4 1.7 6.8-7.8 2-3.4 4-6.5 4.5-6.8 2.1-1.3 4.9 1.8 9 9.5 5.9 11.5 9.2 15 14 15 3.7 0 9.1-3.2 11.3-6.8.7-1.1 1.3-1 3 .6 5 4.6 9.1 6.2 15.4 6.2 5.8 0 6.6-.3 10.4-3.7 6.1-5.5 8.2-10.3 14.4-32.6 1.7-6.2 2.8-6.8 6.9-3.6 3.6 2.8 5.4 9.9 6.4 24.6.5 7.4 1.4 12.8 2.1 13.7.9 1 3 1.6 5.7 1.6 8.1 0 14.7-8.6 17.4-22.5.6-3.3 1.6-8.9 2.3-12.4.7-3.6 1.7-6.6 2.3-6.8 2.1-.7 7 4.5 8.3 8.9.7 2.3 1.7 9.6 2.1 16 .9 14.3 2.1 16.8 8.1 16.8 4.7 0 6.8-1 12.7-5.8l4.3-3.4 2.7 2.5c5.5 5.1 9.3 6.7 16.3 6.7 5.5 0 7.2-.5 11-2.9 2.5-1.5 6.1-4.8 8.1-7.2 3.9-4.8 8.8-13.9 8.8-16.4 0-2.9-3.9-1.5-6.7 2.4-1.5 2.1-4.2 4.8-5.9 6-7.9 5.5-20.3 5.4-23.7 0-.8-1.3-.3-2.6 2.4-5.7 5.3-6.2 8.3-12.9 8.7-19.7.4-5.4.1-6.5-2.2-9.2-6.8-8.1-17.5-6.3-22.7 3.8-3.5 7-4.3 22.7-1.4 30.1.5 1.2-.2 2.1-2.4 3.2-6.2 3.3-7.3 2.1-9.1-9.9-2.9-19.5-7.2-28.3-15.3-31.4-5.3-2-8.4-1.4-11.2 2.4-2.5 3.2-2.6 3.7-1.4 7 2.5 6.8-2.6 30.1-7.1 32.5-4.2 2.3-4.5 1.7-6.6-13.3-2.3-16.5-5.3-23.2-12.5-27.6-8.2-5-15.5-.8-14.3 8.3 1.2 8.2-5.5 25.8-11.8 31.1-2.6 2.2-3.9 2.6-7.1 2.2-4-.5-7.7-3.1-7.7-5.2 0-.7 1.4-3 3.1-5.1 4.1-5.2 6.6-10.2 7.9-15.9 1.4-6.1 0-10.4-4.6-14.5-3.9-3.3-7.8-3.8-13-1.6zm9.4 11.5c.3 3.3-.4 5.9-2.8 10.7-1.7 3.5-3.5 6.4-4 6.4-.4 0-1.2-1.9-1.6-4.3-1.9-11 .3-18.1 5.4-17.5 2.4.3 2.7.8 3 4.7zm121.6-3.3c1.2 3.2.5 7-2.3 13-4.3 9.2-5.3 9.2-6.6 0-.9-5.5 0-11 2.1-13.1 2-2 6-1.9 6.8.1z"/>
</svg>
