<svg xmlns="http://www.w3.org/2000/svg" width="841.889" height="595.281">
  <path fill="#000" d="M245.634 384.305c-11.886 2.972-23.771 3.962-35.657 3.962-42.59 0-70.322-19.81-70.322-66.36 0-44.571 28.724-63.39 69.332-63.39 11.886 0 23.771.99 35.656 2.971v21.79c-8.914-.99-15.847-1.98-23.771-1.98-32.686 0-48.532 9.904-48.532 42.59 0 30.704 14.856 41.6 48.532 41.6 8.914 0 15.848-.991 23.771-1.981v20.8h.991zM684.406 385.296H716.1V260.498h-31.694v124.798zm0-149.56H716.1v-28.723h-31.694v28.723zM658.655 382.325c-5.942.99-27.732 4.952-49.522 4.952-40.609 0-70.323-18.819-70.323-64.38 0-43.58 26.742-65.371 67.352-65.371 5.942 0 15.848.991 20.8.991v-51.504h31.694l-.001 175.312m-30.705-18.819v-81.218c-3.962 0-10.896-.99-17.828-.99-28.724 0-39.618 13.866-39.618 42.59 0 25.752 9.904 41.6 38.628 41.6 5.942-.001 11.885-.992 18.818-1.982M518.009 385.296h-30.704v-82.208c0-13.866-5.942-21.79-25.752-21.79-13.866 0-28.723 2.972-28.723 2.972v101.026h-30.704V264.46c1.98 0 41.599-5.942 64.38-5.942 27.732 0 52.494 4.952 52.494 42.59v84.188h-.991zM376.374 385.296c-21.79 1.981-38.628 2.972-57.446 2.972-31.695 0-57.447-4.952-57.447-40.608 0-34.666 31.695-36.647 60.418-37.638h22.781c0-21.79-.991-29.714-32.686-29.714-15.848 0-32.686 2.971-42.59 4.952v-22.78c11.886-2.972 30.704-3.962 44.57-4.953 35.657 0 62.399 3.962 62.399 41.6v86.169zm-31.694-18.819v-35.656h-20.8c-18.819 0-30.704.99-30.704 18.818s14.856 18.818 29.714 18.818c8.914-.989 13.866-.989 21.79-1.98M841.889 384.305c-11.885 2.972-23.771 3.962-35.656 3.962-42.59 0-70.322-19.81-70.322-66.36 0-44.571 28.724-63.39 69.332-63.39 11.886 0 23.771.99 35.656 2.971v21.79c-8.914-.99-15.847-1.98-23.771-1.98-32.686 0-48.532 9.904-48.532 42.59 0 30.704 14.856 41.6 48.532 41.6 8.914 0 15.847-.991 23.771-1.981v20.8h.99zM123.807 335.773c0 36.646-28.723 52.494-71.312 52.494-27.733 0-47.542-4.952-50.514-5.942v-25.752c9.905 1.98 30.704 6.933 48.532 6.933 17.829 0 40.609-3.962 40.609-23.771 0-12.876-9.904-17.828-27.733-22.781l-20.799-5.942C18.819 304.078 0 294.174 0 266.441c0-39.619 31.694-49.523 68.342-49.523 21.79 0 39.618 3.962 42.589 4.952v23.771c-3.961-.991-20.799-4.952-39.618-4.952-17.828 0-38.628 1.98-38.628 21.79 0 14.856 11.886 18.818 28.724 22.78 7.924 2.972 15.848 3.962 23.771 6.934 20.799 5.942 38.627 15.847 38.627 43.58"/>
</svg>
