<svg version="1" xmlns="http://www.w3.org/2000/svg" viewBox="0 0 200 200">
  <path d="M0 100v100h200V0H0v100zm54 48.5c0 1.3-2.1 1.5-13.3 1.5-11.9 0-13.6.2-15.1 1.9-1.1 1.2-1.6 3.1-1.4 5.2.4 4.8 3.3 5.9 15.1 5.9 9.2 0 10 .2 12.4 2.6 2.2 2.2 2.5 3.2 2 6.7-1 7-2.7 7.7-18.8 7.7-8.6 0-13.9-.4-13.9-1s4.8-1 12.3-1c14.6 0 17.1-.9 17.5-6.2.5-5.6-2-6.8-14.6-6.8-9.6 0-10.5-.2-12.7-2.5-4.3-4.2-2.7-12.3 2.9-14.5 1.1-.5 7.8-.9 14.9-.9 10.6-.1 12.7.1 12.7 1.4zm15 6.5v8h5.5c7.6 0 9.5-1.2 14-8.7 3.7-6.2 6.5-8.9 6.5-6.4 0 .6-1.6 3.5-3.5 6.6-5.4 8.3-5.4 8.5-.7 8.5 5.8 0 8.2 3.3 8.2 11.1 0 4.6-.3 5.9-1.5 5.9s-1.5-1.3-1.5-5.9c0-8.4-1.2-9.1-15.7-9.1H69v7.5c0 6-.3 7.5-1.5 7.5-1.3 0-1.5-2.4-1.5-15.8 0-8.7.3-16.2.7-16.5 1.7-1.8 2.3 0 2.3 7.3zm43 8.5c0 14-.2 16.5-1.5 16.5s-1.5-2.4-1.5-15.8c0-8.7.3-16.2.7-16.5 1.9-2 2.3.7 2.3 15.8zm16-3.2c0 17 0 17.1 10.9 17.5 4.5.2 8.1.8 8.1 1.3 0 1-14.9 1.2-17.5.3-3.5-1.4-4.5-5.8-4.5-19.4 0-10.9.2-13 1.5-13s1.5 2.1 1.5 13.3zm33 1.3c.5 13.5.6 13.9 3 15.1 1.4.7 5.5 1.3 9.3 1.3 3.8 0 6.7.4 6.7 1s-3.5 1-8.5 1c-7.8 0-8.8-.2-11-2.5-2.4-2.3-2.5-2.9-2.5-16.5 0-10.9.3-14.1 1.3-13.8.8.3 1.3 4.5 1.7 14.4z"/>
</svg>
