<svg xmlns="http://www.w3.org/2000/svg" viewBox="-1.444 -1.444 83.718 51.016">
  <defs>
    <clipPath id="g">
      <path d="M544.963 64.284h-20.086c-.346 0-.627.233-.627.522v1.013c0 .287.281.521.627.521h4.846v2.125c0 1.172 1.021 1.272 1.736 1.429.606.134 1.896.215 3.466.222h.137c1.507 0 2.74-.092 3.328-.222.716-.157 1.736-.257 1.736-1.429V66.34h4.837c.345 0 .626-.234.626-.521v-1.013c0-.289-.281-.522-.626-.522m-10.038 4.004c-1.283 0-2.087-.065-2.952-.191-.291-.043-.555-.294-.555-.608V66.34h7.014v1.149c0 .314-.265.565-.556.608-.865.126-1.667.191-2.951.191"/>
    </clipPath>
    <clipPath id="f">
      <path d="M544.967 59.467h-20.085c-.346 0-.627.232-.627.521v2.256c0 .289.281.522.627.522h20.085c.346 0 .628-.233.628-.522v-2.256c0-.289-.282-.521-.628-.521"/>
    </clipPath>
    <clipPath id="e">
      <path d="M545.595 57.429h-21.34c.002.288.282.52.627.52h20.085c.346 0 .627-.232.628-.52"/>
    </clipPath>
    <clipPath id="d">
      <path d="M547.556 59.619l-.018.001c-.213.008-.369.307-.369.505l-.001 7.026c0 .36.126.562.396.731.438.274 1.262.406 2.007.406.803 0 1.645-.14 1.898-.221.23-.073.315-.25.277-.403-.082-.332-.343-1.05-.493-1.326-.084-.157-.217-.252-.493-.252h-.004c-.263 0-.578.047-.794.047-.791 0-1.181-.079-1.243-.798-.114-1.345.106-3.054.483-4.274.102-.326.035-.574-.13-.737-.242-.242-1.11-.705-1.516-.705"/>
    </clipPath>
    <clipPath id="c">
      <path d="M522.282 59.619c-.406 0-1.274.463-1.516.705-.164.163-.231.411-.13.737.378 1.22.598 2.929.484 4.274-.063.719-.452.798-1.244.798-.216 0-.531-.047-.793-.047h-.004c-.277 0-.41.095-.494.252-.149.276-.41.994-.493 1.326-.037.153.048.33.278.403.252.081 1.095.221 1.897.221.746 0 1.569-.132 2.008-.406.27-.169.394-.371.394-.731v-7.026c0-.198-.155-.497-.368-.505l-.019-.001"/>
    </clipPath>
    <clipPath id="b">
      <path d="M547.633 57.429h-2.038c-.001.288-.282.52-.628.52h-20.085c-.345 0-.625-.232-.627-.52h-1.954v.608c-2.173.318-3.255 1.481-3.255 2.752 0 .711.308.977.517 2.911.097.894-.382.777-.667.806-.83.085-1.268.407-1.758 1.265-.257.448-.595 1.593-.595 1.85 0 1.626 1.363 2.254 3.681 2.254 1.721 0 3.208-.486 3.789-1.549h3.796c0 3.241 3.247 3.675 7.159 3.675 3.911 0 7.157-.434 7.157-3.675h3.796c.581 1.063 2.069 1.549 3.789 1.549 2.318 0 3.68-.628 3.68-2.254 0-.257-.337-1.402-.593-1.85-.492-.858-.93-1.18-1.759-1.265-.285-.029-.764.088-.667-.806.209-1.934.517-2.2.517-2.911 0-1.271-1.082-2.434-3.255-2.752v-.608m-22.751 5.337c-.346 0-.627-.233-.627-.522v-2.256c0-.289.281-.521.627-.521h20.085c.346 0 .628.232.628.521v2.256c0 .289-.282.522-.628.522h-20.085m24.689 5.522c-.745 0-1.569-.132-2.007-.406-.27-.169-.396-.371-.396-.731l.001-7.026c0-.198.156-.497.369-.505l.018-.001c.406 0 1.274.463 1.516.705.165.163.232.411.13.737-.377 1.22-.597 2.929-.483 4.274.062.719.452.798 1.243.798.216 0 .531-.047.794-.047h.004c.276 0 .409.095.493.252.15.276.411.994.493 1.326.038.153-.047.33-.277.403-.253.081-1.095.221-1.898.221m-29.695-2.155c.792 0 1.181-.079 1.244-.798.114-1.345-.106-3.054-.484-4.274-.101-.326-.034-.574.13-.737.242-.242 1.11-.705 1.516-.705l.019.001c.213.008.368.307.368.505v7.026c0 .36-.124.562-.394.731-.439.274-1.262.406-2.008.406-.802 0-1.645-.14-1.897-.221-.23-.073-.315-.25-.278-.403.083-.332.344-1.05.493-1.326.084-.157.217-.252.494-.252h.004c.262 0 .577.047.793.047m5.001.207c-.346 0-.627-.234-.627-.521v-1.013c0-.289.281-.522.627-.522h20.086c.345 0 .626.233.626.522v1.013c0 .287-.281.521-.626.521h-4.837v2.125c0 1.172-1.02 1.272-1.736 1.429-.588.13-1.821.222-3.328.222h-.137c-1.57-.007-2.86-.088-3.466-.222-.715-.157-1.736-.257-1.736-1.429V66.34h-4.846m13.555 0h-7.014v1.149c0 .314.264.565.555.608.865.126 1.669.191 2.952.191 1.284 0 2.086-.065 2.951-.191.291-.043.556-.294.556-.608V66.34"/>
    </clipPath>
    <clipPath id="a">
      <path d="M502.635 72.001V33.498h64.664v38.503h-64.664"/>
    </clipPath>
  </defs>
  <g clip-path="url(#a)" transform="matrix(1.25 0 0 -1.25 -628.294 90.001)">
    <path d="M534.968 35.478c-13.49 0-22.636-1.98-24.211-1.98-1.507 0-2.836 1.013-3.269 2.302-.432 1.288-4.152 14.116-4.719 16.2-.554 2.036.602 4.06 3.424 4.06h16.108v1.977c-2.173.318-3.255 1.481-3.255 2.752 0 .711.308.977.517 2.911.097.894-.382.777-.667.806-.83.085-1.268.407-1.758 1.265-.257.448-.595 1.593-.595 1.85 0 1.626 1.363 2.254 3.681 2.254 1.721 0 3.208-.486 3.789-1.549h3.796c0 3.241 3.247 3.675 7.159 3.675 3.911 0 7.157-.434 7.157-3.675h3.796c.581 1.063 2.069 1.549 3.789 1.549 2.318 0 3.68-.628 3.68-2.254 0-.257-.337-1.402-.593-1.85-.492-.858-.93-1.18-1.759-1.265-.285-.029-.764.088-.667-.806.209-1.934.517-2.2.517-2.911 0-1.271-1.082-2.434-3.255-2.752V56.06h16.107c2.824 0 3.978-2.024 3.424-4.06-.566-2.084-4.285-14.912-4.718-16.2-.433-1.289-1.762-2.302-3.268-2.302-1.576 0-10.722 1.98-24.21 1.98" fill="#fff" fill-rule="evenodd"/>
  </g>
  <path d="M74.541 12.041c-2.043 0-3.685-1.661-3.685-3.706a3.68 3.68 0 0 1 3.685-3.692 3.695 3.695 0 0 1 3.707 3.692 3.707 3.707 0 0 1-3.707 3.706zm0-6.787a3.085 3.085 0 0 0 0 6.169 3.089 3.089 0 0 0 3.097-3.088 3.085 3.085 0 0 0-3.097-3.081zm.082 2.685c.485 0 .82-.19.82-.604 0-.359-.288-.589-.71-.589H73.7V7.94h.922zm-1.57-1.736h1.757c.989 0 1.314.61 1.314 1.043 0 .645-.459 1.105-1.133 1.145v.02c.34.119.595.462.925.993l.484.771h-.785l-.351-.619c-.5-.888-.695-1.065-1.185-1.065H73.7v1.684h-.648V6.202M24.582 15.476c-.497.019-1.61-.572-1.918-.88-.205-.204-.289-.514-.163-.921.473-1.525.748-3.661.605-5.343-.078-.898-.565-.997-1.555-.997-.27 0-.663.059-.991.059-.35 0-.517-.118-.623-.315-.186-.345-.512-1.243-.616-1.658-.046-.191.06-.412.348-.503.315-.102 1.369-.277 2.371-.277.932 0 1.961.165 2.51.508.337.211.492.464.492.914v8.782c0 .248-.193.621-.46.631M56.129 15.476c.496.019 1.61-.572 1.917-.88.206-.204.29-.514.163-.921-.472-1.525-.747-3.661-.604-5.343.078-.898.565-.997 1.554-.997.27 0 .663.059.992.059.348 0 .516-.118.621-.315.188-.345.514-1.243.617-1.658.047-.19-.06-.412-.347-.503-.316-.102-1.368-.277-2.372-.277-.931 0-1.961.165-2.509.508-.337.211-.495.464-.495.914l.001 8.782c0 .248.195.621.462.631M53.7 18.216c0-.36-.352-.651-.785-.651H27.809c-.433 0-.784.291-.784.651v1.268c0 .358.351.651.784.651h25.106c.433 0 .785-.292.785-.651v-1.268M53.7 12.196c0-.361-.352-.652-.785-.652H27.809c-.433 0-.784.291-.784.652v2.82c0 .361.351.651.784.651h25.106c.433 0 .785-.29.785-.65v-2.82M35.979 5.64c0-.393.33-.706.693-.76 1.082-.158 2.087-.239 3.69-.239 1.605 0 2.608.081 3.69.239.363.054.694.367.694.76v1.436H35.98V5.64M52.91 7.076h-6.046V4.42c0-1.465-1.275-1.59-2.17-1.786-.758-.168-2.37-.285-4.332-.278-1.962.01-3.575.11-4.332.278-.894.196-2.17.321-2.17 1.786v2.656h-6.058c-.432 0-.783.293-.783.652v1.266c0 .361.351.652.783.652H52.91c.431 0 .782-.291.782-.652V7.728c0-.36-.35-.652-.782-.652" fill="#000" fill-rule="evenodd"/>
  <path d="M76.366 22.41H4.346c-1.2-.009-2.142 1.05-1.789 2.408 0 0 5.235 17.904 5.667 19.377.348 1.149 1.158 1.563 2.163 1.426a201.845 201.845 0 0 1 29.922-2.213h.093c10.155 0 20.138.748 29.92 2.213 1.007.137 1.817-.277 2.165-1.426.432-1.472 5.668-19.378 5.668-19.378.351-1.357-.59-2.416-1.789-2.407" fill="#000" fill-rule="evenodd"/>
  <path d="M29.544 25.945c-1.493 0-2.009.184-2.009.184V40.3s.569.178 2.009.178c1.437 0 2.063-.178 2.063-.178V26.13s-.5-.184-2.063-.184M58.998 29.26c0-.212.156-.364.358-.364l8.464.001v-2.763s-2.972-.212-6.407-.212c-3.557 0-6.49.203-6.49.203v14.169s3.23.212 6.49.212c3.286 0 6.407-.205 6.407-.205v-2.775h-8.46a.352.352 0 0 1-.36-.36v-2.337c0-.218.149-.36.36-.36h6.193v-2.777h-6.197a.357.357 0 0 1-.358-.362v-2.07M49.028 25.946c-1.467 0-2.035.183-2.035.183v8.612c0 .383-.383.563-.657.175l-6.102-8.787s-.584-.187-2.21-.187-2.583.187-2.583.187V40.3s.522.178 2.027.178c1.474 0 2.047-.178 2.047-.178V31.76c0-.409.438-.494.626-.204l6.155 8.746s.678.183 2.378.183c1.537 0 2.396-.183 2.396-.183V26.13s-.665-.183-2.042-.183M25.091 26.129s-3.169-.207-7.034-.207c-3.677 0-7.327.207-7.327.207v2.906h4.91c.202 0 .361.159.361.366v10.903s.661.17 2.056.17 2.02-.17 2.02-.17V29.4c0-.207.163-.366.365-.366h4.65v-2.906" fill="#fff" fill-rule="evenodd"/>
</svg>
