<svg version="1" xmlns="http://www.w3.org/2000/svg" viewBox="0 0 1920 717">
  <path d="M1703.8 32.2c-10 .9-14.6 2.2-24.3 6.7-20.2 9.5-34.5 26.6-40.6 48.7-3 10.5-3 26.5-.1 37.5 7.2 27.1 29.4 48.5 56.5 54.4 11.3 2.5 28.4 1.7 39-1.8 20.3-6.6 38.2-23.1 46-42.5 4.5-11 6-20.2 5.5-32.6-.8-15.6-4.7-26.9-14.2-40.4l-3-4.3-25.3 25.3-25.3 25.3-4.2-4.3-4.3-4.2 24.8-24.8c13.6-13.6 24.7-25.2 24.7-25.7 0-1.1-10.3-8.3-15.5-10.8-10.2-5.1-26.5-7.7-39.7-6.5zM1839 168.1c-15.8 1.3-30.5 7.9-42.5 19.1-28.4 26.5-32.6 66.7-10.1 98.2 9.2 12.9 21.2 21.7 37.1 27.3 7.3 2.5 9.2 2.7 22.5 2.7s15.2-.2 22.5-2.7c11.9-4.2 20.9-9.9 30.6-19.6 12.5-12.6 20.8-28.7 20.9-40.9V247h-70.1l.3-5.8.3-5.7 34.8-.3 34.7-.2v-3.3c0-1.7-.9-6.4-2-10.2-5.7-19.9-18.8-36-37-45.4-13.1-6.8-26.1-9.3-42-8zM313.7 290.1c-26.6 4-34 38.4-11.4 53.6 19.1 12.8 44.9-1.2 45-24.6.1-18.1-15.6-31.6-33.6-29zM1694 303c-25.5 6.8-45.9 26.9-53.2 52.5-2.6 9.3-3.1 27.9-.9 35.5 6.8 23.9 20.7 41 41.4 50.9 6.4 3.1 20.1 7.1 24.2 7.1.3 0 .5-16 .5-35.5V378h12v71.1l4.8-.6c15.7-2.2 28.5-8.2 39.7-18.7 16.2-15.1 24.5-33.6 24.5-54.9 0-28.2-16-54-41.4-66.4-10.5-5.1-17.5-6.7-31.6-7.1-10.2-.3-13.9 0-20 1.6zM0 452v149h53V425l27.3-.2 27.2-.3v-53l-27.2-.3L53 371v-68H0v149zM666.5 304.2c-.3.7-.4 67.7-.3 148.8l.3 147.5 26.8.3 26.7.2V303h-26.5c-20.3 0-26.7.3-27 1.2zM1023 452v149h52V425l27.8-.2 27.7-.3v-53l-27.7-.3-27.8-.2v-68h-52v149zM224.5 373.1c-51.9 5.4-90.4 40.2-103.1 93.4-1.5 6.1-1.8 15.3-2.1 70.3l-.4 63.2 26.8-.2 26.8-.3.6-60c.5-50.4.8-61 2.2-66 5.2-19.7 17.6-35.3 34.9-44 9.6-4.8 19.3-6.7 31.7-6.3l10.1.3v-50.2l-6.1-.7c-7.2-.7-10.5-.6-21.4.5zM864.4 373c-53.8 4.5-94.7 42.1-105 96.6-2.2 12-1.5 36.2 1.4 48.4 10.9 44.7 46.8 78.9 91.9 87.5 10.1 1.9 30.6 1.9 41.9 0 47.2-8.3 82.9-43.1 92.7-90.5 2.7-12.9 2.8-14.3 1.4-13.7-.7.3-11.2 3.3-23.3 6.6-30 8.5-28.1 7.8-28.9 10.9-1.4 5.9-7.7 17-12.7 22.6-7 7.9-15 12.9-26.7 16.8-8.8 3-10.7 3.2-22.6 3.3-14.5 0-18.6-1-31-7.4-8.9-4.6-19-14.5-22.8-22.5-1.6-3.2-2.5-6.2-2-6.5.6-.6 153-44.7 168.4-48.8 1.5-.4 1.5-1.2-.2-8.6-7.2-32-24.4-58.2-49.8-75.6-16.4-11.2-32.8-17.2-52.7-19.1-5.4-.5-10.1-.9-10.4-.8-.3 0-4.6.4-9.6.8zm27.6 47.9c8.8 2.8 18.3 8.5 24.6 14.8 5.9 5.8 11.1 14 9.8 15.2-.9.7-117.1 34.2-118.6 34.1-1.3 0-.8-12.2.7-18.9 2.7-11.2 7.1-18.7 16.5-28.1 9.6-9.6 18.5-14.6 31.7-18 10.2-2.6 25.8-2.2 35.3.9zM1244.8 373.1c-52.7 4.3-94.1 42.5-104.2 95.8-2 10.6-2.1 30.2-.1 41.7 8.3 47.9 45.4 85.8 93.2 94.9 10.1 1.9 30.6 1.9 41.9 0 47.2-8.3 82.9-43 92.7-90.5 2.7-12.8 2.8-14.3 1.4-13.7-.6.2-11.1 3.2-23.2 6.6-12.1 3.5-23.4 6.7-25.1 7.2-2.5.8-3.3 1.8-4.7 6.2-2.2 6.8-7.7 16.1-13 21.6-14.1 14.7-41 22.4-62.1 17.7-11.2-2.5-22.6-8.6-30-16-6.2-6.1-13.6-18.2-12-19.5.5-.4 38.9-11.7 85.4-25 46.4-13.3 84.5-24.3 84.6-24.4.2-.1-.4-3.1-1.2-6.7-7.6-33.5-24.8-59.6-51.4-77.9-20-13.8-45.7-20.2-72.2-18zm24.4 46.8c14.6 3.8 27.5 12.3 34.7 23.2 2.3 3.4 4 6.7 3.8 7.2-.4 1.2-116.7 34.8-118.4 34.2-1.8-.6-1.6-10.4.2-18.4 2.6-11.1 7.1-18.7 16.5-28.1 6.6-6.6 10.3-9.4 16.2-12.3 15.4-7.4 32.3-9.5 47-5.8zM500 375.7c-7.9.6-20.7 3.3-28.7 6-36.2 12-63.1 41.5-74 80.8l-2.7 10-.3 104.2-.4 104.3H447v-91l6.4 3.5c19.4 10.7 46.2 15.9 70.3 13.6 29.5-2.9 52.2-13.1 71.4-32.1 40.4-40 46.6-103.5 14.7-150.8-23.4-34.7-62.9-52.2-109.8-48.5zm28 48.9c11.6 2.7 20.5 7.9 30 17.4 8.6 8.6 12.5 14.9 16.4 26.3 5.8 17.3 3.8 39.5-5.1 55.7-5.2 9.5-17.8 21.6-27.3 26.2-10.9 5.4-19.3 7.1-32 6.5-17.6-.8-30.8-6.6-43.2-19-8-8-15-21-17.4-32.7-1.9-8.8-1.4-24.1 1.1-33.5 6.1-23 23.4-40.6 45.9-46.5 8.8-2.3 22.7-2.5 31.6-.4zM292 490.5V601h54V380h-54v110.5zM1376 382.5c0 .2 16.4 23.6 36.5 52s36.5 51.7 36.5 51.9c0 .3-18.2 26.3-40.5 58-22.3 31.6-40.5 57.8-40.5 58.1 0 .3 14.3.5 31.9.5h31.8l24.8-37.5c13.6-20.6 25-37.5 25.4-37.5.3 0 11.6 16.9 24.9 37.5l24.4 37.5h32.5c25.7 0 32.3-.3 31.7-1.3-.5-.6-18.4-26-39.9-56.2-21.6-30.3-39.8-56-40.5-57.1-1.2-2 1.4-6 34.7-53 19.8-28 36.3-51.5 36.7-52.2.6-.9-5.9-1.2-30.8-1.2h-31.5l-20.8 33.5c-11.4 18.4-21.1 33.5-21.4 33.5-.4 0-10.2-15.1-22-33.5l-21.3-33.5h-31.3c-17.2 0-31.3.2-31.3.5z"/>
</svg>
