<svg version="1" xmlns="http://www.w3.org/2000/svg" viewBox="0 0 372 88">
  <path d="M39 11c0 .4 4.2 7.2 9.3 15.1C66 53.4 72.1 63.2 71 62.5c-.6-.3-14.5-10.7-31-23.1C23.5 27.1 9.6 17 9.1 17c-1.9 0-7 7.1-7.7 10.5C-3.1 51.9 37.5 81 72.9 78.7c10.1-.6 16.3-2.6 21.4-6.8 5-4.2 6.8-8 6.8-14.6 0-19.2-26.5-40.5-57.3-46.2-2.7-.5-4.8-.5-4.8-.1zM127 11.2c0 .7 4.1 16 9.2 34l9.3 32.8h5.8c3.1 0 5.7-.3 5.7-.8 0-.4 4.1-15.3 9-33.1 4.9-17.9 8.7-32.8 8.4-33.3-.3-.4-3.2-.8-6.5-.8-5.2 0-6.1.3-6.9 2.2-1.4 3.3-8.1 30.5-8.9 36.3-.9 6-.6 6.8-6.7-18l-4.9-20-6.7-.3c-5.1-.2-6.8 0-6.8 1zM185 44v34h13l-.2-33.8-.3-33.7-6.2-.3-6.3-.3V44zM213.2 13.7c-1.2 2.7-1.7 6.4-1.7 12.3.1 8.3.2 8.8 5.7 20 3.1 6.3 5.9 13 6.3 14.8 1 4.8-.4 10.9-3.2 14.3l-2.5 3 8.3-.3 8.3-.3 1.9-6.3c2.9-9.5 1.8-15.1-5.4-29-3.2-6.2-6.2-13.1-6.5-15.3-.7-4.2 1.5-11.8 4.2-13.9 2.7-2.3 1.4-3-6.2-3h-7.5l-1.7 3.7zM254.6 14.2c-.3 2.4-1.5 15.1-2.6 28.3-1.1 13.2-2.3 26.6-2.6 29.7l-.6 5.8h7c8.3 0 8.1.4 8.3-15 .1-5.8.4-14.8.8-20l.6-9.5.8 5.5c.9 6.3 6.5 34.6 7.3 37.3.5 1.5 1.5 1.7 5.7 1.5l5.2-.3 3.2-18.5c1.7-10.2 3.2-20.3 3.2-22.4.1-2.2.3-3.7.7-3.4.4.4 3.3 37.7 3.4 43.5 0 .9 2.1 1.3 7 1.3h7l-.5-3.8c-.3-2-1.9-16.9-3.5-33.1-1.7-16.2-3.3-29.8-3.6-30.2-.5-.9-17.4-1.3-17.4-.5 0 .2-1.1 8.6-2.5 18.7s-2.5 18.8-2.6 19.4c0 .5-1.4-6.9-3-16.5s-3.1-18.5-3.4-19.8c-.5-2.1-1-2.2-9-2.2h-8.4l-.5 4.2zM334.7 10.7c-.3.4-4.4 15.1-9.1 32.6-4.8 17.6-9 32.5-9.3 33.3-.4 1.1.9 1.4 6.6 1.4h7l1-3.8c4.3-16.4 8.1-32.5 8.1-34.6 0-1.4.5-2.8 1-3.1.6-.3 1 .2 1 1.2s2.1 10.5 4.6 21l4.6 19.3h14.5l-9.6-33.8-9.7-33.7-5.1-.3c-2.8-.2-5.3.1-5.6.5z"/>
</svg>
